<svg xmlns="http://www.w3.org/2000/svg" xmlns:xlink="http://www.w3.org/1999/xlink" id="svg" version="1.1" viewBox="0 0 399.6 101.2"><g id="svgg"><path id="path0" d="M 102.2 50.6 L 102.2 101.2 L 103.2 101.2 L 104.2 101.2 L 104.2 50.7 C 104.2 10.4 104.2 0.2 104.4 0.1 C 104.5 0.1 104 0 103.4 0 L 102.2 0 L 102.2 50.6 M 47.4 0.3 C 44.9 0.5 44 0.6 42.7 0.8 C 42.1 0.9 41.4 1 41.3 1.1 C 41.1 1.1 40.5 1.2 39.9 1.3 C 39.4 1.5 38.9 1.6 38.8 1.6 C 36.9 2 33.2 3.2 30.9 4.2 C 28.4 5.2 24.9 7 24.7 7.3 C 24.6 7.4 24.4 7.5 24.2 7.6 C 24 7.6 23.8 7.8 23.8 7.8 C 23.8 7.9 23.7 8 23.5 8.1 C 23.4 8.1 23.1 8.3 22.9 8.4 C 22.3 8.8 21.6 9.2 21.4 9.4 C 21.1 9.7 20.8 9.9 19.7 10.7 C 19.2 11.1 18.7 11.5 18.6 11.6 C 18.5 11.7 18.1 12 17.6 12.4 C 16.2 13.5 12.7 17.1 11.4 18.7 C 11.1 19.1 10.7 19.6 10.5 19.9 C 10.2 20.2 10 20.5 10 20.5 C 10 20.6 9.9 20.7 9.8 20.9 C 9.3 21.4 7.4 24.3 6.3 26.2 C 4.7 29 2.5 34.4 1.8 37.2 C 1.4 38.9 1.2 40 1 40.8 C 0.9 41.3 0.8 42.2 0.7 42.7 C 0.1 45.5 -0.2 54.1 0.2 55.2 C 0.3 55.4 0.5 57.5 0.5 58.2 C 0.5 58.3 0.6 58.6 0.7 58.9 C 0.8 59.2 0.9 59.7 0.9 60.1 C 1 60.8 1.1 61.1 1.3 62.2 C 1.4 62.6 1.5 63.1 1.6 63.3 C 1.6 63.5 1.7 63.7 1.7 63.8 C 1.9 64 2 64.6 2 65 C 2 65.1 2.1 65.3 2.2 65.4 C 2.3 65.5 2.4 65.8 2.4 66 C 2.5 66.2 2.5 66.5 2.6 66.6 C 2.6 66.7 2.7 66.9 2.8 67.1 C 2.9 67.3 3 67.5 2.9 67.5 C 2.9 67.5 3 67.8 3.2 68.3 C 3.3 68.7 3.5 69 3.5 69 C 3.5 69.1 3.6 69.3 3.7 69.6 C 3.8 69.9 3.9 70.2 3.9 70.3 C 3.8 70.4 3.9 70.5 4 70.5 C 4 70.5 4.2 70.7 4.3 71 C 4.6 71.6 5.8 74.2 6.4 75.3 C 8.1 78.4 11.7 83.1 14.9 86.3 C 34.6 106 66.5 106 86.2 86.3 C 106.9 65.6 105.6 31.7 83.4 12.5 C 80.8 10.2 76.5 7.3 74.8 6.5 C 74.4 6.3 74.2 6.1 74.2 6 C 74.2 5.9 74 5.8 73.9 5.8 C 73.8 5.8 73.4 5.7 73.2 5.6 C 72.9 5.5 72.2 5.1 71.5 4.8 C 70.8 4.5 70 4.1 69.6 3.9 C 69.3 3.8 68.9 3.7 68.8 3.7 C 68.6 3.7 68.5 3.6 68.4 3.5 C 68.4 3.4 68.1 3.3 67.9 3.3 C 67.6 3.2 67.1 3.1 66.8 2.9 C 66.4 2.7 66 2.6 65.9 2.6 C 65.8 2.6 65.4 2.5 65 2.3 C 64 2 64 2 63.3 1.8 C 62.9 1.7 62.4 1.6 62.3 1.6 C 62.1 1.6 61.5 1.4 61.1 1.3 C 60.6 1.2 60.1 1.1 59.8 1.1 C 59.6 1.1 58.9 0.9 58.3 0.8 C 57 0.6 56.8 0.6 53.3 0.4 C 50.3 0.2 50.3 0.2 47.4 0.3 M 50.1 5.9 C 50.3 8 50.5 11.4 50.5 11.4 C 50.4 11.5 50.1 11.6 49.8 11.6 C 49 11.7 48.8 11.6 48.8 10.1 C 48.8 9 48.8 9 48.5 9.1 C 48.3 9.1 47.7 9.2 47.2 9.2 L 46.2 9.2 L 46.3 10.5 L 46.4 11.8 L 45.7 11.9 C 44.8 12 44.9 12.2 44.7 9.7 C 44.6 8.4 44.5 7 44.4 6.5 C 44.3 5.6 44.3 5.5 44.7 5.4 C 45.7 5.2 45.9 5.3 46 6.5 C 46 7.9 46.1 7.9 47.6 7.8 L 48.6 7.6 L 48.5 6.5 C 48.4 5.2 48.5 5 49.4 5 C 50 5 50 5 50.1 5.9 M 55.3 5.3 C 55.9 5.3 55.9 5.5 57.3 10.6 C 57.4 11 57.5 11.5 57.6 11.7 C 57.7 12 57.6 12 56.9 12 L 56 12 L 55.8 11.3 C 55.6 10.6 55.6 10.5 54.9 10.4 C 53.5 10.2 53.4 10.3 53.1 11 C 52.9 11.6 52.8 11.7 52.1 11.7 C 51.1 11.7 51.1 11.6 51.7 10.3 C 52 9.7 52.7 8.3 53.2 7.2 C 54 5.4 54.1 5.2 54.4 5.2 C 54.6 5.3 55 5.3 55.3 5.3 M 42.4 6 C 42.4 6 42.5 6.4 42.6 6.7 L 42.7 7.3 L 41.7 7.3 C 40 7.3 39.1 9 40 10.4 C 40.6 11.4 42 11.6 43 10.9 L 43.5 10.5 L 43.6 11.2 C 43.9 12.1 43.4 12.5 41.4 12.8 C 38.3 13.2 36.8 8.5 39.4 6.6 C 40.2 6.1 42.2 5.6 42.4 6 M 61.1 6.4 C 61.2 6.5 61 7.6 60.7 8.9 C 60.1 11.6 60.1 11.6 61.3 11.8 C 62.3 11.9 62.4 12 62.3 12.7 C 62.2 13.2 62.1 13.3 61.9 13.3 C 61.7 13.2 60.9 13 60 12.8 C 59.1 12.6 58.4 12.4 58.4 12.4 C 58.3 12.4 58.4 11.8 58.6 11.2 C 58.7 10.6 59 9.3 59.3 8.3 C 59.8 5.8 59.7 6 60.4 6.2 C 60.8 6.2 61.1 6.4 61.1 6.4 M 54.6 7.2 C 54.6 7.3 54.4 7.8 54.2 8.3 L 53.9 9.1 L 54.6 9.2 L 55.3 9.3 L 55.2 8.8 C 55 7.6 54.7 6.9 54.6 7.2 M 66 7.8 C 66.4 7.9 66.7 8.1 66.7 8.1 C 66.7 8.1 66.3 9.2 65.8 10.4 C 64.6 13.2 64.6 12.9 65.8 13.3 C 67 13.8 67 13.8 66.7 14.5 C 66.6 14.9 66.4 15 66.2 14.9 C 66 14.8 65.2 14.5 64.4 14.2 C 63.5 13.9 62.8 13.6 62.9 13.5 C 62.9 13.4 63.4 12.1 64.1 10.4 C 64.7 8.8 65.2 7.5 65.3 7.5 C 65.3 7.5 65.6 7.6 66 7.8 M 34 11.5 C 34.8 13 35.4 14.3 35.5 14.4 C 35.5 14.4 35.2 14.6 34.8 14.8 L 34.2 15.2 L 31.9 13.9 C 30.7 13.3 29.7 12.7 29.7 12.7 C 29.7 12.7 30.1 13.5 30.6 14.5 C 31.1 15.5 31.5 16.3 31.5 16.4 C 31.5 16.6 30.3 17.2 30.3 17.1 C 30.2 17 27.6 11.9 27.5 11.6 C 27.4 11.4 27.5 11.3 28.1 11 L 28.8 10.6 L 29.9 11.3 C 30.6 11.6 31.6 12.2 32.1 12.5 C 32.7 12.9 33.2 13.1 33.1 13.1 C 33.1 13 32.7 12.1 32.2 11.2 C 31.2 9.2 31.2 8.8 32.5 8.7 C 32.5 8.7 33.2 9.9 34 11.5 M 73.5 11.4 C 73.5 11.5 73.4 11.8 73.2 12 L 72.9 12.4 L 72 11.9 C 71 11.4 70.9 11.4 70.7 11.9 C 70.4 12.6 70.4 12.6 71.3 13.1 C 72.3 13.6 72.3 13.5 71.9 14.2 L 71.7 14.7 L 70.8 14.3 C 70.4 14 70 13.8 69.9 13.8 C 69.7 13.8 69.1 14.8 69.2 14.9 C 69.2 14.9 69.7 15.2 70.3 15.5 C 71.3 16 71.3 16 71.1 16.4 C 70.7 17.2 70.7 17.2 69.8 16.7 C 69.3 16.4 68.5 16 68 15.8 L 67.2 15.3 L 67.8 14.2 C 68.1 13.6 68.8 12.3 69.3 11.3 L 70.2 9.5 L 71.8 10.4 C 72.8 10.8 73.5 11.3 73.5 11.4 M 76.3 13 L 76.9 13.5 L 76.7 15.8 C 76.6 17.2 76.5 18.3 76.6 18.3 C 76.6 18.3 77.2 17.6 77.8 16.8 C 79.1 15.1 79.2 15.1 79.9 15.8 C 80.2 16.2 80.2 16.2 79 17.7 C 78.4 18.5 77.5 19.6 77 20.2 C 76.2 21.3 76.2 21.3 75.5 20.7 L 75 20.2 L 75.2 18.2 C 75.3 17 75.4 15.8 75.4 15.5 C 75.5 15 75.4 15.1 74.2 16.7 C 73.4 17.6 72.8 18.4 72.8 18.5 C 72.7 18.5 72.5 18.3 72.2 18 L 71.6 17.6 L 72.4 16.5 C 74.1 14.3 75.6 12.5 75.7 12.5 C 75.7 12.5 76 12.7 76.3 13 M 26.5 14.1 C 28 15.3 28.6 17.4 27.7 18.8 C 25.9 21.5 22.1 20.5 21.6 17.2 C 21.2 14.7 24.4 12.7 26.5 14.1 M 54.9 14.9 C 74.4 17.4 88.4 34.9 86.4 54.4 C 83.8 78.8 58.1 93.5 35.7 83.5 C 22.7 77.7 14.6 65.1 14.6 50.7 C 14.6 29 33.5 12.2 54.9 14.9 M 24.1 15.2 C 22.8 15.7 22.7 17 23.9 18.3 C 24.9 19.4 26.7 18.9 26.7 17.4 C 26.7 16.5 25.1 14.9 24.5 15 C 24.4 15 24.3 15.1 24.1 15.2 M 20.1 17.6 L 20.5 17.9 L 20.1 18.3 C 19.2 19.2 19.2 19.2 21 20.9 C 21.9 21.8 22.8 22.6 22.9 22.7 C 23 22.8 22.9 23 22.6 23.4 C 22.3 23.7 22.1 23.9 22 24 C 22 24 21.4 23.5 20.8 22.9 C 20.1 22.3 19.3 21.4 18.9 21.1 L 18.2 20.4 L 17.5 21.1 L 16.9 21.7 L 16.4 21.3 L 15.9 20.8 L 17.2 19.5 C 17.9 18.8 18.7 18 18.9 17.7 C 19.5 17.1 19.7 17 20.1 17.6 M 82.9 18.9 C 83.6 19.2 84.6 20 85 20.8 L 85.4 21.4 L 84.9 21.8 C 84.3 22.5 84.3 22.5 83.9 21.7 C 83.1 19.8 80.8 19.7 79.9 21.5 C 79.3 22.8 80.4 24.3 81.4 23.5 L 81.8 23.2 L 81.3 22.7 L 80.8 22.2 L 81.3 21.8 L 81.8 21.3 L 82.7 22.4 L 83.6 23.4 L 82.5 24.6 C 81.2 25.9 81 25.9 79.7 24.7 C 76.6 22 79.2 17.4 82.9 18.9 M 15.7 22.2 L 16.2 22.5 L 15.6 23.3 C 15.3 23.7 15.2 24.1 15.3 24.1 C 15.3 24.2 16.3 24.9 17.4 25.7 C 19.6 27.2 19.5 27.1 18.9 27.8 L 18.4 28.3 L 16.3 26.8 L 14.3 25.3 L 13.9 25.7 C 13.7 26 13.4 26.3 13.4 26.5 C 13.2 26.8 12.2 26.4 12.3 26 C 12.3 25.7 15 21.8 15.1 21.8 C 15.2 21.8 15.4 22 15.7 22.2 M 88.1 24.8 L 89.1 26.3 L 88.6 26.7 L 88.1 27.1 L 87.8 26.7 C 87.6 26.4 87.4 26 87.2 25.8 C 86.9 25.3 86.8 25.2 86.2 25.6 C 85.7 25.9 85.7 26 86.4 26.9 L 86.9 27.7 L 86.5 28 C 85.9 28.5 85.8 28.4 85.3 27.6 C 84.7 26.7 84.7 26.7 84 27.2 L 83.5 27.5 L 84.2 28.4 C 84.9 29.5 85 29.5 84.4 29.9 L 83.9 30.2 L 83.6 29.7 C 82.9 28.9 81.6 27 81.7 26.9 C 81.8 26.8 85.9 24 86.3 23.6 C 87 23.2 87 23.2 88.1 24.8 M 12.9 28.3 C 16 29.9 16.7 30.6 16.1 32.2 C 15.2 34.8 14.1 35 10.9 33.4 C 8.6 32.2 8.7 32.3 9.1 31.5 L 9.4 30.9 L 11.4 31.8 C 13.8 33.1 14.5 33.1 14.8 31.9 C 14.9 31.2 14.6 30.9 12.5 29.9 C 11.4 29.3 10.5 28.8 10.5 28.8 C 10.5 28.6 11.2 27.5 11.3 27.5 C 11.3 27.5 12 27.8 12.9 28.3 M 30.5 29.5 C 30.9 30.2 31.9 31.8 32.7 33 C 34.6 36.2 34.6 36 32.6 32.2 C 31.1 29.2 30.8 28.7 30.3 28.5 L 29.7 28.2 L 30.5 29.5 M 91 29.6 C 91.8 31.3 91.8 31.9 91.2 32.6 C 90.7 33.3 89.8 33.5 89.1 33.1 C 88.5 32.9 88.5 32.9 88.4 33.2 C 88.2 33.8 87 35.8 86.9 35.8 C 86.7 35.8 86.2 34.7 86.2 34.4 C 86.2 34.3 86.4 33.8 86.7 33.3 C 87.9 31.5 87.7 31.1 86.2 31.8 C 85 32.5 85.1 32.5 84.7 31.7 L 84.3 31 L 87.1 29.6 C 90.5 27.9 90.1 27.9 91 29.6 M 89 30.4 C 88.2 30.8 88.2 30.8 88.7 31.4 C 89.4 32.3 90.6 31.7 90.1 30.6 C 90 30.3 89.8 30 89.8 30 C 89.8 30 89.4 30.2 89 30.4 M 56.8 33.8 C 57.3 34.7 56.6 35.8 55.6 35.8 C 55.4 35.8 55.4 35.9 55.4 36 C 55.7 36.5 57.8 35.8 57.8 35.1 C 57.8 34.7 57.2 33.7 56.9 33.6 C 56.7 33.5 56.7 33.6 56.8 33.8 M 8.8 34.5 C 9.4 34.7 9.5 34.9 9.1 35.2 C 8.4 35.7 8.2 36.9 8.7 37.2 C 8.9 37.3 9.1 37.2 10 36.4 C 12.4 34.2 14.7 36 13.3 39.1 C 12.8 40.2 12.6 40.3 11.8 40 C 11.1 39.8 11 39.7 11.5 39.4 C 12 39.1 12.4 38.2 12.3 37.6 C 12.2 36.8 11.8 36.9 10.9 37.8 C 8.3 40.4 5.7 37.9 7.8 34.7 C 8 34.3 8.1 34.3 8.8 34.5 M 92.7 34.7 C 93.4 35.1 93.9 35.9 94.2 37.5 C 94.3 38 94.3 38 93.8 38.3 C 93 38.6 92.9 38.6 93 38 C 93 37.5 92.6 36.4 92.3 36.2 C 91.9 36.1 91.5 36.5 91.5 36.9 C 91.5 40.6 88.2 41.1 87.3 37.6 C 86.9 36.2 86.9 36.2 87.6 35.9 C 88.5 35.6 88.5 35.6 88.4 36.3 C 88.3 37 88.7 38.1 89.1 38.3 C 89.5 38.4 89.8 38 89.9 37 C 90.1 35 91.3 34 92.7 34.7 M 57.9 41.1 C 58.3 41.6 58.8 42.3 59.1 42.7 C 59.4 43.3 59.5 43.4 59.5 43 C 59.5 42 58.7 40.9 57.5 40.5 C 57.1 40.3 57.2 40.4 57.9 41.1 M 44.2 44.7 C 48.3 46.8 52 47.1 54.9 45.6 C 55.9 45.1 55.9 45.1 55.4 45 C 55 44.9 54.7 45 53.9 45.4 C 52 46.3 48.7 46 44.5 44.5 C 42.7 43.8 42.6 43.9 44.2 44.7 M 7.7 54.4 L 8.1 55.8 L 9.7 55.8 L 11.3 55.9 L 10 56.8 C 9.4 57.3 8.8 57.7 8.8 57.8 C 8.8 57.9 9 58.5 9.3 59.2 C 9.8 60.8 9.8 60.8 8.4 59.8 C 7 58.8 7.2 58.8 5.9 59.8 C 4.5 60.8 4.5 60.8 5.1 59.2 C 5.3 58.5 5.5 57.8 5.5 57.8 C 5.5 57.7 5 57.3 4.3 56.8 L 3.1 55.9 L 4.6 55.9 L 6.2 55.8 L 6.6 54.4 C 7.2 52.7 7.2 52.7 7.7 54.4 M 93.2 54.4 L 93.6 55.8 L 95.2 55.8 L 96.8 55.9 L 95.5 56.8 C 94.9 57.3 94.3 57.7 94.3 57.8 C 94.3 57.9 94.5 58.5 94.8 59.2 C 95.3 60.8 95.3 60.8 93.9 59.8 C 92.5 58.8 92.7 58.8 91.4 59.8 C 90.1 60.8 90 60.8 90.6 59.2 C 90.8 58.5 91 57.9 91 57.8 C 91 57.7 90.5 57.3 89.8 56.8 L 88.6 55.9 L 90.1 55.9 L 91.7 55.8 L 92.1 54.4 C 92.7 52.7 92.7 52.7 93.2 54.4 M 38.1 57.7 C 37.9 57.9 37.8 58 38 57.9 C 38.9 57.7 40.4 58.6 41.2 59.8 C 41.7 60.5 41.8 60.7 42.3 60.7 C 42.9 60.7 43 60.5 42.5 59.9 C 40.8 57.7 39.1 56.8 38.1 57.7 M 53.5 58.7 C 53.5 59.3 55.7 62.9 56.8 64.1 L 57.2 64.6 L 56.8 64 C 56.1 62.8 55.2 60.8 55 60.1 C 54.8 59.5 53.5 58.3 53.5 58.7 M 40.1 63.2 C 40.1 63.4 40.5 65.5 40.9 67.8 C 41.9 73.1 41.8 72.8 42.1 72.8 C 42.4 72.8 42.4 73.1 41.7 68.7 C 41.5 67.2 41.3 65.4 41.2 64.5 C 40.9 62.9 40.9 62.9 40.5 62.8 C 40 62.7 40 62.8 40.1 63.2 M 41.8 63.1 C 41.8 63.3 42 64.1 42.7 68.2 C 42.9 68.9 43.1 70.2 43.3 71.1 C 43.5 72.3 43.6 72.8 43.8 72.8 C 44.1 72.8 43.9 70.8 42.9 64.7 C 42.8 63.8 42.7 63 42.7 63 C 42.7 62.9 42.5 62.8 42.3 62.8 C 42 62.8 41.8 62.9 41.8 63.1 M 59.8 66.5 C 58 67.3 57.6 67.9 58.4 68.6 C 58.8 69.1 59 69.1 59 68.7 C 59 68.2 59.8 67 60.5 66.5 C 61.4 65.9 61.2 65.9 59.8 66.5 M 62.9 69.4 C 62.8 69.6 62.5 69.4 66.1 70.9 C 67.9 71.6 69.6 72.4 69.8 72.6 L 70.2 72.9 L 69.9 72.4 C 69.5 71.6 69.5 71.6 66.6 70.5 C 65.1 70 63.7 69.5 63.5 69.4 C 63.2 69.2 63 69.2 62.9 69.4 M 78.7 79.6 C 79.2 79.9 79.4 80.4 79.3 81.1 C 79.2 81.6 79.3 81.6 79.7 81.5 C 82 81.2 82.3 83.6 80.2 85.4 C 79.7 85.9 79.1 86.3 79 86.5 C 78.7 86.7 78.5 86.4 76.6 84.2 L 74.5 81.8 L 75.4 80.9 C 77 79.5 77.8 79.1 78.7 79.6 M 24.6 80.2 C 25.2 80.5 26.5 81.7 26.5 82 C 26.5 82 26.3 82.3 26 82.5 L 25.6 83 L 25.3 82.5 C 24.5 81.2 23 81 22 82 C 20.8 83.1 21.1 84.5 22.7 85.3 C 23 85.4 23.3 85.6 23.3 85.6 C 23.4 85.6 23.2 85.9 22.9 86.2 L 22.5 86.7 L 21.9 86.3 C 21.1 86 20.1 84.9 19.8 84.3 C 18.8 81.6 22.1 78.8 24.6 80.2 M 76.8 81.3 L 76.4 81.6 L 76.8 82.1 C 77.3 82.7 77.4 82.7 77.9 82.1 C 78.5 81.3 77.6 80.6 76.8 81.3 M 29.1 83.5 C 31 84.8 31.3 85.7 30.2 86.9 C 29.8 87.2 29.5 87.3 29 87.3 C 28.4 87.3 28.3 87.3 28.5 87.8 C 28.7 88.3 28.7 90.8 28.5 90.8 C 28.4 90.8 28 90.6 27.7 90.4 L 27 90 L 27.1 88.8 C 27.3 86.7 26.8 86.3 25.9 87.8 C 25.2 88.8 25.1 88.8 24.4 88.3 L 23.9 87.9 L 25.7 85.2 C 26.7 83.6 27.5 82.5 27.6 82.6 C 27.7 82.6 28.4 83 29.1 83.5 M 75.7 86.3 C 76.4 87.7 75.8 89.2 74.3 89.9 C 72.5 90.7 71.4 89.8 69.1 85.9 L 68.8 85.4 L 69.5 85 L 70.2 84.6 L 71.3 86.4 C 72.8 88.8 73.3 89.1 74.1 88.3 C 74.7 87.7 74.6 87.3 73.4 85.4 C 72.9 84.5 72.3 83.7 72.3 83.5 C 72.2 83.4 72.4 83.2 72.8 82.9 L 73.4 82.5 L 74.5 84.1 C 75 85 75.6 86 75.7 86.3 M 78.6 83.2 L 78.1 83.6 L 78.6 84.2 C 79.2 84.7 79.8 84.6 80.1 83.8 C 80.4 82.9 79.4 82.5 78.6 83.2 M 27.7 85 C 27.3 85.7 27.3 85.7 27.6 85.9 C 28.3 86.4 29.2 86.1 29.2 85.3 C 29.2 85.1 28.4 84.3 28.2 84.3 C 28.1 84.3 27.9 84.6 27.7 85 M 33.5 86 C 34.1 86.3 34.6 86.6 34.6 86.6 C 34.8 86.8 34.1 87.7 33.9 87.6 C 33.5 87.5 31.7 91 32 91.2 C 32.2 91.3 32 92.2 31.7 92.3 C 31.5 92.4 29.5 91.4 29.5 91.2 C 29.5 90.7 29.9 90.2 30.2 90.2 C 30.5 90.4 32.3 86.9 32 86.6 C 31.8 86.4 32.1 85.5 32.4 85.5 C 32.4 85.5 33 85.7 33.5 86 M 67.2 88.9 C 68.5 91.6 68.3 91.4 69.3 90.9 C 69.8 90.7 70.3 90.5 70.4 90.5 C 70.6 90.5 71.1 91.5 71 91.6 C 70.9 91.7 67.5 93.2 67.4 93.1 C 67.2 92.8 64.8 87.3 64.9 87.3 C 65 87.1 65.9 86.7 66.1 86.7 C 66.2 86.7 66.7 87.7 67.2 88.9 M 38.9 88 C 39.7 88.4 39.7 88.4 39.6 89 C 39.5 89.8 39.3 89.9 38.6 89.4 C 37.4 88.6 36.1 89 35.6 90.3 C 34.9 91.8 35.8 93 37.6 93 L 38.3 93 L 38.1 93.7 C 37.6 95.6 33.7 93.5 33.7 91.3 C 33.7 88.5 36.2 86.9 38.9 88 M 64 88 C 64.4 88.9 64.4 89.2 63.7 89.2 C 62.1 89.2 61.2 90.1 61.4 91.4 C 61.6 93.1 63.3 93.8 64.7 92.7 L 65.2 92.3 L 65.3 92.7 C 65.7 93.6 65.6 93.7 64.7 94.2 C 62.2 95.5 59.8 94.1 59.8 91.2 C 59.8 89.6 60.8 88.3 62.5 87.9 C 63.7 87.6 63.8 87.6 64 88 M 42.3 89.1 C 42.3 89.1 42.3 89.8 42.1 90.5 L 41.9 91.9 L 43.1 90.6 L 44.3 89.4 L 45.1 89.5 C 45.5 89.6 45.9 89.7 45.9 89.7 C 46 89.8 45.4 90.4 44.7 91.1 C 43.9 91.8 43.3 92.4 43.3 92.4 C 43.3 92.4 43.7 93.3 44.2 94.2 C 45.2 96.4 45.2 96.2 44.3 96.1 C 43.2 95.9 43.1 95.8 42.4 94.2 C 41.7 92.4 41.7 92.4 41.5 93.9 C 41.2 95.5 41.2 95.5 40.4 95.3 C 40 95.2 39.7 95.1 39.7 95.1 C 39.7 95.1 39.9 93.7 40.3 92 C 40.6 90.3 40.8 88.9 40.8 88.9 C 40.8 88.8 42.2 89 42.3 89.1 M 56.5 90.2 L 56.5 90.8 L 55.6 90.8 L 54.8 90.8 L 54.9 93 C 55 94.1 55.1 95.3 55.1 95.6 C 55.2 96.1 55.2 96.1 54.5 96.2 C 53.6 96.4 53.6 96.4 53.4 94.4 C 53.4 93.4 53.3 92.2 53.2 91.8 L 53.1 91 L 52.2 91.1 L 51.3 91.2 L 51.3 90.5 L 51.3 89.9 L 53.4 89.7 C 56.8 89.4 56.5 89.4 56.5 90.2 M 50.5 90.5 L 50.5 91.2 L 49.3 91.2 L 48.2 91.2 L 48.2 91.7 C 48.2 92.4 48.4 92.5 49.4 92.5 C 50.2 92.5 50.2 92.5 50.2 93.1 L 50.2 93.7 L 49.2 93.7 L 48.2 93.7 L 48.2 94.3 C 48.2 95.1 48.3 95.2 49.6 95.2 L 50.5 95.2 L 50.5 95.8 C 50.4 96.2 50.3 96.4 50.2 96.4 C 50.1 96.4 49.2 96.4 48.2 96.4 L 46.4 96.3 L 46.6 93.1 C 46.7 89.3 46.4 89.7 48.6 89.8 L 50.5 89.9 L 50.5 90.5" stroke="none" fill="#0b2c6f" fill-rule="evenodd"></path><path id="path1" d="M 49.8 16.6 C 49.8 16.6 48.5 16.7 47.1 16.8 C 40.2 17.3 31.5 21.1 27.4 25.5 L 27 25.9 L 28.5 25.9 C 29.6 25.9 30.1 26 30.5 26.3 C 31.6 26.9 36.8 34.8 37.4 36.8 C 37.8 37.8 37.9 38 38.6 38.1 C 39.2 38.2 39.4 38.4 39.8 39.2 C 40.3 40 47.1 42.8 47.3 42.2 C 48.1 39.7 49.5 38.3 51.1 38.3 L 52 38.3 L 51.7 37.6 C 51.4 36.5 51.7 34.3 52.4 33.4 C 53.7 31.8 56.8 31.7 58 33.3 C 58.8 34.4 59 37.9 58.4 38.7 L 58 39.2 L 58.8 39.8 C 60.8 41.5 61.1 42.5 60.5 46.2 C 60.1 48.5 59.9 48.2 62.4 48 C 64.6 47.8 65.2 47.9 64.8 48.4 C 64.7 48.6 63.6 48.8 61.1 48.9 L 59.9 49 L 59.7 49.6 C 59.6 50.2 59.6 50.3 59.8 50.6 C 60.1 50.9 59.9 51.2 59.5 51.2 C 59.2 51.2 59.2 51.3 59.2 51.6 C 59.2 51.9 59.1 52.4 58.9 52.8 C 58.7 53.7 58.9 54.3 59.7 54.8 C 59.9 54.9 60 55.1 59.9 55.3 C 59.9 55.4 60 56.1 60.2 56.8 C 60.4 57.5 60.5 58.4 60.5 58.8 C 60.5 59.3 60.8 60.1 61.8 62.2 L 63.1 64.9 L 66.3 67.1 C 68.1 68.3 69.9 69.3 70.3 69.5 C 73.2 70.8 73.6 71.1 73.1 71.9 C 72.8 72.3 72.8 72.3 73.9 72.8 C 74.5 73.1 75.1 73.3 75.1 73.3 C 75.2 73.3 75.3 73.4 75.5 73.6 C 76.4 74.4 81.3 66.3 82.9 61.6 C 84.2 57.7 85 52.5 84.5 51.5 C 84.3 51.2 84.3 51.1 84.5 51 C 85 50.9 84.7 49.6 84.2 49.7 C 83.2 50 83.2 49.2 84.2 48.9 C 84.7 48.8 84.7 48.8 84.6 48 C 84.5 47.6 84.5 47 84.4 46.7 C 84.1 42.1 81.9 36.2 78.9 31.6 C 73.4 23.3 63.6 17.5 54.3 16.8 C 53.2 16.8 51.7 16.6 51.1 16.6 C 50.4 16.5 49.9 16.5 49.8 16.6 M 25.5 27.4 C 20.8 32.4 17.1 40.4 16.6 46.5 C 16.6 47 16.5 47.7 16.4 48.1 C 16.3 48.8 16.3 48.8 17 49 C 17.9 49.4 17.8 49.9 16.9 49.8 C 16.3 49.7 16.3 49.7 16.3 50.3 C 16.3 50.7 16.4 51 16.5 51 C 16.7 51 16.7 51.6 16.5 51.7 C 15.9 51.9 16.9 58 18.1 61.5 C 22.2 73.7 32.3 82.2 45.5 84.5 C 47.2 84.8 53.8 84.8 55.5 84.5 C 62.2 83.4 67.2 81.1 72.3 77 C 74 75.7 74.4 75.2 73.3 75.8 C 72.5 76.3 71.7 76.3 71.1 75.7 C 70.9 75.4 70.5 75.2 70.3 75.2 C 69.9 75.2 68.9 74.3 68.3 73.4 C 67.9 72.8 63.1 70.9 61.7 70.8 C 57.5 70.4 55.5 68.8 57 67.2 L 57.4 66.9 L 55 63.8 C 53.6 62.1 52.5 60.8 52.3 60.8 C 52.2 60.8 51.5 60.9 50.8 61.1 C 50.1 61.2 48.3 61.4 46.8 61.5 C 45.3 61.6 44.1 61.7 44 61.7 C 44 61.8 44.2 62.6 44.4 63.7 C 44.9 66 45.3 69.4 45.3 71.2 C 45.3 72 45.4 72.6 45.6 72.8 C 46.4 74.3 46.4 74.7 45.7 75.3 C 45.5 75.4 45.3 75.7 45.3 76 L 45.3 76.4 L 43 76.5 C 39.9 76.5 39.1 76.1 39.9 74.9 C 40.6 73.7 40.3 70.1 39.2 66.1 C 38.9 65.1 38.6 64 38.6 63.8 C 38.5 63.5 38.3 63.3 38.1 63.2 C 37.7 63.1 37.5 62.5 37.6 61.8 C 37.6 61.3 37.6 60.7 37.4 60.1 C 36.6 57 37.7 55.7 40.6 56.4 C 41.5 56.7 41.5 56.7 42.3 56.2 L 43.1 55.8 L 42 55.6 C 41.2 55.5 41 55.4 41 55.2 C 41.1 54.9 43.6 54.7 43.9 55 C 44 55.1 44.4 55 45.1 54.7 C 45.6 54.4 46.4 54.1 46.8 53.9 L 47.4 53.6 L 45.8 53.5 C 44 53.4 43.3 53 44.4 52.7 C 45.1 52.6 48.7 52.8 49 53.1 C 49.5 53.4 49.7 53 49.5 52.2 C 49.4 51.8 49.3 51.4 49.2 51.3 C 49 51.2 49 51 49.1 50.8 C 49.1 50.5 49.1 50.1 49.1 49.8 L 49 49.2 L 46.6 49.2 C 44.2 49.2 43.9 49.1 44.1 48.6 C 44.2 48.3 44.4 48.3 46.5 48.4 C 48.4 48.4 48.8 48.4 48.8 48.2 C 48.7 48.1 48.7 47.8 48.7 47.7 C 48.7 47.1 47.5 46.9 46.5 47.3 C 45.4 47.6 44 47.6 42.5 47.3 C 41.9 47.1 41 47 40.4 47 C 39.2 47 38.5 46.8 38.4 46.4 C 38.2 45.9 37.6 45.1 37.3 44.9 C 37.1 44.7 37 44.5 37 44.3 C 37 44.1 36.9 43.8 36.7 43.7 C 36.5 43.6 36.3 43.4 36.3 43.3 C 36.3 43.1 36.2 42.9 36 42.8 C 35.8 42.8 35.7 42.5 35.6 42.3 C 35.5 42 35.3 41.7 35.2 41.5 C 35 41.3 34.8 41 34.8 40.8 C 34.8 40.6 34.7 40.3 34.5 40.2 C 34.2 40 34.1 39.9 34.2 39.4 C 34.3 39.1 34.2 38.8 34.2 38.8 C 34.1 38.8 33.8 38.4 33.6 38 C 32.5 35.8 29.6 31.3 27.6 28.7 C 26.9 27.8 26.3 27 26.3 26.9 C 26.3 26.7 26 26.9 25.5 27.4 M 23.1 46.2 C 25 46.6 25.4 46.8 25 47.2 C 24.9 47.4 21.6 46.8 20.7 46.5 C 20.1 46.3 20.3 45.6 21 45.8 C 21.1 45.8 22 46 23.1 46.2 M 80.6 45.8 C 80.9 46.4 76.5 47.4 75.8 47 C 75.4 46.7 75.9 46.5 77.8 46.1 C 79.9 45.6 80.4 45.6 80.6 45.8 M 72.8 47.4 C 72.8 47.8 68.4 48.5 68.1 48.1 C 67.7 47.7 68.1 47.5 70 47.3 C 72.4 47 72.8 47 72.8 47.4 M 19.1 47.4 C 20.6 47.8 21.1 48.7 19.6 48.4 C 18 48.1 17.2 47.7 17.6 47.3 C 17.8 47.1 17.9 47.1 19.1 47.4 M 30.9 47.4 C 32 47.6 32.9 47.7 33 47.7 C 33 47.7 33 47.8 33 48 C 33 48.4 32.4 48.4 30.2 48.2 C 28.4 47.9 27.9 47.8 28.2 47.4 C 28.4 47.1 28.4 47.1 30.9 47.4 M 83.5 47.4 C 83.6 47.9 81 48.6 80.6 48.2 C 80.3 47.9 80.6 47.7 81.6 47.4 C 82.5 47.2 83.4 47.2 83.5 47.4 M 40.7 48.3 C 40.9 48.3 41 48.5 41 48.6 C 40.9 48.9 40.6 48.9 38.7 48.9 C 36.4 48.8 35.8 48.6 36.1 48.2 C 36.2 48 40 48.1 40.7 48.3 M 79.4 48.1 C 79.9 48.3 79.7 48.6 79 48.8 C 77.7 49.2 76.8 49.2 76.7 48.9 C 76.6 48.5 76.7 48.5 77.8 48.2 C 79 48 79.1 48 79.4 48.1 M 23.1 48.4 C 24 48.5 24.4 48.9 24 49.2 C 23.9 49.3 23.6 49.3 22.9 49.2 C 21.4 48.9 21.3 48.8 21.3 48.5 C 21.3 48.1 21.7 48.1 23.1 48.4 M 75.8 49.2 C 75.6 49.8 72.9 50 72.9 49.4 C 72.9 49.1 73.1 49.1 74.1 48.9 C 75.3 48.7 75.9 48.8 75.8 49.2 M 27.5 49.2 C 28.2 49.3 28.4 49.7 27.9 49.9 C 27.5 50.1 25.3 49.6 25.2 49.4 C 25 48.8 25.9 48.8 27.5 49.2 M 71.8 49.6 C 72 50.1 69.4 50.6 69 50.2 C 68.7 49.9 69.1 49.5 69.9 49.5 C 71.4 49.3 71.7 49.3 71.8 49.6 M 31.1 49.6 C 31.9 49.7 32.2 50 31.9 50.4 C 31.7 50.6 29.3 50.3 29.2 50 C 28.9 49.5 29.4 49.4 31.1 49.6 M 35.6 50.1 C 35.9 50.2 36 50.3 36 50.5 C 35.9 50.8 33.4 50.8 33.1 50.5 C 32.6 50 33.9 49.8 35.6 50.1 M 67.8 50.1 C 67.8 50.5 67.4 50.7 66.1 50.7 C 65 50.7 64.8 50.6 65 50.2 C 65.3 49.8 67.8 49.7 67.8 50.1 M 24.6 50.8 C 25.1 50.8 25.3 51.3 25 51.5 C 24.7 51.9 20.3 50.9 20.3 50.4 C 20.3 50 20.8 50 22.6 50.4 C 23.5 50.6 24.4 50.8 24.6 50.8 M 80.6 50.2 C 80.8 50.5 80.2 50.8 78.4 51.1 C 76 51.6 75.2 51.6 75.8 51 C 76.2 50.5 80.4 49.9 80.6 50.2 M 39.8 50.4 C 40.1 50.5 40 50.9 39.7 51.1 C 38.8 51.4 36.5 50.8 37.2 50.3 C 37.4 50.2 39.3 50.3 39.8 50.4 M 63.9 50.4 C 64.2 50.8 63.5 51 62.2 51 C 61.2 50.9 60.9 50.9 60.9 50.7 C 60.9 50.2 63.7 50 63.9 50.4 M 43.9 50.9 C 43.9 51.5 41.2 51.4 41 50.8 C 41 50.5 41.1 50.5 42.4 50.5 C 43.8 50.6 43.9 50.6 43.9 50.9 M 47.7 50.7 C 48.3 51.1 47.9 51.3 46.4 51.3 C 45.1 51.3 45 51.3 45 51 C 45 50.5 47.1 50.3 47.7 50.7 M 72.8 51.6 C 72.9 52 72.7 52.1 70.4 52.4 C 68.7 52.6 68.2 52.6 68.1 52.5 C 67.7 52.1 68.1 51.9 70 51.6 C 72.5 51.3 72.7 51.3 72.8 51.6 M 19 51.8 C 20.3 52.1 20.6 52.4 20.3 52.7 C 20 52.8 19.8 52.8 18.8 52.6 C 17.6 52.3 17.2 51.9 17.7 51.7 C 18 51.5 17.8 51.5 19 51.8 M 30.7 51.7 C 32.8 52 33 52 33 52.4 C 33 52.7 32.1 52.7 30.2 52.5 C 28.4 52.3 27.9 52.1 28.2 51.7 C 28.4 51.5 28.3 51.5 30.7 51.7 M 83.4 51.8 C 83.4 52.3 80.8 52.9 80.6 52.5 C 80.4 52.2 80.7 52 81.6 51.8 C 82.6 51.5 83.4 51.5 83.4 51.8 M 64.8 52.4 C 65.2 52.8 64.7 53 62.6 53.1 C 60.3 53.3 59.6 53.2 60 52.7 C 60.2 52.5 61.6 52.4 64.3 52.2 C 64.5 52.2 64.7 52.3 64.8 52.4 M 40.5 52.6 C 41 52.7 41.2 53.1 40.8 53.3 C 40.6 53.4 36.4 53.2 36.2 53 C 35.2 52.4 38.1 52.1 40.5 52.6 M 79.5 52.6 C 79.8 53 79.5 53.1 78.1 53.4 C 76.2 53.7 76.1 53 77.9 52.6 C 79.2 52.3 79.3 52.3 79.5 52.6 M 22.9 52.7 C 24.1 52.9 24.5 53.2 24.1 53.5 C 23.6 53.9 21.2 53.3 21.4 52.8 C 21.5 52.4 21.6 52.4 22.9 52.7 M 75.8 53.5 C 75.8 54 73.1 54.4 72.9 53.9 C 72.7 53.5 72.9 53.5 74.1 53.3 C 75.2 53.1 75.8 53.2 75.8 53.5 M 26.6 53.3 C 28 53.6 28.2 53.7 28.2 53.9 C 28.2 54.3 27.7 54.3 26.5 54.1 C 25.2 53.9 24.7 53.4 25.6 53.2 C 25.6 53.2 26.1 53.2 26.6 53.3 M 71.8 53.9 C 72 54.4 69.4 55 69 54.5 C 68.6 54.2 69.1 53.9 70 53.8 C 71.6 53.7 71.7 53.7 71.8 53.9 M 31.9 54.2 C 32.3 54.6 31.8 54.8 30.7 54.7 C 29.4 54.6 29 54.4 29.1 54.1 C 29.2 53.8 31.6 53.9 31.9 54.2 M 35.6 54.4 C 35.9 54.5 36 54.6 36 54.8 C 35.9 55.1 33.4 55.2 33.1 54.9 C 32.6 54.3 33.9 54.1 35.6 54.4 M 67.8 54.5 C 67.8 54.8 67.4 55 66.1 55 C 65.1 55.1 64.8 54.9 64.9 54.6 C 65.1 54.1 67.8 54 67.8 54.5 M 39.1 54.7 C 39.9 54.7 40.2 55 39.9 55.4 C 39.6 55.6 37.2 55.4 37 55 C 36.9 54.7 37.3 54.5 37.9 54.6 C 38.2 54.6 38.7 54.7 39.1 54.7 M 63.9 54.7 C 64.2 55.1 63.5 55.3 62.2 55.3 C 61.2 55.3 60.9 55.2 60.9 55 C 60.9 54.6 63.7 54.3 63.9 54.7" stroke="none" fill="#810607" fill-rule="evenodd"></path><path id="path2" d="M 48.7 6.5 L 48.7 7.8 L 47.9 7.8 C 47.4 7.8 46.8 7.9 46.5 7.9 L 46 8 L 45.9 6.8 L 45.8 5.5 L 45.1 5.5 L 44.5 5.5 L 44.6 7.3 C 44.7 8.3 44.8 9.7 44.8 10.4 L 44.9 11.8 L 45.6 11.8 L 46.3 11.9 L 46.2 10.5 C 46.1 9 46.1 9 47.9 9 L 48.8 9 L 48.9 10.3 L 49 11.5 L 49.7 11.5 C 50.5 11.5 50.4 11.7 50.1 7.8 L 49.9 5.2 L 49.3 5.2 L 48.7 5.2 L 48.7 6.5 M 52.7 8.4 C 52 10 51.4 11.4 51.4 11.4 C 51.4 11.4 51.7 11.5 52.1 11.6 L 52.8 11.7 L 53.1 10.9 C 53.3 10.4 53.4 10.2 53.6 10.2 C 53.8 10.3 54.3 10.3 54.8 10.3 L 55.7 10.3 L 55.8 11.1 C 56 11.7 56.1 11.8 56.7 11.9 C 57.6 12 57.6 12.3 56.7 8.7 C 55.6 5 55.9 5.5 54.9 5.4 L 54.1 5.3 L 52.7 8.4 M 40.4 6.2 C 36.8 7.5 37.8 13 41.6 12.6 C 43 12.5 43.7 12 43.6 11.4 C 43.5 10.8 43.4 10.8 42.9 11.1 C 41.5 11.8 40.4 11.5 39.8 10.3 C 39.1 8.6 40 7.2 42 7.2 L 42.6 7.2 L 42.5 6.6 C 42.3 5.9 41.5 5.8 40.4 6.2 M 59.8 6.5 C 59.7 6.7 59.4 8.1 59 9.6 L 58.4 12.3 L 60.2 12.7 C 61.2 13 62.1 13.2 62.1 13.1 C 62.6 12.6 62.2 12.1 61.2 11.8 C 60.6 11.7 60.1 11.6 60 11.6 C 60 11.6 60.3 10.4 60.6 9 C 60.9 7.6 61.2 6.4 61.1 6.4 C 60.8 6.1 59.8 6.2 59.8 6.5 M 55.1 8 L 55.5 9.4 L 54.7 9.3 C 53.7 9.2 53.7 9.2 54.3 7.8 C 54.5 7.1 54.8 6.5 54.8 6.6 C 54.8 6.6 55 7.2 55.1 8 M 65.2 7.8 C 64.9 8.4 63 13.4 63.1 13.5 C 63.3 13.7 66.4 14.9 66.4 14.8 C 66.5 14.7 66.8 14 66.8 13.9 C 66.8 13.9 66.4 13.7 65.9 13.5 C 65.3 13.3 64.9 13.1 64.8 13 C 64.7 13 65.1 11.9 65.6 10.6 C 66.7 7.9 66.6 8.1 66 7.8 C 65.3 7.6 65.4 7.6 65.2 7.8 M 31.8 9.1 L 31.3 9.4 L 32.3 11.3 C 32.9 12.3 33.3 13.2 33.3 13.2 C 33.3 13.3 32.2 12.7 31 12 L 28.8 10.7 L 28.1 11 C 27.8 11.2 27.5 11.4 27.5 11.4 C 27.5 11.5 30.2 16.8 30.3 17 C 30.3 17 30.6 16.9 30.9 16.7 L 31.5 16.4 L 30.5 14.5 C 29.9 13.5 29.5 12.6 29.6 12.6 C 29.6 12.5 30.6 13.1 31.8 13.8 C 34.1 15 34.4 15.1 35.1 14.6 C 35.4 14.4 32.8 8.8 32.4 8.9 C 32.3 8.9 32 9 31.8 9.1 M 68.8 12.5 L 67.3 15.3 L 69 16.2 L 70.6 17 L 70.9 16.6 C 71 16.4 71.2 16.2 71.2 16.1 C 71.2 16.1 70.7 15.8 70.1 15.5 L 69 14.9 L 69.4 14.3 C 69.7 13.6 69.9 13.5 70.8 14.1 C 71.6 14.6 71.6 14.6 71.9 14 L 72.2 13.5 L 71.3 13.2 C 70.3 12.7 70.2 12.2 70.9 11.3 C 71 11.3 71.4 11.5 71.9 11.8 C 72.9 12.3 73.3 12.2 73.3 11.4 C 73.3 11.3 71.5 10.2 70.3 9.7 C 70.2 9.7 69.5 10.9 68.8 12.5 M 73.8 14.9 C 72.8 16.2 71.9 17.3 71.9 17.4 C 71.8 17.7 72.6 18.4 72.8 18.2 C 72.9 18.2 73.5 17.3 74.3 16.4 L 75.5 14.8 L 75.4 16 C 75.4 16.7 75.3 17.9 75.2 18.8 L 75.1 20.3 L 75.7 20.7 C 76 20.9 76.3 21 76.3 20.9 C 76.4 20.8 77.3 19.7 78.3 18.4 L 80.1 16.1 L 79.7 15.7 C 79.1 15.2 79.2 15.1 77.8 17 C 77 17.9 76.4 18.7 76.4 18.6 C 76.4 18.6 76.5 17.5 76.6 16.1 L 76.8 13.6 L 76.3 13.1 C 75.6 12.5 75.8 12.4 73.8 14.9 M 23.7 13.9 C 21.5 14.9 21 17.3 22.7 19.2 C 24.5 21.3 28 20.1 28 17.3 C 28 14.9 25.7 13.1 23.7 13.9 M 46.6 14.9 C 16.6 19.2 3.9 54 24.6 75.6 C 46.9 98.9 86.5 82.8 86.4 50.6 C 86.4 33 74.1 18.5 56.5 15.2 C 55.1 15 47.8 14.8 46.6 14.9 M 25.5 15.4 C 26.2 15.9 26.9 17.2 26.8 17.8 C 26.4 19.4 24.2 19.3 23.3 17.7 C 22.4 15.9 23.9 14.3 25.5 15.4 M 54.2 16.7 C 57.8 16.6 65.1 19.2 69.6 22.2 C 77.6 27.6 84.3 38.3 84.4 46.1 C 84.4 46.7 84.5 47.2 84.5 47.2 C 85 47.2 84.6 48.8 84.1 49 C 83.2 49.3 83.3 49.7 84.2 49.6 L 84.8 49.5 L 84.8 50.2 C 84.8 50.6 84.7 51 84.5 51.1 C 84.3 51.3 84.3 51.3 84.5 51.5 C 85.6 52.1 83.6 61 81.4 65.4 C 79.8 68.9 75.5 74.9 75.5 73.8 C 75.5 73.7 74.9 73.3 74.1 73 C 72.8 72.3 72.7 72.3 72.9 72 C 73.6 71.3 73.3 70.9 71.2 70 C 70.4 69.7 68.2 68.4 66.4 67.2 L 63.1 65 L 61.7 62.2 C 60.5 59.7 60.3 59.2 60.3 58.4 C 60.3 58 60.2 57.1 60.1 56.6 C 59.9 56 59.8 55.4 59.8 55.2 C 59.8 55 59.7 54.8 59.6 54.8 C 59.2 54.8 58.6 53.5 58.8 53 C 58.9 52.7 59 52.2 59 51.8 C 59 51.3 59.1 51.2 59.4 51.1 C 59.8 51 60 50.6 59.7 50.5 C 59.5 50.4 59.5 50.2 59.7 49.6 L 59.9 48.8 L 62.1 48.7 C 64.5 48.6 64.8 48.6 64.8 48.2 C 64.8 48 61.7 48 60.3 48.2 C 60.2 48.2 60.1 48.2 60.1 48.1 C 60.1 48 60.3 47.2 60.4 46.4 C 61.1 42.5 60.9 41.8 59 40.1 L 58 39.2 L 58.3 38.7 C 59 37.8 58.6 34.1 57.8 33.2 C 55.8 31 51.8 32.5 51.8 35.5 C 51.8 35.8 51.7 36.1 51.6 36.3 C 51.5 36.5 51.5 36.8 51.7 37.4 C 52.1 38.5 52.1 38.4 51.4 38.4 C 49.8 38.2 47.3 40.6 47.3 42.3 C 47.3 42.7 45.8 42.2 41.7 40.4 C 40.9 40.1 40.2 39.8 40 39.8 C 39.9 39.8 39.8 39.7 39.8 39.5 C 39.8 39 39.2 38.4 38.4 38.1 C 37.8 37.9 37.7 37.8 37.4 36.9 C 36.6 34.7 31.6 26.9 30.5 26.3 C 29.7 25.9 27.2 25.9 26.7 26.3 C 26.2 26.8 26.3 26.8 27.9 29 C 29.5 31 31.3 33.8 32.8 36.5 C 33.5 37.6 34.1 38.6 34.2 38.7 C 34.3 38.8 34.3 39.1 34.3 39.4 C 34.3 39.7 34.4 40.1 34.6 40.2 C 34.7 40.3 34.8 40.5 34.8 40.7 C 34.8 40.9 35 41.2 35.3 41.4 C 35.5 41.7 35.7 42 35.7 42.2 C 35.7 42.3 35.8 42.6 36 42.7 C 36.1 42.8 36.3 43.1 36.5 43.4 C 36.6 43.6 36.7 43.8 36.8 43.8 C 36.9 43.8 37 44 37.1 44.2 C 37.1 44.4 37.4 44.9 37.7 45.3 C 38.1 45.6 38.3 46 38.3 46.1 C 38.3 46.6 39 46.8 40.4 46.9 C 41.2 47 42.3 47.1 42.8 47.3 C 44.1 47.6 45.3 47.6 46.4 47.2 C 47.2 46.8 48.7 47 48.7 47.3 C 48.7 47.4 48.7 47.7 48.8 48 L 48.9 48.5 L 46.5 48.5 C 44.3 48.5 43.7 48.6 44.1 49 C 44.1 49 45.3 49.1 46.6 49.1 C 48.6 49.1 49 49.1 49.1 49.3 C 49.2 49.9 49.2 50.6 49.1 50.8 C 49 51 49 51.1 49.2 51.3 C 49.7 51.6 49.8 53.1 49.4 53.2 C 49.2 53.3 48.9 53.2 48.8 53.1 C 48.6 52.8 44.3 52.7 44.1 53 C 43.9 53.4 44.4 53.5 46.2 53.5 C 47.3 53.5 47.8 53.6 47.6 53.7 C 44.1 55.2 44.1 55.2 43.5 55 C 42.7 54.7 41.1 54.8 41.1 55.2 C 41.1 55.4 41.4 55.4 42.2 55.5 L 43.4 55.6 L 42.5 56.2 C 41.6 56.8 41.5 56.8 40.9 56.6 C 38.1 55.6 36.7 57 37.4 59.8 C 37.6 60.3 37.7 61.2 37.7 61.7 C 37.6 62.6 37.7 62.8 38 63.1 C 39.4 64.2 41 73.6 40 74.8 C 39 76 39.7 76.3 42.9 76.3 L 45.3 76.3 L 45.3 75.9 C 45.3 75.7 45.5 75.3 45.8 75.1 C 46.3 74.6 46.3 74.1 45.8 73.3 C 45.4 72.8 45.4 72.4 45.2 70 C 45 67.5 44.6 64.7 44.2 62.8 C 43.9 61.5 43.7 61.6 46.6 61.4 C 48.3 61.4 49.9 61.2 50.9 61 C 51.8 60.8 52.6 60.7 52.7 60.8 C 52.8 60.9 53.9 62.3 55.2 63.9 L 57.5 66.9 L 57.1 67.3 C 55.7 68.8 57.6 70.3 61.2 70.6 C 63.6 70.8 67.8 72.6 68.8 73.8 C 69.5 74.8 70.2 75.3 70.5 75.1 C 70.6 75 70.9 75.3 71.2 75.6 C 72 76.3 72.4 76.3 73.6 75.5 C 74.9 74.7 74.9 74.7 73.8 75.8 C 57 91.7 28.6 85.9 19.2 64.7 C 17.2 60.1 15.7 52.6 16.5 51.6 C 16.7 51.3 16.7 51.3 16.5 51.1 C 15.8 50.6 16.1 49.6 16.8 49.7 C 17.6 49.8 17.7 49.4 16.9 49.1 C 16.3 48.8 16 47.5 16.5 47.3 C 16.6 47.2 16.6 47 16.6 46.8 C 16.3 45.8 17.5 40.9 18.8 37.8 C 23.5 26 35.8 17 47.5 16.7 C 48.2 16.7 48.8 16.6 48.8 16.6 C 48.9 16.5 50 16.5 51.3 16.6 C 52.7 16.6 53.9 16.7 54.2 16.7 M 17.9 18.9 C 16 21 16.1 20.9 16.5 21.3 C 16.8 21.6 16.9 21.5 17.5 20.9 L 18.1 20.3 L 20 22 C 22.2 24.1 22 24 22.5 23.3 L 22.8 22.8 L 21 21.1 L 19.2 19.3 L 19.5 18.8 C 20.3 18 20.4 17.9 19.9 17.5 L 19.6 17.2 L 17.9 18.9 M 80.6 18.9 C 77.8 19.9 77.5 23.2 80 24.9 C 81.2 25.7 81.2 25.7 82.4 24.5 L 83.5 23.4 L 82.6 22.4 L 81.8 21.5 L 81.4 21.9 L 81 22.2 L 81.3 22.6 C 81.8 23 81.8 23.3 81.3 23.7 C 80 24.8 79 22.1 80.3 20.8 C 81.5 19.6 82.9 19.8 83.9 21.4 L 84.4 22.2 L 84.8 21.8 L 85.2 21.4 L 84.8 20.8 C 83.8 19.1 82.1 18.4 80.6 18.9 M 13.7 23.9 C 12.2 26 12.2 26 12.7 26.4 C 13.1 26.6 13.1 26.6 13.6 25.9 L 14.2 25.2 L 16.3 26.7 L 18.4 28.2 L 18.8 27.7 C 19.3 27.1 19.4 27.2 17.2 25.7 C 16.1 24.9 15.2 24.2 15.1 24.2 C 15 24.1 15.2 23.7 15.5 23.3 L 16 22.6 L 15.7 22.3 C 15.1 21.9 15.2 21.8 13.7 23.9 M 84.4 25.1 C 81.4 27.2 81.6 26.8 82.8 28.6 C 84 30.1 83.9 30.1 84.5 29.7 L 84.8 29.5 L 84.2 28.5 C 83.4 27.4 83.4 27.4 84.1 27 C 84.8 26.6 84.7 26.6 85.5 27.8 C 85.8 28.3 85.9 28.3 86.3 28.1 C 86.8 27.7 86.8 27.6 86.1 26.7 L 85.6 26 L 86.1 25.6 C 86.8 25 86.8 25.1 87.5 26 C 88.1 26.9 88.1 27 88.7 26.5 L 89 26.3 L 88 24.8 C 87.5 24.1 87 23.4 86.9 23.4 C 86.9 23.4 85.8 24.1 84.4 25.1 M 241 36.9 L 241 47.3 L 243.5 47.3 L 246 47.3 L 246 43.6 C 246 37.3 246.6 35.8 249.1 35.8 C 251.1 35.8 251.3 36.6 251.3 42.8 L 251.3 47.3 L 253.9 47.3 L 256.4 47.3 L 256.3 41.9 C 256.2 36 256.1 35.4 255.2 34 C 253.6 31.4 249.2 31.2 246.7 33.6 L 246.1 34.2 L 246 30.3 L 246 26.5 L 243.5 26.5 L 241 26.5 L 241 36.9 M 278.8 36.9 L 278.8 47.3 L 281.3 47.3 L 283.8 47.3 L 283.8 36.9 L 283.8 26.5 L 281.3 26.5 L 278.8 26.5 L 278.8 36.9 M 288.2 36.9 L 288.2 47.3 L 290.7 47.3 L 293.2 47.3 L 293.2 36.9 L 293.2 26.5 L 290.7 26.5 L 288.2 26.5 L 288.2 36.9 M 113.5 27.1 C 107.6 28.1 106 35.5 111 38.1 C 112 38.6 112.7 38.8 115.6 39.5 C 118.1 40.1 118.8 40.6 118.8 41.8 C 118.8 44.2 112.5 44.4 108.9 42.1 C 108.4 41.7 108.3 41.8 108.3 44.1 L 108.3 46.3 L 109 46.6 C 113.1 48 118.5 48.1 121 46.8 C 123 45.8 123.9 44.1 123.9 41.3 C 123.9 37.4 122.5 36.2 116.6 35 C 113.8 34.4 113 33.9 113 32.8 C 113 30.8 116.7 30.3 120.7 31.7 C 121.4 32 122.2 32.2 122.4 32.3 C 122.8 32.4 122.8 28.1 122.4 27.9 C 120.9 27.3 115.4 26.8 113.5 27.1 M 228.8 27.1 C 223.8 28 220.9 30.9 220.3 35.7 C 219.7 40.7 221.7 44.8 225.5 46.7 C 228.2 47.9 232.9 48 235.8 46.9 C 237.3 46.3 237.2 46.5 237.2 44.1 C 237.2 42.1 237.1 41.8 236.7 42.2 C 235.5 43.4 231.4 44.2 229.6 43.6 C 224.6 41.9 224.2 33.7 228.9 31.4 C 230 30.9 233.5 30.8 234.3 31.3 C 234.3 31.4 234.7 31.6 235.1 31.7 C 235.5 31.9 236.1 32.2 236.5 32.4 L 237.2 32.8 L 237.2 30.6 L 237.2 28.4 L 236.3 28 C 234.4 27.2 230.6 26.8 228.8 27.1 M 10.9 28.2 C 10.8 28.4 10.7 28.7 10.7 28.7 C 10.7 28.8 11.4 29.2 12.4 29.7 C 14.9 31 15.5 31.8 14.4 32.7 C 13.8 33.2 13.6 33.1 11.4 32 C 10.3 31.4 9.4 31 9.4 31 C 9.3 31.2 8.8 32.2 8.9 32.3 C 9.2 32.6 13.2 34.3 13.6 34.3 C 15.9 34.3 17 31 15.2 29.7 C 14.6 29.2 11.6 27.7 11.4 27.7 C 11.3 27.7 11.1 27.9 10.9 28.2 M 148 30.2 L 148 32.3 L 146.8 32.3 L 145.5 32.3 L 145.5 34.1 L 145.5 35.8 L 146.7 35.8 L 148 35.8 L 148 40.2 C 148.1 44.1 148.1 44.6 148.4 45.2 C 149.4 46.9 150 47.2 154.1 47.3 L 157.3 47.4 L 157.3 45.6 L 157.3 43.9 L 155.7 43.8 C 152.7 43.6 152.8 43.8 152.8 39.2 L 152.8 35.8 L 155.3 35.8 L 157.7 35.8 L 157.7 34.1 L 157.7 32.3 L 155.3 32.3 L 152.8 32.3 L 152.8 30.2 L 152.8 28 L 150.4 28 L 148 28 L 148 30.2 M 161 30.2 L 161 32.3 L 159.8 32.3 L 158.5 32.3 L 158.5 34.1 L 158.5 35.8 L 159.8 35.8 L 161 35.8 L 161 39.9 C 161 46.6 161.4 47.2 167.1 47.3 L 170.3 47.4 L 170.3 45.6 L 170.3 43.8 L 169.3 43.8 C 165.9 43.8 165.8 43.7 165.8 39.3 L 165.8 35.8 L 168.3 35.8 L 170.8 35.8 L 170.8 34.1 L 170.8 32.3 L 168.3 32.3 L 165.8 32.3 L 165.8 30.2 L 165.8 28 L 163.4 28 L 161 28 L 161 30.2 M 30.4 28.4 C 30.9 28.6 31.2 29.1 33.1 33 C 34.4 35.4 35.3 37.3 35.2 37.3 C 35 37.1 29.7 28.4 29.7 28.2 C 29.7 28.1 29.8 28.2 30.4 28.4 M 87.3 29.6 C 85.8 30.4 84.6 31.1 84.5 31.1 C 84.5 31.1 84.6 31.4 84.8 31.7 L 85.1 32.3 L 86.2 31.7 C 87.8 30.9 88 31.5 86.8 33.3 L 86.2 34.4 L 86.5 35 C 86.7 35.4 86.9 35.7 86.9 35.7 C 87 35.7 88.3 33.2 88.3 32.9 C 88.3 32.6 88.5 32.6 88.9 32.9 C 90.2 33.9 92 32.5 91.5 31.1 C 91.3 30.5 90.2 28.2 90.1 28.2 C 90.1 28.2 88.8 28.8 87.3 29.6 M 90.1 30.4 C 90.8 31.8 89.3 32.6 88.5 31.3 L 88.2 30.8 L 88.9 30.4 C 89.8 29.9 89.9 29.9 90.1 30.4 M 177.8 32.3 C 170.4 34.3 170.5 45.5 177.9 47.4 C 185.7 49.4 191.4 43 188.1 35.9 C 186.7 32.8 181.9 31.1 177.8 32.3 M 199.4 32.5 C 198.9 32.8 198.1 33.3 197.8 33.6 L 197.2 34.2 L 197.2 33.3 L 197.2 32.3 L 194.7 32.3 L 192.2 32.3 L 192.2 39.8 L 192.2 47.3 L 194.7 47.3 L 197.2 47.3 L 197.2 43 C 197.2 37.1 197.7 35.8 200.2 35.8 C 202.2 35.8 202.3 36.3 202.3 42.4 L 202.3 47.3 L 204.9 47.3 L 207.5 47.3 L 207.5 42 C 207.4 35.5 207.2 34.5 205.5 33 C 204.2 31.8 201.2 31.6 199.4 32.5 M 262.3 32.3 L 260.8 32.6 L 260.7 34.5 L 260.7 36.4 L 261 36.3 C 261.2 36.2 261.9 36 262.4 35.8 C 265.5 34.7 269.3 35.3 269.6 37 L 269.7 37.7 L 267.5 37.7 C 261.7 37.7 259.4 39.1 259.4 42.8 C 259.4 45.9 261.3 47.7 264.7 47.7 C 266.6 47.7 267.6 47.4 268.7 46.3 L 269.7 45.5 L 269.7 46.4 L 269.7 47.3 L 272.2 47.3 L 274.7 47.3 L 274.7 42.4 C 274.7 35.5 274.2 34 271.7 32.8 C 270 32 265.5 31.7 262.3 32.3 M 301.8 32.3 C 298.3 33.4 296.6 35.9 296.6 39.8 C 296.6 46.6 302.5 49.4 311.1 46.8 L 312 46.5 L 312 44.6 C 312 43.5 312 42.7 311.9 42.7 C 311.9 42.7 310.7 43.1 309.6 43.7 C 306.3 45.2 302.6 44.4 301.8 42 L 301.5 41.2 L 307.2 41.2 L 312.8 41.2 L 312.8 40.5 C 312.8 36.3 311.1 33.5 307.8 32.3 C 306.5 31.9 303.2 31.9 301.8 32.3 M 323.5 32.4 C 323 32.7 322.2 33.2 321.8 33.5 L 321 34.2 L 321 33.3 L 321 32.3 L 318.6 32.3 L 316.2 32.3 L 316.2 39.8 L 316.2 47.3 L 318.6 47.3 L 321 47.3 L 321 43.6 C 321 37.3 321.6 35.8 324.2 35.8 C 326.1 35.8 326.3 36.5 326.3 42.7 L 326.3 47.3 L 328.8 47.3 L 331.3 47.3 L 331.3 42.2 C 331.3 35.6 331.1 34.5 329.5 33.1 C 328.2 31.9 325.3 31.6 323.5 32.4 M 338.8 32.2 C 333.3 34.3 332.9 44.1 338.3 46.8 C 340.3 47.8 343.2 47.4 344.9 45.8 L 345.7 45.1 L 345.7 45.9 C 345.7 47.6 345.1 48.7 343.8 49.4 C 342.3 50.1 338.5 49.8 336.9 48.7 C 336.4 48.3 336.3 48.4 336.3 50.5 L 336.3 52.4 L 337.5 52.7 C 341.8 53.8 346.7 53 348.8 50.9 C 350.5 49.1 350.7 48.4 350.7 39.4 L 350.7 32.3 L 348.2 32.3 L 345.7 32.3 L 345.7 33.2 C 345.7 34.2 345.7 34.1 345 33.4 C 343.6 32.2 340.6 31.6 338.8 32.2 M 359 32.4 C 354.5 33.9 352.5 39.2 354.8 43.8 C 356.6 47.5 362.4 48.8 368.4 46.8 L 369.4 46.4 L 369.5 44.5 C 369.5 43.5 369.4 42.7 369.4 42.7 C 369.3 42.7 368.7 42.9 368.1 43.2 C 363.9 45.1 360.3 44.7 359.3 42.3 C 358.8 41.1 358.4 41.2 364.6 41.2 L 370.2 41.2 L 370.1 39.5 C 369.8 35.6 368.3 33.4 365.1 32.3 C 363.7 31.8 360.5 31.9 359 32.4 M 381 32.3 C 380.6 32.5 379.9 33 379.4 33.4 L 378.5 34.3 L 378.5 33.3 L 378.5 32.3 L 376 32.3 L 373.5 32.3 L 373.5 39.8 L 373.5 47.3 L 376 47.3 L 378.5 47.3 L 378.5 43 C 378.6 38.9 378.6 38.5 378.9 37.9 C 379.9 36.2 381.6 35.6 383.8 36.2 C 384.2 36.4 384.6 36.5 384.7 36.5 C 384.8 36.5 384.8 35.5 384.8 34.3 L 384.8 32 L 383.3 32 C 382.3 32 381.5 32.1 381 32.3 M 389.5 32.3 C 387.1 32.9 386.1 34.2 386.1 36.8 C 386.1 39.8 387.8 41.1 392.4 41.6 C 395 41.9 396.1 43.3 394.2 44.1 C 393 44.7 387.8 44 386.8 43.1 C 386.4 42.8 386.3 43.1 386.3 44.9 L 386.3 46.8 L 386.9 47 C 388.9 47.6 394.2 47.9 396 47.4 C 398.8 46.7 399.6 45.6 399.6 42.8 C 399.6 39.6 398.4 38.6 394.2 38 C 391.1 37.6 390.5 37.3 390.5 36.5 C 390.5 35 394.1 34.9 397.6 36.2 C 398.1 36.4 398.6 36.5 398.7 36.5 C 399.1 36.5 398.9 32.8 398.5 32.7 C 396.8 32 391.4 31.8 389.5 32.3 M 128 38.2 L 128.1 44.1 L 128.6 45 C 130.1 48.1 134.5 48.7 137.4 46.1 L 138.2 45.5 L 138.2 46.4 L 138.2 47.3 L 140.6 47.3 L 143 47.3 L 143 39.8 L 143 32.3 L 140.6 32.3 L 138.2 32.3 L 138.1 36.8 C 138 42.8 137.6 43.8 135.1 43.8 C 133 43.8 132.8 43.2 132.8 36.7 L 132.8 32.3 L 130.4 32.3 L 128 32.3 L 128 38.2 M 57 33.6 C 58.5 35.2 58.1 36.2 55.9 36.2 C 54.7 36.2 54.4 35.9 55.4 35.8 C 56.9 35.5 57.3 34.7 56.6 33.6 C 56.1 32.8 56.3 32.8 57 33.6 M 7.9 34.7 C 5.6 37.5 8.4 40.2 10.9 37.6 C 12 36.4 12.9 37.1 12.2 38.6 C 12 39 11.7 39.4 11.6 39.4 C 11.2 39.6 11.3 39.8 11.9 40 C 12.6 40.2 13 39.8 13.4 38.4 C 14.2 35.8 12.2 34.5 10.2 36.4 C 8.6 37.9 7.6 37.2 8.8 35.4 C 9 35.1 9.2 34.8 9.1 34.7 C 8.9 34.5 8 34.5 7.9 34.7 M 91 34.9 C 90.4 35.2 90.2 35.7 90.1 36.8 C 89.8 39.1 88.3 38.9 88.3 36.6 C 88.3 35.8 88.3 35.7 87.6 36 C 87.1 36.2 87.1 36.2 87.2 37 C 87.6 40.6 91.3 40.9 91.3 37.3 C 91.3 35.5 92.8 35.7 93 37.5 L 93.1 38.4 L 93.6 38.2 C 94.2 38 94.2 38 94.1 37.3 C 93.8 35.3 92.3 34.2 91 34.9 M 306.3 35.7 C 307 36.1 307.4 36.8 307.6 37.5 L 307.7 38.2 L 304.7 38.2 L 301.7 38.2 L 301.8 37.7 C 302.2 35.7 304.8 34.6 306.3 35.7 M 363.6 35.6 C 364.2 36 364.8 36.8 364.9 37.5 L 365 38.2 L 362 38.2 L 359 38.2 L 359.1 37.7 C 359.6 35.8 362 34.6 363.6 35.6 M 182.3 36 C 184.4 37.7 184.3 42.3 182.1 43.7 C 179.2 45.6 176.3 41 178.1 37.3 C 178.8 35.7 181 35 182.3 36 M 344.6 36.3 C 346.4 38.1 345.8 42.7 343.8 43.5 C 340.8 44.6 338.4 40.7 340.1 37.3 C 341 35.5 343.2 35 344.6 36.3 M 58.2 40.7 C 59 41.1 59.5 42.1 59.6 43.2 L 59.7 44.1 L 59.2 43.2 C 59 42.7 58.4 41.9 57.9 41.3 C 56.9 40.3 57 40 58.2 40.7 M 100 40.5 C 100 40.6 100.1 40.9 100.2 41 C 100.3 41.2 100.3 41.2 100.3 41 C 100.3 40.9 100.3 40.6 100.2 40.5 C 100 40.3 100 40.3 100 40.5 M 269.6 41.5 C 269.3 44 266.4 45.3 264.9 43.7 C 263.4 42.1 264.8 40.7 268 40.7 L 269.7 40.7 L 269.6 41.5 M 100.6 44.1 C 100.7 44.6 100.7 45.1 100.8 45.2 C 100.9 45.3 100.8 43.6 100.7 43.3 C 100.5 43.2 100.5 43.4 100.6 44.1 M 44.3 44.3 C 49.1 46 52.5 46.3 54.2 45.1 C 54.9 44.6 56.4 44.8 55.8 45.3 C 53.2 47.4 47.9 46.9 43 44.2 C 41.6 43.4 41.7 43.4 44.3 44.3 M 77.9 46.1 C 76 46.5 75.5 46.8 76 47.1 C 76.2 47.2 80.2 46.4 80.4 46.2 C 81 45.6 80.5 45.6 77.9 46.1 M 100.9 46.3 C 100.9 46.7 100.9 46.9 101 46.7 C 101 46.5 101 46.2 101 46 C 100.9 45.8 100.9 45.9 100.9 46.3 M 20.5 46.1 C 20.6 46.6 24.8 47.4 25.1 47 C 25.2 46.8 24.7 46.6 22.7 46.2 C 20.6 45.8 20.5 45.8 20.5 46.1 M 28.3 47.3 C 27.8 47.6 28.4 47.8 30.6 48.1 C 32 48.3 32.8 48.3 32.9 48.2 C 33.2 47.9 32.8 47.7 31 47.5 C 29.9 47.4 29 47.3 28.8 47.2 C 28.7 47.2 28.5 47.2 28.3 47.3 M 69.7 47.4 C 67.8 47.7 68 47.6 68 47.9 C 68 48.3 72 48 72.7 47.6 C 73.4 47.2 72.2 47.1 69.7 47.4 M 81.8 47.5 C 80.8 47.7 80.4 48.1 80.9 48.3 C 81.3 48.4 83.3 47.8 83.3 47.5 C 83.3 47.2 82.9 47.1 81.8 47.5 M 17.7 47.6 C 17.7 47.8 19.2 48.3 19.9 48.3 C 20.7 48.3 20.4 47.9 19.4 47.6 C 18.2 47.3 17.7 47.3 17.7 47.6 M 36.2 48.2 C 35.9 48.6 36.1 48.6 38.4 48.8 C 40.6 49 40.8 49 40.8 48.6 C 40.8 48.4 40.4 48.3 39.4 48.3 C 38.6 48.2 37.6 48.1 37.2 48.1 C 36.6 48 36.3 48 36.2 48.2 M 21.5 48.3 C 21 48.6 22.3 49.2 23.7 49.2 C 24.3 49.2 24.4 48.7 23.8 48.6 C 21.7 48.1 21.8 48.1 21.5 48.3 M 78.3 48.3 C 78.2 48.3 77.8 48.4 77.5 48.4 C 76.9 48.5 76.6 48.9 77 49.1 C 77.1 49.1 78.2 49 79.1 48.7 C 79.7 48.6 79.6 48.2 79 48.2 C 78.7 48.2 78.3 48.2 78.3 48.3 M 73.9 49 C 72.9 49.2 72.5 49.5 73 49.7 C 73.5 49.9 75.6 49.4 75.6 49.2 C 75.6 48.9 74.9 48.8 73.9 49 M 25.3 49.1 C 25.1 49.4 25.7 49.7 26.9 49.8 C 27.8 49.9 28 49.8 28 49.6 C 28 49.2 25.5 48.7 25.3 49.1 M 70 49.5 C 69.1 49.7 68.7 50 69.2 50.2 C 69.3 50.3 71.4 50.1 71.7 49.9 C 71.9 49.8 71.5 49.3 71.3 49.4 C 71.2 49.4 70.6 49.4 70 49.5 M 29.2 49.7 C 29 50 29.4 50.2 30.7 50.3 C 32 50.4 32.7 50 31.5 49.8 C 30.2 49.5 29.4 49.5 29.2 49.7 M 65.8 50 C 65.3 50.1 65.1 50.2 65.1 50.3 C 65.1 50.6 67.4 50.6 67.7 50.3 C 68.2 49.9 67.5 49.8 65.8 50 M 33.1 50.1 C 32.9 50.4 33.5 50.6 34.6 50.7 C 35.6 50.8 36.2 50.7 35.9 50.3 C 35.6 50.1 33.2 49.9 33.1 50.1 M 78.1 50.4 C 76.1 50.9 75.6 51 75.9 51.3 C 76.1 51.5 80.1 50.8 80.4 50.5 C 80.5 50.4 80.4 50 80.2 50 C 80.1 50 79.2 50.2 78.1 50.4 M 20.5 50.5 C 20.6 50.9 24.8 51.8 25.1 51.3 C 25.2 51.1 24.9 51 22.9 50.6 C 20.6 50.1 20.5 50.1 20.5 50.5 M 61.9 50.3 C 61.3 50.4 61.1 50.5 61.1 50.7 C 61.1 50.9 63.4 51 63.7 50.7 C 64.2 50.2 63.6 50.1 61.9 50.3 M 37.1 50.4 C 36.8 50.8 37.4 51 38.6 51 C 39.9 51 40.1 50.9 39.8 50.6 C 39.6 50.3 37.3 50.2 37.1 50.4 M 41.1 50.7 C 40.9 51 41.2 51.2 42.5 51.2 C 43.8 51.2 44.3 51 43.7 50.7 C 43.3 50.5 41.2 50.4 41.1 50.7 M 45.1 50.9 C 44.9 51.2 45.4 51.3 46.6 51.3 C 47.7 51.3 48.2 51.1 47.9 50.8 C 47.7 50.6 45.2 50.7 45.1 50.9 M 28.3 51.7 C 27.8 52 28.5 52.2 30.6 52.5 C 32.2 52.7 32.7 52.7 32.9 52.5 C 33.2 52.2 32.8 52.1 30.9 51.8 C 29.9 51.7 29 51.6 28.8 51.6 C 28.7 51.5 28.5 51.6 28.3 51.7 M 69.7 51.8 C 67.8 52 68 51.9 68 52.3 C 68 52.6 68.5 52.6 70.6 52.3 C 72.3 52.1 72.9 51.9 72.7 51.7 C 72.6 51.5 71.7 51.5 69.7 51.8 M 81.8 51.8 C 80.1 52.2 80.3 52.8 82 52.4 C 83.1 52.2 83.4 52 83.3 51.7 C 83.1 51.5 83 51.5 81.8 51.8 M 17.7 51.9 C 17.7 52.2 19.2 52.7 19.9 52.7 C 20.7 52.7 20.4 52.2 19.4 51.9 C 18.2 51.6 17.7 51.6 17.7 51.9 M 36.2 52.6 C 36 52.7 36 52.8 36.2 52.9 C 36.5 53.1 40.6 53.3 40.8 53.1 C 41.2 52.8 40.9 52.7 39.4 52.6 C 38.6 52.5 37.6 52.5 37.1 52.4 C 36.6 52.4 36.3 52.4 36.2 52.6 M 61.6 52.5 C 60.2 52.6 59.9 52.7 60.1 53 C 60.3 53.4 64.7 53.1 64.8 52.6 C 64.9 52.3 64.4 52.3 61.6 52.5 M 21.5 52.7 C 21 53 23.3 53.8 24 53.5 C 24.5 53.4 24.1 53 23.3 52.8 C 21.8 52.5 21.8 52.5 21.5 52.7 M 77.6 52.7 C 77.2 52.8 76.8 53 76.8 53.1 C 76.8 53.5 77.1 53.5 79.1 53.1 C 79.3 53 79.5 52.9 79.5 52.7 C 79.5 52.5 78.9 52.4 77.6 52.7 M 73.8 53.4 C 73 53.6 72.6 53.9 73 54 C 73.5 54.2 75.6 53.8 75.6 53.5 C 75.6 53.2 74.8 53.1 73.8 53.4 M 92.2 54.6 L 91.7 55.9 L 90.3 56 L 88.8 56 L 90 56.8 C 91.3 57.8 91.2 57.5 90.5 59.5 C 90.4 60.1 90.2 60.5 90.3 60.5 C 90.3 60.5 90.8 60.1 91.4 59.7 C 92.8 58.7 92.6 58.7 93.9 59.7 C 94.5 60.1 95 60.4 95 60.4 C 95 60.3 94.8 59.7 94.6 59 C 94.4 58.3 94.2 57.8 94.2 57.7 C 94.2 57.7 94.7 57.3 95.3 56.9 L 96.4 56.1 L 95 56 L 93.6 55.9 L 93.2 54.6 C 92.6 53 92.7 53 92.2 54.6 M 6.6 54.6 L 6.2 55.9 L 4.8 56 L 3.3 56 L 4.5 56.8 L 5.6 57.7 L 5.4 58.4 C 5.3 58.8 5.1 59.3 5 59.6 C 4.6 60.5 4.8 60.5 5.8 59.8 C 6.3 59.4 6.8 59 7 58.9 C 7.1 58.9 7.6 59.1 8.3 59.6 C 9 60.1 9.5 60.4 9.5 60.4 C 9.5 60.3 9.3 59.7 9.1 59 C 8.9 58.3 8.7 57.8 8.7 57.7 C 8.7 57.7 9.2 57.3 9.8 56.9 L 10.9 56.1 L 9.5 56 L 8.1 55.9 L 7.7 54.6 C 7.5 53.9 7.2 53.3 7.2 53.3 C 7.1 53.3 6.9 53.9 6.6 54.6 M 25.3 53.5 C 25.1 53.8 25.7 54 26.9 54.1 C 27.8 54.2 28 54.2 28 54 C 28 53.5 25.5 53.1 25.3 53.5 M 70.1 53.9 C 69 54 68.6 54.4 69.2 54.6 C 69.5 54.7 71.5 54.4 71.7 54.2 C 71.9 54.1 71.5 53.7 71.4 53.7 C 71.3 53.7 70.7 53.8 70.1 53.9 M 29.2 54 C 29 54.4 29.5 54.5 30.7 54.6 C 32.1 54.7 32.7 54.3 31.5 54.1 C 29.8 53.8 29.4 53.8 29.2 54 M 65.9 54.3 C 64.9 54.4 64.7 54.9 65.7 55 C 66.6 55 67.8 54.8 67.8 54.5 C 67.8 54.2 67.2 54.2 65.9 54.3 M 33.1 54.5 C 32.9 54.8 33.4 55 34.5 55.1 C 35.6 55.2 36.2 55 35.9 54.7 C 35.7 54.4 33.2 54.2 33.1 54.5 M 100.9 55.2 C 100.9 55.7 100.9 55.9 101 55.6 C 101 55.4 101 55 101 54.7 C 100.9 54.5 100.9 54.7 100.9 55.2 M 62 54.6 C 61.2 54.7 60.8 54.9 61.1 55.2 C 61.4 55.5 63.9 55.2 63.8 54.9 C 63.7 54.6 63.3 54.5 62 54.6 M 37.1 54.8 C 36.8 55.1 37.4 55.3 38.6 55.3 C 39.8 55.3 40.3 55.1 39.7 54.8 C 39.3 54.7 37.3 54.6 37.1 54.8 M 100.7 56.7 C 100.7 57 100.6 57.5 100.6 57.9 C 100.5 58.3 100.5 58.4 100.7 58.1 C 100.8 58 100.8 57.4 100.8 57 C 100.7 56.3 100.7 56.3 100.7 56.7 M 39.7 57.4 C 40.8 57.7 43.3 60.4 43 60.8 C 42.7 61 41.5 60.6 41.4 60.3 C 40.8 59.1 39.6 58.2 38.3 58 L 37.6 57.9 L 38.2 57.5 C 38.8 57.1 38.8 57.1 39.7 57.4 M 130.5 58.3 L 130.5 59.5 L 131.5 59.5 L 132.5 59.5 L 132.5 58.3 L 132.5 57.2 L 131.5 57.2 L 130.5 57.2 L 130.5 58.3 M 147.2 64.8 L 147.2 72.5 L 148.2 72.5 L 149.2 72.5 L 149.2 70 C 149.2 67 148.8 67 152.2 70.2 L 154.6 72.5 L 155.9 72.5 L 157.3 72.5 L 155.8 71.1 C 155.1 70.4 153.7 69.1 152.9 68.3 C 151 66.5 151.1 66.8 152.6 65.4 C 153.3 64.8 154.3 63.9 154.8 63.4 C 155.3 63 156.1 62.3 156.4 62 L 157.1 61.5 L 155.7 61.5 L 154.3 61.5 L 152.9 62.8 C 152.1 63.5 151.4 64.1 151.3 64.2 C 151.3 64.2 150.8 64.7 150.2 65.1 L 149.2 66 L 149.2 61.6 L 149.2 57.2 L 148.2 57.2 L 147.2 57.2 L 147.2 64.8 M 199.2 64.8 L 199.2 72.5 L 200.2 72.5 L 201.2 72.5 L 201.2 64.8 L 201.2 57.2 L 200.2 57.2 L 199.2 57.2 L 199.2 64.8 M 217.7 64.8 L 217.7 72.5 L 218.7 72.5 L 219.7 72.5 L 219.7 71.9 L 219.7 71.4 L 220.2 71.9 C 221.6 73.2 224.5 73.1 225.9 71.7 C 228.7 68.9 228 62.8 224.8 61.4 C 223.3 60.8 220.8 61.3 220 62.3 L 219.7 62.7 L 219.7 59.9 L 219.7 57.2 L 218.7 57.2 L 217.7 57.2 L 217.7 64.8 M 112.6 57.7 C 105.4 59.2 105.6 71.4 112.8 72.7 C 114.9 73.1 117.5 72.6 118.9 71.7 C 119.3 71.5 119.3 71.3 119.3 70.3 C 119.3 69 119.3 69 118.7 69.6 C 116.3 71.8 111.7 71.4 110.4 68.8 C 109.4 66.8 109.4 63.5 110.4 61.5 C 111.7 59 115.9 58.6 118.5 60.7 C 119.3 61.3 119.3 61.3 119.3 60 C 119.3 58.7 119.3 58.6 117.6 58 C 116.6 57.6 113.8 57.4 112.6 57.7 M 189.5 57.7 C 182.4 59.2 182.5 71.3 189.6 72.7 C 191.6 73.1 194.4 72.7 195.8 71.8 C 196.3 71.5 196.3 71.4 196.3 70.3 C 196.3 69 196.3 69 195.7 69.6 C 193.4 71.7 189 71.4 187.5 69 C 186.6 67.7 186.4 64.4 187 62.5 C 188 59.2 192.4 58.2 195.5 60.7 C 196.3 61.3 196.3 61.3 196.3 60 C 196.3 58.9 196.3 58.9 195.8 58.5 C 194.4 57.7 191.4 57.3 189.5 57.7 M 170.7 59.9 L 170.7 61.5 L 170 61.5 L 169.3 61.5 L 169.3 62.3 L 169.3 63 L 170 63 L 170.7 63 L 170.7 66.2 C 170.7 72 171 72.5 174.6 72.5 L 176.3 72.5 L 176.3 71.8 L 176.3 71 L 175 70.9 C 172.7 70.8 172.7 70.8 172.7 66.1 L 172.7 63 L 174.5 63 L 176.3 63 L 176.3 62.3 L 176.3 61.5 L 174.5 61.5 L 172.7 61.5 L 172.7 59.9 L 172.7 58.3 L 171.7 58.3 L 170.7 58.3 L 170.7 59.9 M 54.2 58.9 C 54.7 59.2 54.9 59.4 55.1 60.1 C 55.4 61.2 56 62.5 57 64.1 C 57.4 64.7 57.7 65.3 57.8 65.4 C 58.1 66 57.4 65.1 56.4 63.8 C 55 62 54.3 60.9 53.8 59.6 C 53.3 58.6 53.4 58.5 54.2 58.9 M 100.3 59.5 C 100.2 60 100.1 60.6 100.1 60.8 C 100 61.1 100 61.2 100.1 61.1 C 100.3 60.9 100.6 58.7 100.5 58.7 C 100.4 58.7 100.3 59.1 100.3 59.5 M 125.8 61.4 C 125.5 61.6 125 61.9 124.7 62.2 L 124.2 62.7 L 124.2 62.1 L 124.2 61.5 L 123.2 61.5 L 122.2 61.5 L 122.2 67 L 122.2 72.5 L 123.2 72.5 L 124.1 72.5 L 124.2 68.8 L 124.3 65.1 L 124.7 64.4 C 125.4 63.2 126 63 127.5 63 L 128.8 63.1 L 128.8 62.1 L 128.8 61.2 L 127.5 61.2 C 126.7 61.2 126.1 61.3 125.8 61.4 M 138.7 61.5 C 134.7 62.8 134.2 69.5 137.8 72 C 138.9 72.8 141.7 73.1 143.7 72.5 C 144.3 72.3 144.3 72.3 144.3 71.4 C 144.3 70.4 144.2 70.3 143.3 70.8 C 142.5 71.2 140.1 71.2 139.3 70.8 C 136.9 69.5 136.9 64.5 139.3 63.2 C 140.1 62.8 142.5 62.8 143.3 63.2 C 144.2 63.7 144.3 63.6 144.3 62.6 L 144.3 61.7 L 143.4 61.4 C 142.3 61.1 139.7 61.1 138.7 61.5 M 160.5 61.6 C 156.5 63.6 156.4 70.4 160.5 72.3 C 162 73 165 73 167 72.3 C 167.4 72.1 167.9 70.2 167.4 70.2 C 167.4 70.2 167.2 70.3 166.9 70.4 C 163.5 72.1 160.2 71 159.7 68.1 L 159.5 67.5 L 163.8 67.5 L 168 67.5 L 168 66.8 C 168 62.4 164.3 59.8 160.5 61.6 M 99.8 61.9 C 99.7 62.3 99.7 62.6 99.7 62.6 C 99.8 62.7 99.9 62.4 99.9 62.1 C 100 61.8 100 61.4 100 61.4 C 99.9 61.4 99.8 61.6 99.8 61.9 M 130.5 67 L 130.5 72.5 L 131.5 72.5 L 132.5 72.5 L 132.5 67 L 132.5 61.5 L 131.5 61.5 L 130.5 61.5 L 130.5 67 M 204.7 65.8 C 204.8 70.8 204.9 71.3 206.3 72.2 C 207.7 73.2 210.6 72.9 211.7 71.6 C 212 71.3 212 71.3 212 71.9 L 212 72.5 L 213.1 72.5 L 214.2 72.5 L 214.2 67 L 214.2 61.5 L 213.1 61.5 L 212 61.5 L 212 65.4 L 211.9 69.3 L 211.4 69.9 C 210.8 70.7 210.2 71 209.1 71 C 207 71 206.7 70.3 206.7 65.2 L 206.7 61.5 L 205.7 61.5 L 204.6 61.5 L 204.7 65.8 M 41.1 63.2 C 41.1 63.5 41.4 65.6 41.7 67.9 C 42.1 70.2 42.4 72.3 42.4 72.5 C 42.5 72.8 42.4 72.8 42.1 72.8 C 41.7 72.8 41.7 72.7 41.4 70.8 C 41.2 69.7 40.7 67.4 40.4 65.7 L 39.9 62.7 L 40.4 62.7 C 40.9 62.7 41 62.7 41.1 63.2 M 43.3 66.9 C 44.3 73.3 44.2 72.8 43.8 72.9 C 43.5 73 43.5 73.1 42.7 68.3 C 42.4 66.7 42 64.9 41.9 64.2 C 41.6 62.6 41.6 62.6 42.2 62.7 L 42.8 62.8 L 43.3 66.9 M 164.3 63.1 C 165 63.5 165.7 64.4 165.8 65.3 L 165.9 66 L 162.8 66 C 159.3 66 159.3 66 160 64.7 C 160.8 63.1 162.8 62.4 164.3 63.1 M 223.7 63.1 C 226.2 64.1 226.2 69.7 223.8 70.9 C 221.5 72 219.7 70.2 219.7 67 C 219.7 63.9 221.5 62.1 223.7 63.1 M 99.3 63.9 C 99.2 64.2 99.2 64.4 99.2 64.5 C 99.3 64.5 99.4 64.3 99.4 64.1 C 99.5 63.9 99.5 63.6 99.5 63.6 C 99.4 63.5 99.3 63.7 99.3 63.9 M 98.9 65.4 C 98.8 65.8 98.7 66.1 98.7 66.1 C 98.8 66.2 98.9 65.9 99 65.5 C 99.1 65.1 99.2 64.8 99.1 64.7 C 99.1 64.7 99 65 98.9 65.4 M 61.8 65.7 C 61.8 65.8 61.5 66 61 66.3 C 60 67 59.2 68 59.2 68.7 C 59.2 69.3 59 69.3 58.3 68.7 C 57.7 68.2 57.7 67.8 58.4 67.2 C 59.1 66.7 61.8 65.5 61.8 65.7 M 98.4 67 C 98.1 67.8 98.2 67.9 98.5 67.1 C 98.6 66.8 98.7 66.4 98.6 66.4 C 98.6 66.4 98.5 66.6 98.4 67 M 97.3 69.7 C 92.7 81.3 83.9 90.6 72.3 96.3 C 70.9 97 69.9 97.5 70.2 97.4 C 72.5 96.8 80.2 92.2 82.5 90 C 82.7 89.8 83.2 89.4 83.6 89.1 C 84.4 88.6 88.4 84.5 89.2 83.5 C 89.5 83.1 89.9 82.6 90 82.5 C 90.5 82 92.6 79.2 93.5 77.6 C 94.5 76.1 96.7 71.9 97.3 70.3 C 97.4 70.1 97.6 69.6 97.8 69.2 C 97.9 68.8 98 68.5 98 68.4 C 97.9 68.4 97.6 69 97.3 69.7 M 66.3 70.3 C 69.4 71.5 69.6 71.6 70.3 72.7 L 70.6 73.3 L 70 72.8 C 69.6 72.5 67.9 71.7 66.1 71 C 62.4 69.5 62.6 69.6 62.7 69.3 C 62.9 69.1 63.1 69.1 66.3 70.3 M 76.7 80 C 76.4 80.2 75.8 80.8 75.3 81.1 L 74.6 81.8 L 76.6 84 C 79 86.8 78.6 86.7 79.9 85.6 C 82.2 83.5 81.9 81 79.5 81.7 C 78.9 81.8 78.9 81.8 79.2 81.3 C 79.9 80 78.1 79 76.7 80 M 22.1 80.1 C 20.6 80.6 19.4 82.6 19.8 84 C 20.3 85.5 22.1 86.8 22.8 86.2 C 23.2 85.7 23.3 85.5 22.9 85.5 C 22.5 85.5 21.2 84.1 21.2 83.6 C 21.2 81.3 23.9 80.4 25.2 82.3 L 25.6 82.8 L 26 82.4 L 26.5 81.9 L 25.8 81.2 C 24.6 79.9 23.5 79.6 22.1 80.1 M 78.1 81.3 C 78.7 82.1 77.6 83 76.8 82.2 L 76.3 81.6 L 76.7 81.2 C 77.3 80.8 77.8 80.8 78.1 81.3 M 26.3 84.4 C 25.7 85.3 25 86.5 24.6 87 L 24 87.9 L 24.6 88.3 L 25.2 88.7 L 25.8 87.7 C 26.2 87.1 26.6 86.7 26.6 86.7 C 27 86.7 27.2 87.2 27.2 88.5 L 27.2 90 L 27.9 90.4 L 28.5 90.9 L 28.5 89.1 L 28.4 87.3 L 29.1 87.2 C 30.3 87.2 31.1 85.7 30.4 84.7 C 30.1 84.3 27.8 82.7 27.5 82.7 C 27.5 82.7 26.9 83.4 26.3 84.4 M 72.9 83 C 72.2 83.4 72.2 83.3 73.3 85.1 C 74.6 87.1 74.8 87.5 74.4 88.1 C 73.6 89.3 72.8 88.9 71.3 86.6 C 70.1 84.7 70.2 84.7 69.5 85.2 L 69 85.5 L 70 87.1 C 71.4 89.3 72.1 90 73.1 90 C 74.9 90 76.3 88.3 75.9 86.9 C 75.7 86.4 73.8 83.1 73.5 82.7 C 73.4 82.7 73.2 82.8 72.9 83 M 79.9 82.9 C 80.3 83.3 80.2 83.9 79.7 84.4 L 79.1 84.9 L 78.6 84.3 C 78 83.6 78 83.5 78.7 83 C 79.4 82.6 79.6 82.6 79.9 82.9 M 29.1 85.3 C 29.2 86 28.5 86.5 27.8 86.2 C 27.1 85.9 27.1 85.7 27.6 84.9 L 28.1 84.2 L 28.6 84.5 C 28.9 84.7 29.1 85 29.1 85.3 M 32.2 85.9 C 32 86.2 32 86.4 32.2 86.6 C 32.4 86.9 30.6 90.5 30.2 90.4 C 30 90.3 29.8 90.5 29.7 90.8 C 29.4 91.3 29.4 91.2 30.6 91.8 L 31.7 92.3 L 31.9 91.8 C 32.1 91.4 32.1 91.4 31.9 91.3 C 31.5 91.1 33.5 87.3 33.8 87.4 C 34.1 87.5 34.6 86.7 34.5 86.6 C 34.4 86.6 33.9 86.3 33.4 86 L 32.3 85.5 L 32.2 85.9 M 65.5 87 C 64.9 87.3 64.9 87.2 65.7 89.1 C 67.3 92.5 67.5 93 67.6 93 C 70.5 91.8 71.1 91.4 70.6 90.8 C 70.4 90.5 70.3 90.6 69.4 91 L 68.3 91.5 L 67.7 90.1 C 67.4 89.4 66.9 88.3 66.6 87.7 L 66.1 86.7 L 65.5 87 M 36 87.8 C 33.7 88.8 33.1 92.2 34.9 93.5 C 36.4 94.6 38.2 94.5 38.2 93.2 C 38.2 93.2 37.8 93.2 37.3 93.1 C 35.8 93 35 92 35.3 90.7 C 35.8 89 37.5 88.4 38.9 89.5 L 39.3 89.8 L 39.5 89.2 C 39.7 88.5 39.5 88.3 38.3 87.9 C 37.3 87.6 36.6 87.6 36 87.8 M 62.2 88.1 C 58.3 89.5 59.6 95.4 63.6 94.5 C 65.2 94.1 65.6 93.8 65.3 93 L 65.1 92.5 L 64.6 92.8 C 63.1 94 61.3 93 61.3 91.1 C 61.3 89.8 62.3 89 63.7 89 C 64.2 89 64.3 88.9 64 88.3 C 63.8 87.8 63.3 87.7 62.2 88.1 M 40.9 89 C 40.8 89.2 39.8 95 39.9 95.1 C 39.9 95.1 40.2 95.2 40.5 95.3 L 41.1 95.4 L 41.3 94.3 C 41.7 92.1 41.7 92.1 42.4 93.9 C 43.2 95.7 43.2 95.8 44.1 95.9 C 44.7 96 44.9 96 44.8 95.8 C 44.7 95.7 44.4 94.9 43.9 94 L 43.2 92.4 L 44.4 91.2 C 45.9 89.7 45.9 89.7 45 89.6 L 44.3 89.5 L 43 90.8 C 41.7 92.2 41.6 92.2 42.1 90.3 C 42.2 89.7 42.2 89.2 42.2 89.1 C 42 89 41 88.8 40.9 89 M 53.1 89.8 C 51.3 90 51.3 90 51.4 90.6 C 51.5 91 51.6 91 52.4 91 L 53.3 91 L 53.4 92.7 C 53.5 93.6 53.6 94.8 53.6 95.3 L 53.7 96.2 L 54.4 96.2 L 55 96.2 L 54.9 94.6 C 54.9 93.8 54.8 92.6 54.7 92 L 54.6 90.8 L 55.2 90.8 C 56.2 90.8 56.5 90.7 56.5 90.1 C 56.5 89.6 56.4 89.6 53.1 89.8 M 46.8 90.5 C 46.7 90.9 46.7 92.3 46.6 93.7 L 46.6 96.1 L 47.7 96.2 C 48.3 96.3 49.1 96.3 49.5 96.3 L 50.3 96.3 L 50.3 95.8 L 50.3 95.2 L 49.2 95.2 L 48 95.2 L 48 94.4 L 48 93.7 L 49.1 93.7 L 50.2 93.7 L 50.1 93.1 C 50.1 92.6 50.1 92.6 49 92.5 C 48 92.5 48 92.5 48 92 C 48 91.1 48.1 91 49.3 91 C 50.3 91 50.3 91 50.3 90.5 C 50.3 90 49.8 89.8 47.8 89.8 L 46.9 89.8 L 46.8 90.5 M 68.6 97.9 C 68.1 98 67.7 98.2 67.7 98.3 C 67.5 98.4 68.6 98.1 69.2 97.8 C 69.9 97.4 69.6 97.4 68.6 97.9 M 66.7 98.6 C 66.3 98.7 66.2 98.8 66.3 98.8 C 66.5 98.8 66.8 98.7 67.1 98.6 C 67.7 98.3 67.4 98.3 66.7 98.6 M 65.1 99.1 C 64.4 99.3 64.4 99.3 65 99.2 C 65.3 99.2 65.7 99.1 65.8 99 C 66.2 98.8 65.8 98.8 65.1 99.1 M 37 99.5 C 37.1 99.6 37.4 99.7 37.6 99.7 C 38 99.7 37.9 99.6 37.3 99.4 C 36.9 99.4 36.8 99.4 37 99.5 M 63.3 99.6 L 62.6 99.8 L 63.3 99.7 C 64 99.6 64.7 99.3 64.2 99.4 C 64 99.4 63.6 99.5 63.3 99.6 M 38.9 100 C 39.1 100.1 39.4 100.1 39.6 100.1 C 39.9 100.1 39.8 100.1 39.5 100 C 38.9 99.8 38.5 99.8 38.9 100 M 61.5 100 L 61.1 100.1 L 61.5 100.1 C 61.7 100.1 62.1 100.1 62.3 100 L 62.6 99.9 L 62.3 99.9 C 62.1 99.9 61.7 99.9 61.5 100 M 59 100.5 C 58.4 100.6 58.4 100.6 58.9 100.6 C 59.2 100.6 59.6 100.6 59.8 100.5 C 60.2 100.3 59.8 100.3 59 100.5 M 55 101 C 54.1 101.1 54.1 101.1 54.8 101.1 C 55.2 101.1 55.9 101.1 56.3 101 C 57.3 100.8 56.4 100.8 55 101 M 45.7 101.1 C 46 101.2 46.3 101.2 46.5 101.1 C 46.7 101.1 46.5 101 46.1 101 C 45.6 101 45.5 101.1 45.7 101.1" stroke="none" fill="#fafbfa" fill-rule="evenodd"></path><path id="path3" d="M 41.5 5.9 C 41.5 5.9 41.7 6 42 6 C 42.3 6.1 42.4 6 42.4 6 C 42.3 5.8 41.5 5.8 41.5 5.9 M 86.1 15 C 86.7 15.6 87.3 16.2 87.3 16.2 C 87.4 16.2 86.9 15.6 86.3 15 C 85.6 14.4 85.1 13.8 85 13.8 C 85 13.8 85.4 14.4 86.1 15 M 18.8 21 C 19.1 21.4 19.4 21.7 19.5 21.7 C 19.5 21.7 19.3 21.4 18.9 21 C 18.6 20.6 18.2 20.3 18.2 20.3 C 18.1 20.3 18.4 20.6 18.8 21 M 28.2 25.9 C 28.4 26 28.6 26 28.8 25.9 C 29 25.9 28.8 25.9 28.5 25.9 C 28.2 25.9 28 25.9 28.2 25.9 M 59.5 43.2 C 59.4 43.3 59.4 43.6 59.5 43.7 C 59.6 43.9 59.7 43.8 59.7 43.5 C 59.7 43 59.6 42.9 59.5 43.2 M 50.8 46 C 51 46 51.3 46 51.5 46 C 51.7 45.9 51.6 45.9 51.2 45.9 C 50.8 45.9 50.6 45.9 50.8 46 M 50.5 46.6 C 50.8 46.7 51.2 46.7 51.5 46.6 C 51.7 46.6 51.5 46.5 51 46.5 C 50.5 46.5 50.3 46.6 50.5 46.6 M 100.9 48.8 C 100.9 49.1 100.9 49.2 101 49 C 101 48.8 101 48.5 100.9 48.4 C 100.9 48.2 100.9 48.4 100.9 48.8 M 47.1 48.5 C 47.3 48.5 47.7 48.5 47.9 48.5 C 48.1 48.4 47.9 48.4 47.5 48.4 C 47.1 48.4 46.9 48.4 47.1 48.5 M 0 52.5 C 0 52.8 0.1 53 0.1 52.8 C 0.2 52.6 0.2 52.4 0.1 52.2 C 0.1 52 0 52.2 0 52.5 M 100.9 52.8 C 100.9 53.1 100.9 53.2 101 53 C 101 52.8 101 52.5 100.9 52.4 C 100.9 52.2 100.9 52.4 100.9 52.8 M 46.1 52.8 C 46.3 52.8 46.6 52.8 46.8 52.8 C 47 52.7 46.8 52.7 46.4 52.7 C 46 52.7 45.9 52.7 46.1 52.8 M 41.7 76.5 C 42.3 76.5 43.4 76.5 44 76.5 C 44.7 76.4 44.2 76.4 42.9 76.4 C 41.6 76.4 41.1 76.4 41.7 76.5 M 28.6 89.4 C 28.6 90.2 28.6 90.6 28.6 90.2 C 28.7 89.8 28.7 89.2 28.6 88.7 C 28.6 88.3 28.6 88.6 28.6 89.4 M 43.6 90 L 43.1 90.6 L 43.6 90.1 C 44.1 89.6 44.2 89.5 44.1 89.5 C 44.1 89.5 43.8 89.7 43.6 90 M 48.5 91.1 C 48.7 91.2 49 91.2 49.1 91.1 C 49.3 91.1 49.1 91 48.8 91 C 48.4 91 48.3 91.1 48.5 91.1 M 46.5 93 C 46.5 93.4 46.6 93.6 46.6 93.4 C 46.7 93.2 46.7 92.8 46.6 92.6 C 46.6 92.4 46.5 92.6 46.5 93 M 48 94.4 C 48 95 48.1 95.2 48.3 95.2 C 48.5 95.2 48.5 95.1 48.4 95 C 48.3 95 48.2 94.6 48.1 94.2 C 48.1 93.6 48.1 93.6 48 94.4 M 53.5 96 C 53.6 96.1 53.8 96.3 54 96.3 C 54.3 96.3 54.3 96.3 54.1 96.2 C 53.9 96.2 53.7 96 53.6 95.9 C 53.5 95.8 53.5 95.8 53.5 96 M 48.2 101.1 C 48.4 101.2 48.6 101.2 48.8 101.1 C 49 101.1 48.8 101 48.5 101 C 48.2 101 48 101.1 48.2 101.1 M 52.2 101.1 C 52.4 101.2 52.6 101.2 52.8 101.1 C 53 101.1 52.8 101 52.5 101 C 52.2 101 52 101.1 52.2 101.1" stroke="none" fill="#546a8e" fill-rule="evenodd"></path><path id="path4" d="M 48.5 5.8 C 48.5 6.1 48.6 6.2 48.6 6 C 48.7 5.8 48.7 5.5 48.6 5.4 C 48.6 5.2 48.5 5.4 48.5 5.8 M 39.5 9.2 C 39.5 9.5 39.6 9.6 39.6 9.5 C 39.7 9.3 39.7 9 39.6 8.9 C 39.6 8.7 39.5 8.8 39.5 9.2 M 38 9.3 C 38 9.7 38.1 9.8 38.1 9.6 C 38.2 9.5 38.2 9.2 38.1 9 C 38.1 8.9 38 9 38 9.3 M 46.9 9.1 C 47 9.2 47.3 9.2 47.5 9.1 C 47.6 9.1 47.5 9 47.2 9 C 46.8 9 46.7 9.1 46.9 9.1 M 44.7 9.8 C 44.7 10.2 44.7 10.3 44.8 10.1 C 44.8 10 44.8 9.7 44.8 9.5 C 44.7 9.4 44.7 9.5 44.7 9.8 M 49.5 14.8 C 50 14.8 51 14.8 51.5 14.8 C 52.1 14.8 51.6 14.7 50.5 14.7 C 49.4 14.7 48.9 14.8 49.5 14.8 M 87.3 16.1 C 87.8 16.7 88.3 17.2 88.4 17.3 C 88.5 17.3 88.2 16.9 87.7 16.4 C 87.2 15.8 86.7 15.3 86.6 15.2 C 86.5 15.2 86.8 15.6 87.3 16.1 M 46.9 16.8 C 47.1 16.8 47.5 16.8 47.7 16.8 C 47.9 16.7 47.7 16.7 47.3 16.7 C 46.8 16.7 46.6 16.7 46.9 16.8 M 54.4 16.8 C 54.5 16.8 54.8 16.8 55 16.8 C 55.1 16.7 55 16.7 54.7 16.7 C 54.3 16.7 54.2 16.7 54.4 16.8 M 20 17.6 C 20.3 17.9 20.3 18 20.1 18.1 C 20 18.2 20 18.3 20 18.3 C 20.4 18.3 20.5 17.9 20.1 17.6 C 19.8 17.3 19.8 17.3 20 17.6 M 17.1 19.7 L 16.3 20.6 L 17.1 19.8 C 17.6 19.3 18 18.9 18 18.9 C 18 18.8 17.8 18.9 17.1 19.7 M 90.2 19.5 C 90.5 19.8 90.8 20.2 90.8 20.2 C 90.9 20.2 90.2 19.2 89.9 19 C 89.7 18.9 89.8 19.1 90.2 19.5 M 17.4 21 L 16.8 21.8 L 17.5 21.1 C 17.8 20.7 18.2 20.4 18.2 20.4 C 18.2 20.3 18 20.4 17.4 21 M 21.4 21.5 C 21.9 22 22.3 22.3 22.3 22.3 C 22.4 22.3 22 22 21.6 21.5 C 21.1 21 20.7 20.7 20.7 20.7 C 20.6 20.7 21 21 21.4 21.5 M 84.8 21.7 C 84.6 22 84.4 22.1 84.3 22.1 C 84.2 22 84.2 22 84.2 22.2 C 84.3 22.3 85.3 21.6 85.3 21.4 C 85.3 21.3 85.2 21.4 84.8 21.7 M 81.2 21.9 L 80.8 22.3 L 81.3 22.7 L 81.8 23.1 L 81.4 22.7 L 81 22.2 L 81.4 21.9 C 81.6 21.7 81.7 21.5 81.6 21.5 C 81.6 21.5 81.4 21.7 81.2 21.9 M 21 23 C 21.7 23.8 21.8 23.9 21.8 23.8 C 21.8 23.8 21.5 23.4 21 23 L 20.3 22.3 L 21 23 M 83.2 23.1 C 83.5 23.4 83.5 23.5 82.7 24.2 L 81.9 25.1 L 82.8 24.3 C 83.6 23.5 83.7 22.8 83 22.8 C 83 22.8 83.1 23 83.2 23.1 M 75.8 25.3 C 76.6 26 77.3 26.7 77.3 26.7 C 77.4 26.7 76.8 26 76 25.3 C 75.2 24.5 74.6 23.8 74.5 23.8 C 74.5 23.8 75.1 24.5 75.8 25.3 M 25.1 25.2 L 24.1 26.3 L 25.1 25.3 C 25.7 24.7 26.2 24.2 26.2 24.2 C 26.2 24.1 26 24.2 25.1 25.2 M 58.5 35.3 C 58.5 35.7 58.6 35.8 58.6 35.6 C 58.7 35.5 58.7 35.2 58.6 35 C 58.6 34.9 58.5 35 58.5 35.3 M 51.7 35.7 C 51.6 36.1 51.6 36.3 51.7 36.2 C 51.8 36.1 51.8 35.8 51.8 35.6 C 51.7 35.1 51.7 35.1 51.7 35.7 M 57.6 41 C 57.9 41.4 58.3 41.7 58.3 41.7 C 58.4 41.7 58.1 41.4 57.8 41 C 57.4 40.6 57.1 40.3 57 40.3 C 57 40.3 57.2 40.6 57.6 41 M 39.9 46.9 C 40 47 40.3 47 40.5 46.9 C 40.6 46.9 40.5 46.9 40.2 46.9 C 39.8 46.9 39.7 46.9 39.9 46.9 M 100.9 47.6 C 100.9 48 100.9 48.1 101 47.9 C 101 47.7 101 47.4 100.9 47.2 C 100.9 47 100.9 47.2 100.9 47.6 M 37.4 48.1 C 37.5 48.2 37.8 48.2 38 48.1 C 38.1 48.1 38 48 37.7 48 C 37.3 48 37.2 48.1 37.4 48.1 M 39.8 48.3 C 40 48.3 40.3 48.3 40.5 48.3 C 40.6 48.2 40.5 48.2 40.1 48.2 C 39.7 48.2 39.6 48.2 39.8 48.3 M 14.5 48.8 C 14.5 49.2 14.6 49.3 14.6 49.1 C 14.7 49 14.7 48.7 14.6 48.5 C 14.6 48.4 14.5 48.5 14.5 48.8 M 44.1 48.5 C 44.1 48.5 44.5 48.6 45.1 48.5 C 46.8 48.5 47 48.4 45.6 48.4 C 44.8 48.3 44.2 48.4 44.1 48.5 M 62.5 48.8 C 62.7 48.8 63 48.8 63.1 48.8 C 63.3 48.7 63.2 48.7 62.8 48.7 C 62.5 48.7 62.4 48.7 62.5 48.8 M 84.6 50.1 C 84.7 51.1 84.8 51.2 84.8 50.3 C 84.8 49.9 84.8 49.5 84.7 49.5 C 84.6 49.5 84.6 49.8 84.6 50.1 M 16.2 50.3 C 16.2 50.7 16.2 50.9 16.3 50.7 C 16.3 50.5 16.3 50.2 16.3 50 C 16.2 49.8 16.2 49.9 16.2 50.3 M 45.8 50.6 C 46.1 50.7 46.5 50.7 46.8 50.6 C 47 50.6 46.8 50.6 46.3 50.6 C 45.7 50.6 45.5 50.6 45.8 50.6 M 42.5 51.3 C 42.8 51.3 43.2 51.3 43.4 51.3 C 43.6 51.2 43.4 51.2 42.9 51.2 C 42.5 51.2 42.3 51.2 42.5 51.3 M 59 51.8 C 59 52.1 59.1 52.2 59.1 52 C 59.2 51.8 59.2 51.5 59.1 51.4 C 59.1 51.2 59 51.4 59 51.8 M 84.6 52 C 84.7 52.5 84.7 52.5 84.8 52.2 C 84.8 52 84.8 51.7 84.7 51.6 C 84.6 51.5 84.6 51.7 84.6 52 M 14.5 52.7 C 14.5 53 14.6 53.1 14.6 53 C 14.7 52.8 14.7 52.5 14.6 52.4 C 14.6 52.2 14.5 52.3 14.5 52.7 M 37.1 52.5 C 37.3 52.5 37.6 52.5 37.8 52.4 C 38 52.4 37.8 52.4 37.4 52.4 C 37 52.4 36.9 52.4 37.1 52.5 M 62 52.5 C 62.2 52.5 62.5 52.5 62.6 52.4 C 62.8 52.4 62.6 52.4 62.3 52.4 C 61.9 52.4 61.8 52.4 62 52.5 M 39.7 52.6 C 39.9 52.7 40.1 52.7 40.3 52.6 C 40.5 52.6 40.3 52.5 40 52.5 C 39.7 52.5 39.5 52.6 39.7 52.6 M 44.7 52.8 C 45 52.8 45.3 52.8 45.5 52.8 C 45.7 52.7 45.5 52.7 45.1 52.7 C 44.6 52.7 44.5 52.7 44.7 52.8 M 100.9 53.8 C 100.9 54.2 100.9 54.3 100.9 54.1 C 101 54 101 53.7 100.9 53.5 C 100.9 53.4 100.9 53.5 100.9 53.8 M 62.7 55.3 C 62.9 55.3 63.1 55.3 63.3 55.3 C 63.5 55.2 63.3 55.2 63 55.2 C 62.7 55.2 62.5 55.2 62.7 55.3 M 38.9 55.4 C 39 55.5 39.3 55.5 39.5 55.4 C 39.6 55.4 39.5 55.4 39.2 55.4 C 38.8 55.4 38.7 55.4 38.9 55.4 M 42.2 55.6 C 42.2 55.7 43.2 55.8 43.3 55.6 C 43.3 55.6 43.1 55.5 42.8 55.5 C 42.4 55.5 42.2 55.5 42.2 55.6 M 4.7 55.8 L 3.1 55.9 L 4.6 56 C 5.5 56 6.2 55.9 6.3 55.8 C 6.3 55.7 6.3 55.7 6.3 55.7 C 6.3 55.7 5.5 55.8 4.7 55.8 M 90.2 55.8 L 88.6 55.9 L 90.1 56 C 91 56 91.7 55.9 91.8 55.8 C 91.8 55.7 91.8 55.7 91.8 55.7 C 91.8 55.7 91 55.8 90.2 55.8 M 8.2 55.9 C 8.3 56 11 56.1 11.1 55.9 C 11.2 55.9 10.5 55.8 9.7 55.8 C 8.8 55.8 8.1 55.9 8.2 55.9 M 95 56 C 96 56 96.3 56.1 96.2 56.2 C 96.1 56.3 96.2 56.3 96.4 56.2 C 96.8 55.8 96.8 55.8 95.1 55.9 L 93.6 55.9 L 95 56 M 39 56.3 C 39.2 56.3 39.5 56.3 39.6 56.3 C 39.8 56.2 39.6 56.2 39.3 56.2 C 38.9 56.2 38.8 56.2 39 56.3 M 60.4 58.8 C 60.4 59.2 60.4 59.4 60.5 59.1 C 60.5 58.9 60.5 58.5 60.5 58.3 C 60.4 58.1 60.4 58.3 60.4 58.8 M 44.5 61.6 C 44.8 61.7 45.3 61.7 45.6 61.6 C 46 61.6 45.7 61.6 45.1 61.6 C 44.4 61.6 44.2 61.6 44.5 61.6 M 45.2 70 C 45.2 70.3 45.2 70.5 45.3 70.3 C 45.3 70.1 45.3 69.9 45.3 69.7 C 45.2 69.5 45.2 69.7 45.2 70 M 25.7 81.1 C 26 81.4 26.3 81.7 26.3 81.7 C 26.4 81.7 26.1 81.4 25.8 81.1 C 25.5 80.8 25.2 80.5 25.2 80.5 C 25.1 80.5 25.4 80.8 25.7 81.1 M 12 83.4 C 12.1 83.6 12.4 84 12.8 84.3 C 13.3 84.9 12.9 84.2 11.9 83.2 C 11.8 83.1 11.9 83.2 12 83.4 M 49.6 85 C 50.2 85 51.1 85 51.6 85 C 52.2 84.9 51.7 84.9 50.6 84.9 C 49.5 84.9 49.1 84.9 49.6 85 M 14.5 86.2 C 15.2 86.9 16 87.7 16.3 87.9 C 16.5 88.1 16.7 88.1 16.6 88.1 C 16.5 88 15.7 87.2 14.8 86.4 L 13.3 84.9 L 14.5 86.2 M 45.2 90.4 L 44.6 91.1 L 45.3 90.5 C 45.6 90.1 45.9 89.8 45.8 89.8 C 45.8 89.8 45.5 90 45.2 90.4 M 49.8 89.9 C 50.3 90 50.3 90.1 50.3 90.5 C 50.3 90.9 50.3 91 49.8 91.1 C 49.3 91.2 49.3 91.2 49.9 91.1 C 50.4 91.1 50.4 91 50.4 90.5 C 50.4 90 50.4 89.9 49.9 89.9 C 49.3 89.8 49.3 89.8 49.8 89.9 M 18.8 90.1 C 18.8 90.1 19.1 90.4 19.5 90.7 C 19.9 91 20.2 91.2 20.2 91.1 C 20.2 91.1 19.9 90.8 19.5 90.5 C 19.1 90.2 18.8 90 18.8 90.1 M 51.4 90.8 C 51.3 91.1 51.4 91.2 51.8 91.1 C 52.2 91.1 52.2 91.1 51.9 91 C 51.7 91 51.5 90.9 51.4 90.7 C 51.4 90.5 51.4 90.5 51.4 90.8 M 33.7 91.3 C 33.7 91.7 33.7 91.8 33.8 91.6 C 33.8 91.5 33.8 91.2 33.8 91 C 33.7 90.9 33.7 91 33.7 91.3 M 48 91.9 C 48 92.3 48.1 92.4 48.1 92.2 C 48.2 92 48.2 91.7 48.1 91.5 C 48.1 91.4 48 91.5 48 91.9 M 46.6 94.7 C 46.6 95.3 46.6 95.5 46.6 95.2 C 46.7 94.9 46.7 94.4 46.6 94.1 C 46.6 93.8 46.6 94.1 46.6 94.7 M 46.9 96.3 C 47.1 96.3 47.5 96.3 47.7 96.3 C 47.9 96.2 47.7 96.2 47.3 96.2 C 46.8 96.2 46.6 96.2 46.9 96.3 M 47.1 101.1 C 47.3 101.2 47.6 101.2 47.8 101.1 C 48 101.1 47.8 101 47.4 101 C 47 101 46.9 101.1 47.1 101.1 M 53.3 101.1 C 53.5 101.2 53.8 101.2 54 101.1 C 54.1 101.1 54 101 53.6 101 C 53.2 101 53.1 101.1 53.3 101.1" stroke="none" fill="#7d91ae" fill-rule="evenodd"></path></g></svg>