<?xml version="1.0" encoding="UTF-8" standalone="no"?>
<svg
   id="svg"
   version="1.1"
   width="399.54401"
   height="101.167"
   viewBox="0 0 399.54401 101.167"
   sodipodi:docname="sccc_logo.svg"
   inkscape:version="1.2.2 (b0a8486, 2022-12-01)"
   xmlns:inkscape="http://www.inkscape.org/namespaces/inkscape"
   xmlns:sodipodi="http://sodipodi.sourceforge.net/DTD/sodipodi-0.dtd"
   xmlns="http://www.w3.org/2000/svg"
   xmlns:svg="http://www.w3.org/2000/svg">
  <defs
     id="defs11" />
  <sodipodi:namedview
     id="namedview9"
     pagecolor="#ffffff"
     bordercolor="#000000"
     borderopacity="0.25"
     inkscape:showpageshadow="2"
     inkscape:pageopacity="0.0"
     inkscape:pagecheckerboard="0"
     inkscape:deskcolor="#d1d1d1"
     showgrid="false"
     inkscape:zoom="2.2616667"
     inkscape:cx="311.27487"
     inkscape:cy="50.405306"
     inkscape:window-width="1920"
     inkscape:window-height="1011"
     inkscape:window-x="0"
     inkscape:window-y="32"
     inkscape:window-maximized="1"
     inkscape:current-layer="svg" />
  <g
     id="svgg"
     transform="translate(-0.039)">
    <path
       id="path0"
       d="m 102.167,50.583 v 50.584 h 1 1 V 50.681 c 0,-40.233 0.042,-50.504 0.208,-50.571 0.115,-0.046 -0.335,-0.09 -1,-0.097 L 102.167,0 V 50.583 M 47.417,0.349 c -2.567,0.165 -3.419,0.252 -4.75,0.481 -0.596,0.103 -1.234,0.21 -1.417,0.238 -0.183,0.028 -0.783,0.15 -1.333,0.273 -0.55,0.122 -1.038,0.23 -1.084,0.239 -1.947,0.414 -5.656,1.624 -7.916,2.584 -2.484,1.055 -6.045,2.859 -6.25,3.166 -0.046,0.069 -0.252,0.178 -0.459,0.242 -0.206,0.064 -0.375,0.178 -0.375,0.253 0,0.075 -0.131,0.184 -0.291,0.242 -0.161,0.058 -0.442,0.198 -0.625,0.313 -0.636,0.396 -1.335,0.866 -1.536,1.035 -0.311,0.258 -0.55,0.441 -1.632,1.243 -0.549,0.407 -1.074,0.82 -1.166,0.916 -0.091,0.097 -0.529,0.467 -0.971,0.823 -1.423,1.144 -4.925,4.715 -6.195,6.318 -0.275,0.347 -0.705,0.872 -0.956,1.166 -0.251,0.295 -0.457,0.587 -0.458,0.649 -0.002,0.062 -0.097,0.212 -0.211,0.333 -0.492,0.519 -2.404,3.461 -3.449,5.304 -1.6,2.821 -3.818,8.23 -4.51,11.001 -0.439,1.757 -0.678,2.805 -0.835,3.665 -0.092,0.504 -0.243,1.329 -0.337,1.834 -0.529,2.859 -0.831,11.442 -0.439,12.5 0.083,0.224 0.302,2.369 0.306,3 0.001,0.137 0.069,0.475 0.151,0.75 0.082,0.275 0.192,0.8 0.244,1.166 0.108,0.763 0.162,1.04 0.406,2.084 0.097,0.412 0.201,0.907 0.231,1.099 0.03,0.192 0.109,0.435 0.174,0.541 0.135,0.219 0.288,0.824 0.302,1.193 0.005,0.137 0.077,0.336 0.16,0.441 0.082,0.106 0.189,0.368 0.237,0.584 0.047,0.215 0.104,0.467 0.126,0.558 0.022,0.092 0.133,0.336 0.247,0.542 0.113,0.206 0.168,0.375 0.122,0.375 -0.045,0 0.062,0.338 0.24,0.752 0.177,0.414 0.319,0.77 0.315,0.792 -0.003,0.022 0.086,0.264 0.199,0.539 0.112,0.275 0.189,0.594 0.171,0.709 -0.019,0.114 0.026,0.208 0.099,0.208 0.073,0 0.238,0.244 0.367,0.542 0.25,0.58 1.502,3.112 2.081,4.208 1.677,3.176 5.272,7.88 8.454,11.062 19.706,19.707 51.607,19.714 71.306,0.015 C 106.907,65.58 105.642,31.662 83.407,12.505 80.757,10.221 76.546,7.267 74.792,6.46 74.448,6.301 74.167,6.096 74.167,6.003 c 0,-0.093 -0.12,-0.17 -0.266,-0.17 -0.147,0 -0.465,-0.109 -0.709,-0.244 C 72.949,5.455 72.188,5.092 71.5,4.782 70.813,4.471 69.976,4.094 69.641,3.942 69.307,3.791 68.917,3.667 68.776,3.667 68.635,3.667 68.479,3.601 68.43,3.522 68.381,3.442 68.132,3.334 67.878,3.282 67.624,3.231 67.117,3.055 66.75,2.891 66.383,2.728 66.008,2.585 65.917,2.575 65.825,2.565 65.412,2.456 65,2.334 63.958,2.024 63.993,2.033 63.25,1.834 62.883,1.736 62.433,1.629 62.25,1.596 62.067,1.564 61.542,1.445 61.083,1.332 60.625,1.219 60.063,1.104 59.833,1.077 59.604,1.05 58.929,0.939 58.333,0.832 57.008,0.593 56.773,0.571 53.333,0.353 50.321,0.162 50.304,0.162 47.417,0.349 m 2.651,5.526 c 0.217,2.079 0.452,5.494 0.382,5.563 -0.041,0.042 -0.355,0.122 -0.696,0.177 -0.801,0.13 -0.915,-0.057 -0.918,-1.509 C 48.833,9.001 48.82,8.965 48.458,9.062 48.252,9.117 47.664,9.163 47.153,9.164 l -0.931,0.003 0.076,1.309 0.075,1.308 -0.709,0.114 C 44.765,12.041 44.855,12.245 44.668,9.651 44.579,8.422 44.46,6.989 44.404,6.465 44.306,5.554 44.32,5.51 44.718,5.41 c 1.017,-0.255 1.194,-0.093 1.248,1.14 0.058,1.333 0.106,1.368 1.61,1.207 L 48.645,7.642 48.547,6.472 C 48.437,5.164 48.534,5.007 49.446,5.003 49.963,5 49.978,5.021 50.068,5.875 M 55.28,5.331 c 0.606,0.003 0.651,0.123 1.97,5.252 0.118,0.459 0.268,0.965 0.333,1.125 C 57.687,11.964 57.596,12 56.854,12 H 56.005 L 55.821,11.271 C 55.644,10.568 55.61,10.538 54.879,10.437 53.495,10.248 53.406,10.276 53.122,11 c -0.252,0.641 -0.291,0.667 -1.015,0.667 -0.978,0 -0.992,-0.05 -0.377,-1.352 0.286,-0.607 0.931,-2.017 1.433,-3.135 0.795,-1.772 0.956,-2.021 1.25,-1.942 0.185,0.05 0.575,0.092 0.867,0.093 M 42.385,5.958 c 0.039,0.069 0.122,0.407 0.184,0.75 l 0.113,0.625 h -0.941 c -1.747,0 -2.658,1.624 -1.749,3.115 0.599,0.983 1.979,1.172 3.007,0.412 l 0.465,-0.343 0.175,0.689 c 0.237,0.934 -0.257,1.28 -2.238,1.567 -3.114,0.451 -4.63,-4.279 -1.972,-6.15 0.799,-0.562 2.763,-1.004 2.956,-0.665 m 18.744,0.449 c 0.057,0.057 -0.144,1.198 -0.446,2.537 -0.61,2.704 -0.625,2.634 0.581,2.816 1.01,0.153 1.132,0.272 0.998,0.986 -0.087,0.463 -0.179,0.591 -0.374,0.516 -0.142,-0.054 -0.981,-0.261 -1.865,-0.46 -0.883,-0.198 -1.636,-0.383 -1.672,-0.411 -0.035,-0.027 0.057,-0.557 0.206,-1.178 0.149,-0.622 0.462,-1.955 0.695,-2.963 0.56,-2.424 0.458,-2.243 1.167,-2.083 0.334,0.076 0.654,0.184 0.71,0.24 m -6.494,0.76 C 54.58,7.304 54.381,7.803 54.193,8.276 l -0.342,0.858 0.746,0.06 0.745,0.059 -0.109,-0.498 C 54.969,7.555 54.732,6.924 54.635,7.167 m 11.362,0.601 c 0.368,0.148 0.67,0.288 0.67,0.312 0,0.023 -0.413,1.084 -0.916,2.356 -1.105,2.79 -1.11,2.449 0.041,2.904 1.234,0.488 1.226,0.478 0.946,1.136 -0.184,0.436 -0.302,0.532 -0.529,0.435 -0.161,-0.068 -0.988,-0.389 -1.839,-0.712 -0.85,-0.324 -1.525,-0.639 -1.5,-0.7 0.026,-0.061 0.566,-1.436 1.202,-3.055 0.635,-1.619 1.177,-2.944 1.205,-2.944 0.027,0 0.351,0.121 0.72,0.268 M 34,11.459 c 0.779,1.535 1.44,2.843 1.469,2.907 0.029,0.064 -0.256,0.273 -0.633,0.466 l -0.685,0.35 -2.201,-1.244 c -1.21,-0.684 -2.215,-1.228 -2.234,-1.21 -0.018,0.019 0.373,0.819 0.87,1.778 0.496,0.959 0.905,1.824 0.908,1.921 0.006,0.164 -1.148,0.816 -1.244,0.705 -0.073,-0.083 -2.659,-5.198 -2.788,-5.511 -0.096,-0.234 0.029,-0.369 0.601,-0.647 l 0.722,-0.35 1.149,0.637 c 0.632,0.351 1.626,0.927 2.208,1.28 0.582,0.353 1.031,0.582 0.998,0.509 C 33.107,12.977 32.687,12.149 32.207,11.211 31.195,9.236 31.242,8.829 32.5,8.678 32.546,8.672 33.221,9.924 34,11.459 m 39.5,-0.024 c 0,0.107 -0.135,0.362 -0.301,0.566 l -0.3,0.371 -0.861,-0.436 c -1.059,-0.537 -1.105,-0.537 -1.345,-0.011 -0.292,0.642 -0.258,0.703 0.64,1.158 0.944,0.479 0.92,0.433 0.579,1.092 l -0.254,0.493 -0.824,-0.417 c -0.452,-0.23 -0.882,-0.417 -0.953,-0.417 -0.133,0.001 -0.763,1.011 -0.678,1.085 0.026,0.023 0.517,0.277 1.092,0.565 0.978,0.491 1.033,0.548 0.853,0.895 -0.407,0.785 -0.459,0.796 -1.388,0.293 -0.485,-0.262 -1.262,-0.669 -1.726,-0.905 l -0.845,-0.428 0.589,-1.128 c 0.325,-0.62 0.998,-1.938 1.495,-2.928 l 0.906,-1.801 1.66,0.879 c 0.914,0.484 1.661,0.967 1.661,1.074 m 2.822,1.549 0.573,0.474 -0.194,2.386 c -0.107,1.311 -0.171,2.408 -0.142,2.437 0.029,0.029 0.603,-0.656 1.275,-1.521 1.297,-1.669 1.378,-1.706 2.065,-0.947 0.307,0.341 0.297,0.362 -0.885,1.859 -0.658,0.833 -1.542,1.96 -1.965,2.504 -0.89,1.146 -0.804,1.116 -1.519,0.522 l -0.554,-0.459 0.18,-2.078 c 0.099,-1.143 0.223,-2.337 0.276,-2.655 0.086,-0.517 -0.045,-0.396 -1.268,1.167 -0.75,0.959 -1.38,1.761 -1.4,1.782 -0.019,0.021 -0.287,-0.172 -0.594,-0.429 l -0.559,-0.467 0.82,-1.071 c 1.649,-2.153 3.135,-3.988 3.226,-3.984 0.051,0.003 0.351,0.219 0.665,0.48 m -49.857,1.158 c 1.564,1.113 2.165,3.275 1.282,4.615 -1.806,2.744 -5.644,1.78 -6.177,-1.551 -0.402,-2.515 2.828,-4.536 4.895,-3.064 M 54.86,14.929 C 74.445,17.428 88.405,34.938 86.354,54.435 83.79,78.807 58.115,93.54 35.667,83.519 22.732,77.746 14.593,65.061 14.586,50.667 14.575,28.978 33.481,12.202 54.86,14.929 m -30.795,0.234 c -1.24,0.501 -1.322,1.882 -0.188,3.124 1.06,1.159 2.79,0.59 2.79,-0.918 0,-0.844 -1.551,-2.505 -2.203,-2.358 -0.026,0.005 -0.206,0.074 -0.399,0.152 m -3.926,2.39 0.363,0.387 -0.433,0.405 c -0.878,0.821 -0.873,0.835 0.946,2.603 0.925,0.899 1.768,1.687 1.872,1.752 0.127,0.079 0.026,0.299 -0.307,0.666 -0.273,0.302 -0.518,0.583 -0.543,0.624 -0.026,0.041 -0.588,-0.447 -1.25,-1.085 -0.662,-0.637 -1.522,-1.455 -1.912,-1.816 l -0.708,-0.657 -0.636,0.621 -0.637,0.622 -0.487,-0.419 -0.487,-0.418 1.268,-1.294 c 0.698,-0.712 1.478,-1.538 1.734,-1.836 0.555,-0.644 0.735,-0.667 1.217,-0.155 m 62.753,1.343 c 0.714,0.298 1.668,1.142 2.122,1.877 l 0.36,0.583 -0.468,0.488 c -0.59,0.616 -0.594,0.616 -0.964,-0.187 -0.863,-1.872 -3.097,-1.953 -4.031,-0.145 -0.659,1.274 0.451,2.811 1.446,2.001 l 0.393,-0.32 -0.459,-0.481 -0.459,-0.482 0.47,-0.45 0.469,-0.45 0.936,1.06 0.936,1.059 -1.139,1.131 c -1.346,1.335 -1.498,1.342 -2.842,0.134 -3.015,-2.711 -0.438,-7.351 3.23,-5.818 m -67.208,3.283 0.486,0.346 -0.532,0.74 c -0.318,0.442 -0.469,0.797 -0.377,0.881 0.086,0.078 1.037,0.757 2.114,1.51 2.199,1.537 2.108,1.407 1.496,2.13 l -0.454,0.535 -2.084,-1.498 -2.083,-1.498 -0.366,0.42 c -0.202,0.231 -0.441,0.551 -0.532,0.712 -0.194,0.344 -1.117,-0.077 -1.085,-0.495 0.016,-0.22 2.723,-4.129 2.858,-4.129 0.04,0 0.292,0.156 0.559,0.346 m 72.431,2.659 1.031,1.487 -0.511,0.364 -0.51,0.364 -0.317,-0.402 c -0.173,-0.22 -0.443,-0.607 -0.598,-0.859 -0.328,-0.534 -0.414,-0.551 -0.966,-0.189 -0.524,0.343 -0.519,0.401 0.129,1.32 l 0.54,0.766 -0.415,0.318 c -0.588,0.452 -0.691,0.417 -1.222,-0.424 -0.541,-0.857 -0.614,-0.88 -1.271,-0.394 l -0.482,0.357 0.655,0.886 c 0.771,1.044 0.773,1.058 0.207,1.471 l -0.438,0.32 -0.39,-0.487 c -0.692,-0.863 -1.947,-2.735 -1.876,-2.797 0.105,-0.093 4.178,-2.988 4.652,-3.307 0.629,-0.424 0.672,-0.394 1.782,1.206 m -75.249,3.428 c 3.183,1.599 3.797,2.357 3.222,3.982 -0.889,2.516 -1.96,2.751 -5.171,1.137 -2.281,-1.146 -2.203,-1.066 -1.84,-1.87 l 0.299,-0.663 1.976,0.991 c 2.48,1.243 3.116,1.257 3.412,0.078 0.169,-0.673 -0.188,-1.001 -2.255,-2.069 -1.105,-0.571 -2.009,-1.063 -2.009,-1.093 0,-0.175 0.657,-1.259 0.763,-1.259 0.042,0 0.764,0.345 1.603,0.766 m 17.596,1.185 c 0.445,0.715 1.433,2.311 2.197,3.549 1.957,3.17 1.951,3.048 -0.044,-0.823 -1.556,-3.02 -1.824,-3.441 -2.358,-3.716 l -0.603,-0.309 0.808,1.299 m 60.51,0.177 c 0.811,1.706 0.865,2.311 0.268,3.02 -0.545,0.648 -1.398,0.83 -2.166,0.464 -0.538,-0.256 -0.56,-0.253 -0.669,0.103 -0.165,0.535 -1.397,2.618 -1.548,2.618 -0.16,0 -0.69,-1.091 -0.69,-1.419 0,-0.132 0.252,-0.636 0.56,-1.119 1.128,-1.769 0.969,-2.225 -0.514,-1.472 -1.241,0.631 -1.14,0.64 -1.542,-0.148 l -0.336,-0.658 2.791,-1.418 c 3.392,-1.723 3.013,-1.726 3.846,0.029 m -1.93,0.749 c -0.817,0.41 -0.824,0.431 -0.363,1.017 0.731,0.93 1.876,0.292 1.423,-0.793 -0.139,-0.33 -0.274,-0.596 -0.302,-0.591 -0.027,0.006 -0.369,0.171 -0.758,0.367 m -32.213,3.449 c 0.484,0.903 -0.182,2.005 -1.214,2.007 -0.176,0 -0.254,0.076 -0.188,0.183 0.318,0.516 2.406,-0.251 2.406,-0.885 0,-0.401 -0.632,-1.413 -0.962,-1.541 -0.16,-0.063 -0.171,-0.005 -0.042,0.236 m -48.021,0.69 c 0.594,0.207 0.645,0.344 0.25,0.672 -0.663,0.549 -0.894,1.71 -0.394,1.977 0.281,0.151 0.474,0.044 1.312,-0.726 2.467,-2.268 4.732,-0.432 3.29,2.666 -0.497,1.065 -0.644,1.155 -1.45,0.889 -0.738,-0.243 -0.783,-0.33 -0.321,-0.619 0.476,-0.297 0.866,-1.148 0.806,-1.759 -0.078,-0.808 -0.519,-0.764 -1.43,0.143 -2.61,2.598 -5.124,0.127 -3.102,-3.051 0.274,-0.43 0.328,-0.44 1.039,-0.192 m 83.854,0.231 c 0.774,0.401 1.222,1.195 1.578,2.801 0.091,0.413 0.037,0.492 -0.48,0.708 -0.801,0.335 -0.879,0.313 -0.8,-0.226 0.084,-0.569 -0.345,-1.663 -0.705,-1.801 -0.357,-0.137 -0.755,0.232 -0.755,0.7 0,3.656 -3.33,4.158 -4.247,0.64 -0.345,-1.324 -0.336,-1.363 0.351,-1.65 0.854,-0.357 0.912,-0.329 0.799,0.381 -0.115,0.719 0.259,1.811 0.675,1.971 0.443,0.17 0.73,-0.256 0.837,-1.241 0.224,-2.079 1.343,-3.009 2.747,-2.283 m -34.798,6.368 c 0.43,0.441 0.973,1.139 1.207,1.552 0.357,0.63 0.425,0.685 0.427,0.344 0.005,-1.012 -0.844,-2.107 -1.957,-2.525 -0.402,-0.151 -0.362,-0.074 0.323,0.629 M 44.215,44.68 c 4.072,2.082 7.762,2.404 10.702,0.933 0.999,-0.499 0.999,-0.5 0.509,-0.634 -0.39,-0.107 -0.713,-0.025 -1.567,0.395 -1.904,0.938 -5.199,0.628 -9.378,-0.881 -1.786,-0.645 -1.832,-0.613 -0.266,0.187 m -36.532,9.695 0.426,1.375 1.571,0.083 1.57,0.084 -1.208,0.888 c -0.665,0.489 -1.209,0.944 -1.209,1.013 0,0.068 0.189,0.678 0.419,1.355 0.554,1.628 0.517,1.658 -0.836,0.672 C 7.015,58.823 7.24,58.825 5.88,59.824 4.517,60.825 4.532,60.838 5.067,59.186 5.305,58.45 5.5,57.814 5.5,57.771 5.5,57.728 4.956,57.294 4.292,56.805 L 3.083,55.917 4.617,55.869 6.15,55.821 6.609,54.411 c 0.563,-1.727 0.55,-1.727 1.074,-0.036 m 85.5,0 0.416,1.375 1.575,0.083 1.576,0.084 -1.208,0.888 c -0.665,0.489 -1.209,0.944 -1.209,1.013 0,0.068 0.189,0.678 0.419,1.355 0.55,1.618 0.524,1.639 -0.816,0.662 -1.393,-1.015 -1.212,-1.016 -2.565,0.008 -1.303,0.987 -1.342,0.954 -0.79,-0.67 C 90.812,58.496 91,57.886 91,57.818 91,57.749 90.456,57.294 89.792,56.805 l -1.209,-0.888 1.534,-0.048 1.533,-0.048 0.459,-1.41 c 0.563,-1.729 0.562,-1.729 1.074,-0.036 m -55.04,3.306 c -0.263,0.232 -0.301,0.318 -0.114,0.26 0.855,-0.268 2.353,0.628 3.188,1.904 0.456,0.698 0.611,0.816 1.075,0.819 0.637,0.003 0.666,-0.12 0.181,-0.767 -1.669,-2.223 -3.348,-3.083 -4.33,-2.216 M 53.5,58.739 c 0,0.542 2.19,4.135 3.257,5.344 l 0.441,0.5 L 56.842,64 C 56.097,62.779 55.172,60.837 54.989,60.108 54.829,59.474 53.5,58.252 53.5,58.739 m -13.427,4.414 c 0.049,0.237 0.429,2.343 0.845,4.68 0.946,5.308 0.873,5 1.179,5 0.287,0 0.306,0.23 -0.351,-4.166 -0.213,-1.421 -0.479,-3.308 -0.593,-4.194 -0.204,-1.588 -0.213,-1.611 -0.687,-1.68 -0.44,-0.065 -0.473,-0.035 -0.393,0.36 m 1.76,-0.078 c 0,0.218 0.151,1.069 0.904,5.092 0.129,0.687 0.366,2.018 0.527,2.958 0.2,1.16 0.365,1.708 0.515,1.708 0.321,0 0.104,-2.06 -0.861,-8.174 -0.138,-0.874 -0.251,-1.643 -0.251,-1.708 0,-0.065 -0.188,-0.118 -0.417,-0.118 -0.253,0 -0.417,0.095 -0.417,0.242 m 18.003,3.44 c -1.802,0.833 -2.201,1.418 -1.45,2.123 0.462,0.434 0.614,0.455 0.614,0.085 0,-0.504 0.817,-1.682 1.53,-2.207 0.874,-0.642 0.693,-0.643 -0.694,-0.001 m 3.07,2.836 c -0.14,0.227 -0.406,0.098 3.232,1.569 1.772,0.717 3.418,1.457 3.656,1.645 l 0.435,0.341 -0.323,-0.549 c -0.451,-0.768 -0.37,-0.723 -3.325,-1.83 -1.465,-0.548 -2.868,-1.076 -3.117,-1.173 -0.309,-0.119 -0.486,-0.12 -0.558,-0.003 m 15.767,10.235 c 0.524,0.271 0.739,0.801 0.629,1.549 -0.062,0.425 -0.029,0.458 0.396,0.396 2.318,-0.34 2.646,2.11 0.521,3.887 -0.533,0.445 -1.093,0.914 -1.245,1.041 -0.246,0.206 -0.502,-0.033 -2.394,-2.229 l -2.118,-2.459 0.977,-0.88 c 1.584,-1.425 2.379,-1.746 3.234,-1.305 m -54.03,0.569 c 0.603,0.307 1.857,1.533 1.857,1.814 0,0.075 -0.209,0.336 -0.465,0.581 l -0.466,0.446 -0.301,-0.511 c -0.767,-1.299 -2.264,-1.528 -3.288,-0.505 -1.133,1.134 -0.841,2.488 0.705,3.275 0.311,0.158 0.597,0.316 0.636,0.351 0.039,0.035 -0.14,0.285 -0.398,0.554 l -0.469,0.49 -0.602,-0.311 c -0.751,-0.388 -1.775,-1.437 -2.009,-2.058 -0.996,-2.647 2.242,-5.431 4.8,-4.126 m 52.187,1.148 -0.393,0.318 0.406,0.513 c 0.472,0.595 0.598,0.592 1.059,-0.026 0.606,-0.812 -0.26,-1.463 -1.072,-0.805 m -47.74,2.202 c 1.871,1.262 2.188,2.243 1.081,3.35 -0.37,0.369 -0.633,0.478 -1.154,0.478 -0.656,0 -0.671,0.013 -0.513,0.428 0.218,0.574 0.212,3.072 -0.008,3.072 -0.093,0 -0.462,-0.193 -0.819,-0.429 l -0.649,-0.43 0.091,-1.207 c 0.156,-2.065 -0.285,-2.432 -1.224,-1.017 -0.687,1.035 -0.785,1.07 -1.468,0.524 l -0.489,-0.392 1.739,-2.689 c 1.042,-1.61 1.823,-2.658 1.947,-2.613 0.115,0.042 0.774,0.458 1.466,0.925 m 46.656,2.76 c 0.664,1.399 0.043,2.893 -1.495,3.591 -1.759,0.799 -2.815,-0.022 -5.119,-3.979 l -0.286,-0.49 0.659,-0.37 0.659,-0.37 1.112,1.718 c 1.565,2.419 2.007,2.72 2.838,1.939 0.592,-0.556 0.476,-1.052 -0.673,-2.874 -0.583,-0.924 -1.111,-1.771 -1.173,-1.882 -0.069,-0.124 0.131,-0.359 0.518,-0.606 l 0.631,-0.404 1.037,1.595 c 0.571,0.878 1.152,1.837 1.292,2.132 m 2.805,-3.024 -0.468,0.407 0.521,0.527 c 0.568,0.574 1.239,0.416 1.482,-0.35 0.288,-0.906 -0.724,-1.291 -1.535,-0.584 m -50.879,1.785 c -0.374,0.666 -0.377,0.7 -0.082,0.916 0.666,0.487 1.577,0.138 1.577,-0.606 0,-0.194 -0.801,-1.003 -0.994,-1.003 -0.061,0 -0.287,0.312 -0.501,0.693 m 5.874,0.994 c 0.571,0.286 1.062,0.541 1.091,0.568 0.186,0.166 -0.522,1.085 -0.775,1.005 -0.359,-0.114 -2.18,3.377 -1.864,3.573 0.236,0.145 0.042,0.996 -0.252,1.109 -0.254,0.097 -2.246,-0.881 -2.246,-1.103 0,-0.424 0.409,-1.004 0.653,-0.927 0.378,0.12 2.13,-3.321 1.858,-3.649 -0.203,-0.244 0.073,-1.096 0.354,-1.096 0.079,0 0.611,0.234 1.181,0.52 m 33.693,2.86 c 1.222,2.723 1.036,2.543 2.108,2.044 0.497,-0.232 0.988,-0.421 1.091,-0.422 0.196,-0.002 0.664,0.952 0.532,1.084 -0.112,0.112 -3.519,1.59 -3.551,1.54 -0.183,-0.289 -2.602,-5.83 -2.56,-5.866 0.173,-0.148 1.082,-0.58 1.224,-0.582 0.092,-10e-4 0.612,0.99 1.156,2.202 M 38.861,88.028 c 0.819,0.352 0.838,0.376 0.746,0.944 -0.14,0.859 -0.315,0.937 -1.024,0.455 -1.169,-0.793 -2.49,-0.423 -3.02,0.846 -0.65,1.556 0.235,2.751 2.041,2.754 l 0.687,0.001 -0.165,0.647 c -0.494,1.947 -4.459,-0.151 -4.459,-2.36 0,-2.816 2.545,-4.427 5.194,-3.287 m 25.11,-0.07 c 0.478,0.932 0.408,1.209 -0.307,1.209 -1.525,0 -2.455,0.897 -2.281,2.2 0.239,1.782 1.903,2.421 3.347,1.285 l 0.436,-0.342 0.155,0.407 c 0.346,0.91 0.301,1.013 -0.643,1.491 -2.52,1.277 -4.87,-0.147 -4.897,-2.965 -0.015,-1.673 1.012,-2.912 2.768,-3.338 1.175,-0.284 1.25,-0.282 1.422,0.053 m -21.688,1.103 c 0.049,0.049 -0.026,0.709 -0.165,1.466 l -0.254,1.379 1.193,-1.274 1.193,-1.274 0.82,0.154 c 0.45,0.085 0.845,0.181 0.878,0.213 0.032,0.032 -0.544,0.633 -1.278,1.335 -0.735,0.702 -1.337,1.307 -1.337,1.344 0,0.037 0.375,0.86 0.834,1.83 1.001,2.117 0.99,1.961 0.125,1.828 -1.089,-0.166 -1.195,-0.272 -1.872,-1.887 -0.758,-1.809 -0.684,-1.787 -0.928,-0.278 -0.26,1.614 -0.276,1.635 -1.083,1.415 -0.362,-0.099 -0.676,-0.196 -0.697,-0.215 -0.022,-0.019 0.222,-1.418 0.541,-3.108 0.318,-1.69 0.579,-3.101 0.58,-3.136 0.001,-0.091 1.344,0.101 1.45,0.208 M 56.5,90.167 v 0.666 h -0.856 -0.856 l 0.114,2.125 c 0.062,1.169 0.154,2.358 0.203,2.643 0.087,0.499 0.064,0.523 -0.601,0.629 -0.952,0.152 -0.944,0.165 -1.071,-1.851 -0.063,-0.987 -0.157,-2.146 -0.21,-2.573 l -0.096,-0.778 -0.897,0.093 -0.897,0.092 V 90.542 89.87 l 2.042,-0.159 c 3.437,-0.269 3.125,-0.315 3.125,0.456 m -6,0.343 v 0.657 h -1.167 -1.166 v 0.565 c 0,0.652 0.191,0.768 1.263,0.768 0.731,0 0.737,0.005 0.737,0.583 v 0.584 h -1 -1 v 0.649 c 0,0.763 0.148,0.851 1.44,0.851 h 0.913 l -0.052,0.625 c -0.03,0.373 -0.135,0.618 -0.26,0.608 -0.114,-0.009 -1.007,-0.028 -1.984,-0.042 l -1.776,-0.025 0.115,-3.191 C 46.7,89.309 46.431,89.74 48.65,89.802 l 1.85,0.052 v 0.656"
       stroke="none"
       fill="#0b2c6f"
       fill-rule="evenodd" />
    <path
       id="path1"
       d="m 49.832,16.553 c -0.047,0.049 -1.285,0.166 -2.75,0.261 -6.862,0.442 -15.601,4.31 -19.71,8.724 l -0.378,0.406 h 1.482 c 1.16,0 1.6,0.07 2.03,0.321 1.072,0.626 6.271,8.489 6.932,10.485 0.356,1.075 0.48,1.22 1.156,1.346 0.605,0.114 0.802,0.291 1.22,1.092 0.444,0.853 7.262,3.611 7.462,3.02 0.847,-2.502 2.219,-3.875 3.872,-3.875 h 0.832 l -0.26,-0.761 c -0.354,-1.04 0.029,-3.295 0.712,-4.19 1.224,-1.606 4.414,-1.669 5.524,-0.11 0.8,1.123 1.063,4.644 0.409,5.475 l -0.36,0.458 0.789,0.63 c 2.048,1.636 2.33,2.678 1.715,6.328 -0.388,2.298 -0.635,2.059 1.924,1.855 2.209,-0.177 2.795,-0.077 2.393,0.407 -0.17,0.205 -1.194,0.337 -3.732,0.48 l -1.156,0.066 -0.198,0.667 c -0.164,0.556 -0.155,0.709 0.051,0.915 0.299,0.299 0.145,0.614 -0.301,0.614 -0.244,0 -0.323,0.116 -0.323,0.473 0,0.261 -0.1,0.804 -0.221,1.209 -0.247,0.818 -0.028,1.412 0.712,1.93 0.2,0.141 0.325,0.359 0.276,0.486 -0.049,0.126 0.059,0.806 0.239,1.509 0.18,0.704 0.327,1.607 0.327,2.008 0,0.567 0.289,1.329 1.307,3.443 l 1.306,2.716 3.235,2.136 c 1.78,1.175 3.535,2.266 3.902,2.424 2.948,1.276 3.345,1.611 2.835,2.389 -0.265,0.405 -0.264,0.406 0.844,0.924 0.609,0.286 1.15,0.519 1.202,0.519 0.051,0 0.215,0.111 0.364,0.246 0.863,0.78 5.846,-7.273 7.417,-11.985 1.289,-3.868 2.099,-9.053 1.57,-10.046 -0.182,-0.342 -0.187,-0.451 -0.024,-0.506 0.502,-0.168 0.248,-1.41 -0.265,-1.298 -1.04,0.229 -1.006,-0.575 0.035,-0.837 0.461,-0.115 0.473,-0.144 0.363,-0.888 C 84.529,47.596 84.459,46.987 84.435,46.667 84.101,42.081 81.943,36.239 78.879,31.625 73.367,23.327 63.633,17.461 54.333,16.832 53.188,16.755 51.725,16.64 51.083,16.578 50.442,16.515 49.878,16.504 49.832,16.553 M 25.46,27.437 c -4.697,4.961 -8.408,12.943 -8.862,19.063 -0.038,0.504 -0.12,1.221 -0.184,1.593 -0.115,0.671 -0.111,0.678 0.568,0.945 0.881,0.346 0.815,0.887 -0.09,0.74 -0.555,-0.09 -0.559,-0.086 -0.559,0.566 0,0.361 0.075,0.656 0.167,0.656 0.239,0 0.206,0.626 -0.037,0.707 -0.547,0.182 0.469,6.283 1.626,9.762 4.085,12.279 14.163,20.759 27.411,23.064 1.675,0.291 8.325,0.291 10,0 6.672,-1.161 11.691,-3.408 16.801,-7.522 1.687,-1.358 2.115,-1.861 1.009,-1.187 -0.822,0.501 -1.564,0.447 -2.169,-0.157 -0.275,-0.275 -0.672,-0.5 -0.883,-0.5 -0.366,0 -1.332,-0.901 -1.925,-1.794 -0.387,-0.584 -5.189,-2.484 -6.624,-2.62 -4.2,-0.4 -6.206,-1.91 -4.686,-3.527 l 0.351,-0.374 -2.408,-3.051 c -1.324,-1.678 -2.514,-3.041 -2.645,-3.03 -0.131,0.012 -0.8,0.144 -1.488,0.293 -0.687,0.15 -2.487,0.359 -4,0.466 -1.512,0.107 -2.767,0.205 -2.787,0.217 -0.021,0.013 0.146,0.892 0.371,1.955 0.491,2.316 0.912,5.744 0.917,7.465 0.003,0.787 0.094,1.404 0.247,1.666 0.83,1.422 0.844,1.911 0.07,2.46 -0.163,0.116 -0.32,0.416 -0.348,0.667 l -0.053,0.457 -2.202,0.046 c -3.184,0.067 -3.979,-0.328 -3.19,-1.587 0.72,-1.149 0.432,-4.748 -0.704,-8.793 -0.284,-1.008 -0.555,-2.037 -0.603,-2.286 -0.048,-0.249 -0.229,-0.498 -0.403,-0.553 -0.481,-0.152 -0.693,-0.699 -0.575,-1.483 0.064,-0.429 0.006,-1.082 -0.151,-1.683 -0.809,-3.109 0.297,-4.4 3.137,-3.661 0.956,0.249 0.968,0.248 1.743,-0.208 l 0.781,-0.459 -1.051,-0.141 c -0.845,-0.113 -1.04,-0.194 -0.998,-0.416 0.061,-0.316 2.553,-0.506 2.842,-0.217 0.099,0.099 0.539,-0.018 1.182,-0.314 0.564,-0.259 1.325,-0.607 1.692,-0.772 l 0.667,-0.301 -1.665,-0.086 c -1.747,-0.091 -2.44,-0.491 -1.332,-0.769 0.632,-0.158 4.236,0.09 4.6,0.317 0.494,0.309 0.689,-0.036 0.499,-0.882 -0.089,-0.395 -0.252,-0.774 -0.363,-0.842 -0.126,-0.078 -0.159,-0.291 -0.09,-0.569 0.062,-0.245 0.065,-0.696 0.007,-1.004 l -0.105,-0.559 -2.355,-0.019 c -2.394,-0.019 -2.741,-0.101 -2.55,-0.6 0.095,-0.249 0.373,-0.273 2.442,-0.216 1.913,0.052 2.319,0.023 2.248,-0.162 -0.047,-0.124 -0.086,-0.366 -0.086,-0.538 0,-0.565 -1.178,-0.782 -2.216,-0.409 -1.053,0.379 -2.495,0.386 -3.923,0.02 C 41.948,47.122 40.997,47 40.414,47 39.197,47 38.539,46.798 38.382,46.378 38.219,45.94 37.624,45.115 37.292,44.866 37.131,44.746 37,44.483 37,44.281 c 0,-0.202 -0.15,-0.461 -0.333,-0.576 -0.184,-0.114 -0.334,-0.317 -0.334,-0.451 0,-0.133 -0.141,-0.318 -0.314,-0.41 -0.173,-0.093 -0.362,-0.36 -0.421,-0.594 -0.058,-0.234 -0.255,-0.573 -0.436,-0.754 -0.181,-0.181 -0.329,-0.499 -0.329,-0.706 0,-0.207 -0.158,-0.476 -0.353,-0.597 -0.284,-0.178 -0.335,-0.331 -0.26,-0.79 0.051,-0.313 0.023,-0.57 -0.061,-0.57 -0.084,0 -0.353,-0.393 -0.596,-0.875 -1.104,-2.179 -3.992,-6.664 -5.985,-9.291 -0.66,-0.871 -1.233,-1.688 -1.272,-1.816 -0.048,-0.154 -0.331,0.042 -0.846,0.586 M 23.1,46.198 c 1.886,0.368 2.335,0.6 1.936,1 -0.172,0.171 -3.392,-0.358 -4.317,-0.71 -0.619,-0.235 -0.396,-0.927 0.236,-0.731 0.113,0.035 1.078,0.233 2.145,0.441 m 57.492,-0.35 c 0.33,0.533 -4.057,1.599 -4.757,1.156 -0.451,-0.285 0.07,-0.533 1.945,-0.926 2.08,-0.436 2.656,-0.483 2.812,-0.23 m -7.842,1.569 c 0,0.429 -4.324,1.08 -4.698,0.707 -0.395,-0.396 0.042,-0.583 1.948,-0.835 2.419,-0.321 2.75,-0.305 2.75,0.128 m -53.691,0.015 c 1.519,0.392 2.002,1.271 0.539,0.98 -1.627,-0.323 -2.372,-0.749 -1.987,-1.134 0.158,-0.158 0.301,-0.143 1.448,0.154 M 30.91,47.418 c 1.097,0.137 2.016,0.249 2.042,0.249 0.026,0 0.048,0.15 0.048,0.333 0,0.399 -0.635,0.435 -2.848,0.158 -1.774,-0.221 -2.264,-0.406 -1.982,-0.745 0.25,-0.302 0.279,-0.302 2.74,0.005 m 52.546,0.029 c 0.143,0.436 -2.448,1.127 -2.823,0.753 -0.285,-0.285 -0.005,-0.512 0.97,-0.784 0.946,-0.264 1.76,-0.25 1.853,0.031 m -42.738,0.828 c 0.171,0.049 0.277,0.207 0.245,0.364 -0.049,0.246 -0.313,0.271 -2.301,0.222 -2.258,-0.055 -2.871,-0.221 -2.577,-0.697 0.122,-0.198 3.873,-0.107 4.633,0.111 m 38.685,-0.174 c 0.471,0.181 0.279,0.549 -0.379,0.726 -1.367,0.368 -2.176,0.405 -2.291,0.105 -0.147,-0.383 -0.053,-0.445 1.053,-0.687 1.192,-0.261 1.29,-0.269 1.617,-0.144 m -56.332,0.258 c 0.945,0.19 1.304,0.499 0.969,0.834 -0.117,0.117 -0.48,0.11 -1.147,-0.022 -1.462,-0.29 -1.56,-0.333 -1.56,-0.682 0,-0.384 0.345,-0.409 1.738,-0.13 m 52.718,0.861 c -0.179,0.546 -2.872,0.732 -2.872,0.198 0,-0.282 0.172,-0.357 1.166,-0.509 1.184,-0.18 1.828,-0.063 1.706,0.311 M 27.542,49.19 c 0.624,0.156 0.833,0.528 0.39,0.698 -0.425,0.163 -2.62,-0.249 -2.72,-0.51 -0.206,-0.537 0.657,-0.607 2.33,-0.188 M 71.78,49.6 c 0.187,0.489 -2.384,1.029 -2.821,0.592 -0.299,-0.299 0.167,-0.668 0.929,-0.737 1.559,-0.142 1.788,-0.124 1.892,0.145 m -40.705,0.008 c 0.785,0.108 1.125,0.425 0.802,0.748 -0.225,0.226 -2.551,-0.099 -2.725,-0.38 -0.295,-0.477 0.297,-0.591 1.923,-0.368 m 4.561,0.492 c 0.256,0.052 0.367,0.175 0.328,0.364 -0.067,0.328 -2.527,0.373 -2.847,0.053 -0.541,-0.541 0.815,-0.765 2.519,-0.417 m 32.197,0.047 c 0,0.389 -0.432,0.514 -1.781,0.517 -1.035,0.003 -1.295,-0.105 -1.083,-0.447 0.288,-0.463 2.864,-0.526 2.864,-0.07 M 24.63,50.825 c 0.431,0.009 0.673,0.439 0.4,0.711 -0.359,0.359 -4.697,-0.659 -4.697,-1.103 0,-0.386 0.473,-0.384 2.25,0.013 0.917,0.204 1.838,0.375 2.047,0.379 m 55.969,-0.633 c 0.206,0.334 -0.379,0.584 -2.224,0.951 -2.37,0.472 -3.167,0.416 -2.57,-0.182 0.423,-0.423 4.594,-1.092 4.794,-0.769 m -40.807,0.233 c 0.295,0.091 0.258,0.52 -0.055,0.64 -0.929,0.357 -3.247,-0.313 -2.559,-0.739 0.206,-0.127 2.112,-0.055 2.614,0.099 m 24.14,-0.066 c 0.25,0.404 -0.479,0.655 -1.764,0.606 -0.976,-0.038 -1.251,-0.103 -1.251,-0.297 0,-0.433 2.763,-0.717 3.015,-0.309 m -20.015,0.558 c 0,0.626 -2.766,0.492 -2.888,-0.139 -0.05,-0.262 0.09,-0.287 1.416,-0.243 1.344,0.044 1.472,0.077 1.472,0.382 m 3.827,-0.192 c 0.564,0.412 0.133,0.608 -1.337,0.608 -1.276,0 -1.407,-0.03 -1.407,-0.319 0,-0.535 2.104,-0.757 2.744,-0.289 m 25.033,0.87 c 0.167,0.434 -0.106,0.529 -2.346,0.814 -1.765,0.224 -2.192,0.235 -2.369,0.057 -0.4,-0.399 0.011,-0.576 1.938,-0.835 2.535,-0.34 2.66,-0.341 2.777,-0.036 m -53.733,0.182 c 1.263,0.338 1.587,0.573 1.214,0.883 -0.212,0.176 -0.47,0.159 -1.444,-0.093 -1.176,-0.305 -1.578,-0.631 -1.13,-0.915 0.292,-0.185 0.15,-0.198 1.36,0.125 m 11.653,-0.04 c 2.076,0.245 2.303,0.313 2.303,0.69 0,0.295 -0.852,0.314 -2.848,0.065 -1.774,-0.222 -2.264,-0.406 -1.982,-0.746 0.245,-0.295 0.112,-0.294 2.527,-0.009 m 52.72,0.096 c 0,0.501 -2.572,1.091 -2.843,0.652 -0.168,-0.272 0.116,-0.473 1.024,-0.724 1.048,-0.291 1.819,-0.26 1.819,0.072 m -18.614,0.548 c 0.372,0.448 -0.079,0.602 -2.223,0.76 -2.297,0.17 -3.016,0.057 -2.557,-0.402 0.196,-0.196 1.567,-0.373 4.248,-0.549 0.195,-0.013 0.435,0.073 0.532,0.191 m -24.261,0.225 c 0.46,0.088 0.613,0.445 0.278,0.652 -0.234,0.145 -4.374,-0.085 -4.654,-0.258 -0.96,-0.594 1.946,-0.855 4.376,-0.394 m 38.969,-0.01 c 0.298,0.36 0.039,0.502 -1.388,0.757 -1.908,0.341 -2.069,-0.36 -0.177,-0.773 1.302,-0.285 1.315,-0.285 1.565,0.016 m -56.58,0.093 c 1.173,0.226 1.547,0.483 1.163,0.802 -0.501,0.416 -2.898,-0.226 -2.707,-0.724 0.122,-0.318 0.258,-0.325 1.544,-0.078 m 52.902,0.821 c 0,0.459 -2.769,0.851 -2.936,0.416 -0.15,-0.392 -0.029,-0.458 1.228,-0.675 1.096,-0.189 1.708,-0.096 1.708,0.259 M 26.594,53.343 c 1.378,0.245 1.573,0.315 1.573,0.567 0,0.369 -0.468,0.432 -1.695,0.229 -1.269,-0.209 -1.771,-0.764 -0.878,-0.97 0.006,-10e-4 0.456,0.077 1,0.174 m 45.186,0.59 c 0.187,0.49 -2.384,1.029 -2.821,0.592 -0.312,-0.311 0.181,-0.67 1.013,-0.736 1.633,-0.13 1.704,-0.125 1.808,0.144 m -39.883,0.232 c 0.444,0.439 -0.056,0.678 -1.185,0.567 -1.337,-0.131 -1.739,-0.3 -1.597,-0.672 0.112,-0.292 2.471,-0.202 2.782,0.105 m 3.739,0.268 c 0.256,0.052 0.367,0.175 0.328,0.365 -0.067,0.327 -2.527,0.373 -2.847,0.052 -0.541,-0.541 0.815,-0.765 2.519,-0.417 m 32.197,0.054 c 0,0.36 -0.417,0.488 -1.761,0.538 -0.945,0.036 -1.268,-0.089 -1.134,-0.438 0.185,-0.481 2.895,-0.575 2.895,-0.1 m -28.724,0.18 c 0.756,0 1.124,0.334 0.764,0.693 -0.265,0.266 -2.709,-0.006 -2.827,-0.314 -0.132,-0.344 0.281,-0.571 0.85,-0.467 0.263,0.048 0.809,0.088 1.213,0.088 m 24.823,0.025 c 0.25,0.405 -0.479,0.655 -1.764,0.606 -0.976,-0.037 -1.251,-0.103 -1.251,-0.296 0,-0.434 2.763,-0.718 3.015,-0.31"
       stroke="none"
       fill="#810607"
       fill-rule="evenodd" />
    <path
       id="path2"
       d="m 48.667,6.5 v 1.333 h -0.813 c -0.447,0 -1.037,0.045 -1.312,0.1 l -0.5,0.1 L 45.924,6.767 45.805,5.5 H 45.13 44.455 l 0.132,1.792 c 0.072,0.985 0.176,2.391 0.231,3.125 l 0.099,1.333 0.693,0.051 0.693,0.05 -0.09,-1.317 C 46.109,9.014 46.116,9.006 47.861,9.002 L 48.805,9 l 0.117,1.25 0.117,1.25 h 0.647 c 0.771,0 0.745,0.216 0.452,-3.708 L 49.942,5.167 H 49.304 48.667 V 6.5 m 4.05,1.855 c -0.751,1.678 -1.351,3.062 -1.333,3.075 0.018,0.013 0.341,0.071 0.719,0.129 l 0.686,0.105 0.29,-0.76 c 0.206,-0.539 0.362,-0.732 0.536,-0.665 0.135,0.052 0.651,0.094 1.146,0.094 h 0.901 l 0.184,0.731 c 0.172,0.684 0.228,0.739 0.858,0.839 0.906,0.145 0.909,0.365 -0.053,-3.171 C 55.647,5.041 55.894,5.511 54.898,5.396 L 54.083,5.303 52.717,8.355 M 40.373,6.222 c -3.618,1.313 -2.603,6.79 1.186,6.399 1.401,-0.144 2.156,-0.585 2.036,-1.188 -0.131,-0.652 -0.153,-0.664 -0.71,-0.376 -1.38,0.713 -2.516,0.425 -3.061,-0.776 -0.768,-1.692 0.216,-3.114 2.155,-3.114 h 0.656 L 42.456,6.583 C 42.256,5.93 41.527,5.804 40.373,6.222 M 59.75,6.535 c -0.051,0.21 -0.378,1.597 -0.726,3.083 l -0.633,2.701 1.828,0.429 c 1.005,0.235 1.847,0.407 1.871,0.382 0.49,-0.516 0.104,-1.051 -0.923,-1.281 C 60.571,11.716 60.063,11.594 60.038,11.578 60.014,11.562 60.259,10.402 60.583,9 60.908,7.598 61.153,6.434 61.128,6.414 60.764,6.117 59.832,6.198 59.75,6.535 M 55.144,7.986 55.467,9.373 54.725,9.289 C 53.731,9.177 53.738,9.201 54.277,7.778 c 0.26,-0.687 0.489,-1.234 0.508,-1.214 0.02,0.019 0.181,0.659 0.359,1.422 M 65.242,7.847 c -0.359,0.58 -2.221,5.574 -2.117,5.676 0.146,0.145 3.239,1.34 3.293,1.272 0.085,-0.105 0.415,-0.779 0.415,-0.848 0,-0.041 -0.431,-0.245 -0.958,-0.454 -0.527,-0.208 -1.013,-0.425 -1.08,-0.482 -0.067,-0.058 0.289,-1.143 0.791,-2.413 C 66.662,7.879 66.634,8.079 65.975,7.85 65.337,7.627 65.377,7.627 65.242,7.847 m -33.455,1.266 -0.464,0.243 1.013,1.926 c 0.557,1.059 0.99,1.943 0.963,1.966 -0.027,0.022 -1.058,-0.543 -2.292,-1.256 l -2.242,-1.297 -0.633,0.323 c -0.347,0.177 -0.632,0.366 -0.632,0.419 0,0.087 2.653,5.384 2.779,5.548 0.029,0.038 0.312,-0.071 0.629,-0.242 l 0.577,-0.311 -0.995,-1.908 c -0.547,-1.049 -0.966,-1.936 -0.931,-1.971 0.034,-0.035 1.062,0.506 2.283,1.202 2.254,1.285 2.54,1.362 3.218,0.866 0.327,-0.239 -2.225,-5.807 -2.643,-5.768 -0.092,0.009 -0.376,0.125 -0.63,0.26 m 36.97,3.374 -1.424,2.843 1.652,0.829 1.651,0.829 0.265,-0.405 c 0.146,-0.222 0.266,-0.43 0.266,-0.461 0,-0.031 -0.481,-0.313 -1.068,-0.626 l -1.068,-0.571 0.321,-0.629 c 0.376,-0.737 0.508,-0.756 1.398,-0.208 0.835,0.514 0.856,0.513 1.154,-0.063 L 72.15,13.549 71.314,13.158 C 70.272,12.67 70.175,12.2 70.938,11.347 c 0.034,-0.038 0.48,0.15 0.992,0.417 0.952,0.498 1.403,0.388 1.403,-0.342 0,-0.137 -1.868,-1.199 -3.035,-1.725 -0.065,-0.03 -0.758,1.226 -1.541,2.79 m 5.009,2.444 c -0.983,1.246 -1.823,2.356 -1.865,2.467 -0.105,0.274 0.729,1.043 0.913,0.841 0.078,-0.085 0.725,-0.906 1.438,-1.822 L 75.548,14.75 75.444,16 c -0.058,0.688 -0.153,1.932 -0.213,2.765 l -0.108,1.514 0.535,0.381 c 0.302,0.216 0.596,0.318 0.677,0.235 0.079,-0.08 0.967,-1.195 1.974,-2.478 l 1.831,-2.334 -0.445,-0.369 c -0.596,-0.494 -0.456,-0.588 -1.926,1.294 -0.72,0.921 -1.328,1.652 -1.353,1.625 -0.024,-0.027 0.057,-1.175 0.18,-2.55 l 0.225,-2.5 -0.497,-0.458 c -0.684,-0.632 -0.57,-0.713 -2.558,1.806 M 23.667,13.932 c -2.207,0.956 -2.673,3.387 -1.013,5.278 1.866,2.125 5.394,0.859 5.394,-1.936 0,-2.389 -2.384,-4.207 -4.381,-3.342 m 22.916,1.003 C 16.551,19.22 3.942,54.047 24.617,75.606 46.917,98.858 86.469,82.841 86.403,50.583 86.367,33.025 74.117,18.542 56.5,15.231 55.136,14.975 47.833,14.756 46.583,14.935 m -21.076,0.44 c 0.719,0.484 1.405,1.788 1.256,2.383 -0.411,1.635 -2.568,1.58 -3.454,-0.089 -0.937,-1.762 0.603,-3.369 2.198,-2.294 m 28.66,1.316 c 3.584,-0.119 10.892,2.501 15.416,5.527 7.993,5.347 14.674,16.128 14.815,23.907 0.01,0.572 0.075,1.041 0.144,1.041 0.504,0.002 0.092,1.652 -0.459,1.834 -0.854,0.282 -0.793,0.739 0.084,0.621 l 0.666,-0.089 v 0.674 c 0,0.444 -0.099,0.751 -0.291,0.901 -0.278,0.215 -0.277,0.235 0.007,0.405 1.007,0.603 -0.975,9.462 -3.111,13.905 -1.659,3.452 -5.938,9.525 -5.938,8.429 0,-0.107 -0.64,-0.502 -1.422,-0.877 -1.309,-0.628 -1.401,-0.704 -1.166,-0.964 0.665,-0.735 0.378,-1.072 -1.693,-1.982 -0.846,-0.372 -3.014,-1.646 -4.847,-2.847 l -3.316,-2.174 -1.361,-2.847 c -1.166,-2.438 -1.362,-2.972 -1.362,-3.716 0,-0.478 -0.122,-1.316 -0.271,-1.862 -0.149,-0.547 -0.262,-1.162 -0.252,-1.369 0.011,-0.207 -0.078,-0.375 -0.198,-0.375 -0.443,0 -0.992,-1.292 -0.793,-1.864 0.1,-0.285 0.181,-0.799 0.181,-1.142 0,-0.527 0.065,-0.641 0.417,-0.729 0.419,-0.105 0.573,-0.518 0.234,-0.631 -0.128,-0.043 -0.114,-0.295 0.047,-0.846 l 0.229,-0.785 2.161,-0.088 c 2.427,-0.098 2.745,-0.16 2.745,-0.531 0,-0.227 -3.109,-0.222 -4.583,0.007 -0.092,0.014 -0.155,-0.049 -0.14,-0.141 0.015,-0.091 0.141,-0.841 0.282,-1.666 0.659,-3.884 0.499,-4.597 -1.423,-6.308 l -1.01,-0.9 0.379,-0.514 c 0.675,-0.912 0.305,-4.568 -0.557,-5.509 -2.023,-2.206 -5.942,-0.708 -5.947,2.275 0,0.299 -0.087,0.681 -0.192,0.849 -0.148,0.237 -0.129,0.487 0.084,1.111 0.358,1.051 0.367,1.023 -0.318,0.943 -1.576,-0.184 -4.06,2.211 -4.073,3.928 -0.003,0.383 -1.495,-0.106 -5.668,-1.858 -0.78,-0.327 -1.511,-0.596 -1.625,-0.598 -0.115,-10e-4 -0.209,-0.148 -0.209,-0.327 0,-0.488 -0.668,-1.143 -1.409,-1.381 -0.603,-0.193 -0.691,-0.299 -1.008,-1.211 -0.78,-2.24 -5.842,-10.013 -6.886,-10.574 -0.804,-0.432 -3.372,-0.443 -3.823,-0.017 -0.463,0.438 -0.438,0.494 1.216,2.674 1.531,2.019 3.378,4.848 4.895,7.496 0.655,1.144 1.264,2.153 1.353,2.242 0.089,0.089 0.162,0.4 0.162,0.692 0,0.291 0.113,0.623 0.25,0.737 0.138,0.114 0.25,0.351 0.25,0.528 0,0.176 0.188,0.508 0.417,0.737 0.229,0.229 0.417,0.559 0.417,0.733 0,0.174 0.132,0.414 0.294,0.534 0.162,0.12 0.385,0.424 0.496,0.676 0.112,0.252 0.271,0.458 0.355,0.458 0.083,0 0.196,0.177 0.25,0.393 0.055,0.216 0.363,0.68 0.685,1.032 0.323,0.352 0.586,0.727 0.586,0.832 0,0.503 0.639,0.759 2.083,0.835 0.802,0.042 1.89,0.188 2.42,0.326 1.31,0.339 2.493,0.313 3.525,-0.079 0.849,-0.323 2.306,-0.222 2.306,0.16 0,0.07 0.047,0.361 0.104,0.647 l 0.104,0.521 h -2.344 c -2.187,0 -2.802,0.118 -2.45,0.469 0.062,0.063 1.196,0.114 2.518,0.114 1.995,0 2.417,0.043 2.477,0.25 0.148,0.518 0.157,1.259 0.017,1.484 -0.095,0.155 -0.049,0.303 0.137,0.439 0.468,0.342 0.568,1.838 0.13,1.952 -0.196,0.051 -0.432,-0.011 -0.541,-0.142 -0.247,-0.298 -4.566,-0.341 -4.747,-0.047 -0.214,0.346 0.341,0.476 2.095,0.49 1.15,0.009 1.635,0.063 1.416,0.159 -3.506,1.528 -3.437,1.506 -4.063,1.32 -0.868,-0.257 -2.437,-0.142 -2.437,0.179 0,0.19 0.277,0.27 1.155,0.333 l 1.155,0.083 -0.926,0.613 c -0.903,0.598 -0.94,0.607 -1.571,0.382 -2.752,-0.981 -4.234,0.384 -3.451,3.179 0.154,0.55 0.261,1.438 0.238,1.991 -0.035,0.881 0.007,1.037 0.367,1.333 1.354,1.117 2.914,10.481 1.95,11.707 -0.956,1.216 -0.332,1.545 2.928,1.545 h 2.405 v -0.409 c 0,-0.225 0.188,-0.596 0.417,-0.826 0.519,-0.519 0.528,-1.021 0.03,-1.768 -0.339,-0.508 -0.412,-0.922 -0.584,-3.33 -0.181,-2.525 -0.571,-5.286 -1.012,-7.167 -0.32,-1.366 -0.487,-1.271 2.441,-1.385 1.653,-0.064 3.236,-0.231 4.275,-0.45 0.907,-0.192 1.708,-0.288 1.78,-0.215 0.071,0.074 1.186,1.479 2.476,3.123 l 2.347,2.989 -0.418,0.437 c -1.394,1.455 0.545,2.985 4.147,3.272 2.389,0.191 6.541,1.968 7.526,3.222 0.768,0.977 1.414,1.46 1.71,1.277 0.091,-0.056 0.428,0.16 0.749,0.481 0.753,0.753 1.155,0.74 2.424,-0.08 1.258,-0.813 1.278,-0.761 0.127,0.327 C 56.969,91.719 28.564,85.912 19.238,64.684 17.221,60.093 15.661,52.594 16.51,51.571 c 0.194,-0.234 0.186,-0.304 -0.058,-0.482 -0.61,-0.446 -0.378,-1.444 0.322,-1.388 0.828,0.067 0.922,-0.303 0.157,-0.622 -0.611,-0.256 -0.911,-1.532 -0.43,-1.829 0.092,-0.057 0.123,-0.277 0.07,-0.488 -0.25,-1 0.928,-5.814 2.198,-8.977 4.724,-11.772 16.998,-20.794 28.708,-21.104 0.696,-0.019 1.304,-0.076 1.352,-0.128 0.048,-0.052 1.175,-0.039 2.504,0.029 1.33,0.067 2.605,0.116 2.834,0.109 m -36.263,2.247 c -1.932,2.075 -1.838,1.919 -1.404,2.312 0.336,0.304 0.353,0.299 0.993,-0.327 l 0.652,-0.636 1.856,1.731 c 2.189,2.042 2.039,1.962 2.489,1.33 l 0.357,-0.502 -1.845,-1.783 -1.846,-1.784 0.389,-0.431 c 0.804,-0.893 0.816,-0.931 0.398,-1.323 l -0.386,-0.363 -1.653,1.776 m 62.679,-0.021 c -2.755,0.975 -3.046,4.257 -0.535,6.031 1.128,0.798 1.134,0.797 2.347,-0.427 l 1.109,-1.117 -0.857,-0.961 -0.856,-0.961 -0.397,0.372 -0.396,0.373 0.334,0.355 c 0.431,0.459 0.422,0.708 -0.04,1.094 -1.34,1.118 -2.274,-1.566 -0.992,-2.848 1.206,-1.207 2.572,-1.003 3.566,0.531 l 0.531,0.82 0.408,-0.408 0.407,-0.408 -0.368,-0.595 C 83.813,19.1 82.132,18.369 80.583,18.917 m -66.887,4.988 c -1.519,2.125 -1.518,2.122 -0.97,2.481 0.38,0.249 0.41,0.234 0.911,-0.478 l 0.519,-0.735 2.13,1.506 2.13,1.507 0.375,-0.468 c 0.514,-0.644 0.596,-0.537 -1.583,-2.066 -1.077,-0.756 -2.021,-1.429 -2.098,-1.495 -0.076,-0.066 0.097,-0.446 0.386,-0.845 l 0.525,-0.725 -0.362,-0.293 c -0.525,-0.426 -0.479,-0.463 -1.963,1.611 m 70.672,1.225 c -2.951,2.085 -2.789,1.715 -1.523,3.469 1.105,1.532 1.083,1.516 1.62,1.14 l 0.372,-0.26 -0.669,-0.933 c -0.81,-1.132 -0.809,-1.099 -0.075,-1.552 0.664,-0.41 0.637,-0.426 1.418,0.794 0.333,0.52 0.359,0.529 0.75,0.273 0.522,-0.342 0.512,-0.441 -0.128,-1.334 l -0.535,-0.743 0.493,-0.403 c 0.673,-0.55 0.748,-0.526 1.369,0.422 0.602,0.922 0.682,0.957 1.192,0.539 L 89.007,26.25 88.002,24.846 C 87.45,24.074 86.975,23.42 86.948,23.393 86.921,23.365 85.76,24.147 84.368,25.13 M 241,36.917 v 10.416 h 2.5 2.5 l 0.003,-3.708 c 0.006,-6.341 0.584,-7.789 3.109,-7.791 1.99,-0.001 2.221,0.719 2.221,6.918 v 4.581 h 2.519 2.518 l -0.072,-5.458 c -0.077,-5.877 -0.152,-6.429 -1.071,-7.903 -1.585,-2.543 -6.036,-2.73 -8.56,-0.361 l -0.584,0.548 -0.044,-3.83 -0.045,-3.829 H 243.497 241 v 10.417 m 37.833,0 v 10.416 h 2.5 2.5 V 36.917 26.5 h -2.5 -2.5 v 10.417 m 9.334,0 v 10.416 h 2.5 2.5 V 36.917 26.5 h -2.5 -2.5 V 36.917 M 113.5,27.115 c -5.865,0.982 -7.517,8.393 -2.455,11.018 0.951,0.493 1.623,0.696 4.538,1.372 2.489,0.577 3.25,1.103 3.25,2.245 0,2.488 -6.356,2.683 -9.912,0.303 -0.56,-0.375 -0.588,-0.281 -0.588,2.017 v 2.236 l 0.709,0.246 c 4.097,1.427 9.471,1.543 11.995,0.261 1.985,-1.008 2.881,-2.714 2.876,-5.471 -0.008,-3.947 -1.385,-5.138 -7.33,-6.341 -2.768,-0.56 -3.583,-1.056 -3.583,-2.178 0,-1.991 3.69,-2.532 7.667,-1.124 0.779,0.276 1.548,0.54 1.708,0.587 0.446,0.132 0.446,-4.185 0,-4.374 -1.466,-0.619 -6.98,-1.114 -8.875,-0.797 M 228.833,27.1 c -5.077,0.909 -7.976,3.831 -8.536,8.601 -0.589,5.017 1.369,9.102 5.248,10.953 2.655,1.267 7.393,1.386 10.221,0.258 1.513,-0.604 1.401,-0.383 1.401,-2.773 0,-2.038 -0.065,-2.338 -0.425,-1.983 -1.263,1.243 -5.295,2.032 -7.171,1.401 -4.958,-1.665 -5.399,-9.826 -0.657,-12.146 1.133,-0.555 4.597,-0.608 5.336,-0.082 0.092,0.065 0.487,0.243 0.878,0.395 0.392,0.152 1.01,0.464 1.375,0.695 l 0.664,0.419 v -2.222 -2.221 l -0.875,-0.363 c -1.905,-0.789 -5.647,-1.257 -7.459,-0.932 M 10.921,28.158 c -0.14,0.271 -0.254,0.533 -0.254,0.582 0,0.05 0.768,0.474 1.708,0.943 2.562,1.278 3.123,2.103 2.019,2.972 -0.63,0.496 -0.81,0.455 -2.974,-0.667 C 10.347,31.431 9.448,31 9.422,31.029 c -0.14,0.163 -0.605,1.177 -0.559,1.221 0.361,0.353 4.308,2.083 4.751,2.083 2.257,0 3.411,-3.35 1.597,-4.632 -0.643,-0.455 -3.638,-2.034 -3.856,-2.034 -0.099,0 -0.294,0.221 -0.434,0.491 M 148,30.167 v 2.166 h -1.25 -1.25 v 1.75 1.75 h 1.24 1.24 l 0.055,4.375 c 0.05,3.89 0.09,4.44 0.368,4.959 0.952,1.782 1.64,2.038 5.722,2.129 l 3.208,0.073 v -1.744 -1.743 l -1.625,-0.095 c -3.003,-0.177 -2.869,0.037 -2.872,-4.579 l -0.003,-3.375 h 2.417 2.417 v -1.75 -1.75 h -2.417 -2.417 V 30.167 28 H 150.417 148 v 2.167 m 13,0 v 2.166 h -1.25 -1.25 v 1.75 1.75 h 1.25 1.25 v 4.02 c 0,6.772 0.444,7.312 6.125,7.442 l 3.208,0.074 v -1.768 -1.768 h -1.06 c -3.35,0 -3.431,-0.107 -3.436,-4.541 l -0.004,-3.459 h 2.5 2.5 v -1.75 -1.75 h -2.5 -2.5 V 30.167 28 H 163.417 161 v 2.167 M 30.382,28.392 c 0.481,0.2 0.776,0.694 2.768,4.625 1.226,2.42 2.156,4.325 2.065,4.233 -0.184,-0.186 -5.548,-8.9 -5.548,-9.012 0,-0.116 0.146,-0.084 0.715,0.154 m 56.951,1.214 c -1.512,0.789 -2.772,1.454 -2.798,1.477 -0.027,0.023 0.078,0.309 0.234,0.636 l 0.282,0.593 1.126,-0.567 c 1.578,-0.795 1.8,-0.271 0.666,1.573 l -0.657,1.067 0.327,0.641 c 0.18,0.352 0.358,0.641 0.395,0.641 0.138,0 1.425,-2.466 1.425,-2.729 0,-0.332 0.151,-0.336 0.574,-0.016 1.247,0.943 3.07,-0.375 2.587,-1.871 -0.172,-0.533 -1.305,-2.89 -1.385,-2.882 -0.014,0.002 -1.263,0.648 -2.776,1.437 m 2.807,0.819 c 0.632,1.386 -0.856,2.157 -1.649,0.854 l -0.319,-0.525 0.706,-0.369 c 0.908,-0.476 1.029,-0.472 1.262,0.04 m 87.627,1.839 c -7.327,1.996 -7.25,13.265 0.104,15.149 7.801,1.999 13.541,-4.458 10.276,-11.56 -1.403,-3.052 -6.229,-4.72 -10.38,-3.589 m 21.65,0.246 c -0.55,0.279 -1.282,0.781 -1.625,1.115 l -0.625,0.609 v -0.95 -0.951 h -2.5 -2.5 v 7.5 7.5 h 2.5 2.5 l 0.013,-4.291 c 0.017,-5.947 0.548,-7.209 3.03,-7.209 1.972,0 2.123,0.471 2.123,6.595 v 4.905 h 2.599 2.599 l -0.076,-5.291 c -0.096,-6.59 -0.291,-7.495 -1.942,-8.998 -1.315,-1.198 -4.272,-1.457 -6.096,-0.534 m 62.833,-0.196 -1.5,0.269 -0.047,1.896 -0.048,1.895 0.381,-0.093 c 0.209,-0.051 0.831,-0.263 1.381,-0.469 3.041,-1.143 6.849,-0.49 7.17,1.23 l 0.117,0.625 h -2.227 c -5.761,0 -8.049,1.445 -8.049,5.083 0,3.169 1.873,4.909 5.291,4.914 1.92,0.003 2.832,-0.305 4.012,-1.357 l 0.936,-0.834 v 0.93 0.93 h 2.5 2.5 V 42.43 c 0,-6.895 -0.468,-8.421 -2.954,-9.634 -1.722,-0.841 -6.201,-1.069 -9.463,-0.482 m 39.559,0.012 c -3.525,1.109 -5.206,3.535 -5.202,7.507 0.006,6.813 5.863,9.607 14.518,6.925 L 312,46.487 v -1.91 c 0,-1.051 -0.035,-1.91 -0.078,-1.91 -0.067,0 -1.187,0.48 -2.339,1.003 -3.311,1.505 -6.96,0.716 -7.781,-1.682 l -0.282,-0.821 h 5.657 5.656 l -0.001,-0.625 c -0.008,-4.227 -1.766,-7.068 -5.08,-8.208 -1.296,-0.446 -4.536,-0.45 -5.943,-0.008 m 21.691,0.109 c -0.504,0.229 -1.273,0.717 -1.708,1.084 L 321,34.187 V 33.26 32.333 h -2.417 -2.416 v 7.5 7.5 h 2.416 2.417 v -3.739 c 0,-6.245 0.627,-7.761 3.211,-7.761 1.912,0 2.113,0.652 2.118,6.875 l 0.004,4.625 h 2.5 2.5 v -5.174 c 0,-6.565 -0.213,-7.609 -1.853,-9.081 -1.303,-1.168 -4.147,-1.474 -5.98,-0.643 m 15.307,-0.195 c -5.518,2.097 -5.865,11.832 -0.517,14.537 2.006,1.015 4.943,0.591 6.622,-0.957 l 0.755,-0.696 v 0.825 c 0,1.631 -0.617,2.767 -1.853,3.417 -1.49,0.783 -5.3,0.426 -6.893,-0.645 -0.556,-0.374 -0.588,-0.281 -0.588,1.752 v 1.972 l 1.198,0.289 c 4.292,1.036 9.163,0.247 11.229,-1.819 1.773,-1.773 1.904,-2.564 1.905,-11.54 l 0.002,-7.042 h -2.5 -2.5 v 0.834 c 0,0.988 0.015,0.982 -0.712,0.276 -1.32,-1.282 -4.369,-1.879 -6.148,-1.203 m 20.157,0.155 c -4.499,1.505 -6.457,6.853 -4.181,11.421 1.857,3.727 7.647,4.992 13.568,2.965 l 1.066,-0.364 0.047,-1.875 c 0.026,-1.032 -0.02,-1.875 -0.102,-1.875 -0.082,0 -0.666,0.234 -1.297,0.521 -4.159,1.889 -7.799,1.52 -8.807,-0.893 -0.504,-1.207 -0.877,-1.128 5.345,-1.128 h 5.603 l -0.115,-1.625 c -0.281,-3.942 -1.778,-6.097 -5.005,-7.208 -1.428,-0.491 -4.564,-0.46 -6.122,0.061 m 22.051,-0.083 c -0.404,0.149 -1.135,0.649 -1.625,1.111 l -0.89,0.839 v -0.964 -0.965 h -2.5 -2.5 v 7.5 7.5 h 2.488 2.487 l 0.054,-4.375 c 0.051,-4.104 0.077,-4.416 0.413,-5.041 0.923,-1.714 2.675,-2.321 4.823,-1.669 0.45,0.137 0.875,0.249 0.943,0.25 0.069,0.001 0.125,-1.011 0.125,-2.248 V 32 l -1.541,0.02 c -0.967,0.013 -1.816,0.121 -2.277,0.292 m 8.507,-0.031 c -2.374,0.635 -3.372,1.965 -3.372,4.493 0,3.027 1.683,4.318 6.267,4.809 2.593,0.278 3.633,1.733 1.827,2.556 -1.279,0.583 -6.474,-0.111 -7.486,-1 -0.36,-0.317 -0.425,-0.049 -0.425,1.765 v 1.903 l 0.542,0.175 c 2.032,0.655 7.298,0.897 9.098,0.418 2.796,-0.744 3.61,-1.774 3.61,-4.567 0,-3.211 -1.141,-4.226 -5.416,-4.817 -3.043,-0.42 -3.667,-0.679 -3.667,-1.522 0,-1.454 3.602,-1.614 7.131,-0.318 0.485,0.178 0.954,0.324 1.042,0.324 0.393,0 0.187,-3.663 -0.215,-3.822 -1.653,-0.654 -7.074,-0.894 -8.936,-0.397 m -261.49,5.927 0.051,5.875 0.478,0.958 c 1.543,3.095 5.953,3.646 8.841,1.104 l 0.765,-0.673 v 0.931 0.93 h 2.416 2.417 v -7.5 -7.5 h -2.401 -2.4 l -0.068,4.459 c -0.091,5.968 -0.558,7.041 -3.064,7.041 -2.04,0 -2.234,-0.615 -2.234,-7.106 v -4.394 h -2.426 -2.426 l 0.051,5.875 M 57.03,33.625 c 1.513,1.583 1.069,2.542 -1.179,2.542 -1.198,0 -1.474,-0.252 -0.444,-0.407 1.496,-0.224 1.941,-1.034 1.181,-2.153 -0.532,-0.785 -0.318,-0.776 0.442,0.018 M 7.884,34.694 c -2.267,2.791 0.538,5.544 2.986,2.931 1.154,-1.231 2.065,-0.551 1.319,0.984 -0.196,0.404 -0.469,0.778 -0.606,0.831 -0.402,0.154 -0.291,0.325 0.334,0.516 0.721,0.222 1.042,-0.109 1.491,-1.535 C 14.24,35.777 12.179,34.51 10.167,36.43 8.629,37.897 7.579,37.158 8.75,35.432 8.988,35.081 9.155,34.766 9.121,34.732 8.914,34.525 8.043,34.498 7.884,34.694 m 83.156,0.194 c -0.609,0.338 -0.869,0.856 -0.985,1.96 -0.236,2.259 -1.722,2.021 -1.722,-0.276 0,-0.788 -0.061,-0.834 -0.761,-0.568 -0.426,0.162 -0.445,0.216 -0.354,0.989 0.423,3.571 4.109,3.872 4.114,0.336 0.003,-1.836 1.432,-1.643 1.648,0.221 l 0.103,0.893 0.562,-0.23 c 0.538,-0.221 0.557,-0.258 0.454,-0.904 C 93.78,35.315 92.333,34.17 91.04,34.888 m 215.303,0.785 c 0.661,0.471 1.107,1.143 1.245,1.874 l 0.116,0.62 h -3.022 -3.022 l 0.106,-0.459 c 0.453,-1.977 3.042,-3.128 4.577,-2.035 m 57.306,-0.074 c 0.596,0.353 1.134,1.172 1.274,1.943 l 0.114,0.625 h -3.022 -3.021 l 0.108,-0.459 c 0.45,-1.911 2.932,-3.062 4.547,-2.109 m -181.36,0.415 c 2.151,1.652 2.055,6.312 -0.16,7.729 -2.94,1.88 -5.847,-2.716 -4.07,-6.435 0.773,-1.618 2.943,-2.282 4.23,-1.294 M 344.59,36.34 c 1.786,1.731 1.258,6.362 -0.816,7.151 -3.009,1.144 -5.344,-2.784 -3.69,-6.21 0.869,-1.799 3.133,-2.272 4.506,-0.941 M 58.166,40.686 c 0.791,0.445 1.323,1.38 1.434,2.516 L 59.685,44.083 59.242,43.2 C 58.999,42.713 58.387,41.87 57.882,41.325 56.896,40.26 56.999,40.03 58.166,40.686 M 100.005,40.5 c 0,0.137 0.073,0.362 0.162,0.5 0.143,0.222 0.161,0.222 0.161,0 0,-0.138 -0.072,-0.363 -0.161,-0.5 -0.144,-0.222 -0.162,-0.222 -0.162,0 m 169.592,1.018 c -0.328,2.473 -3.19,3.824 -4.702,2.22 -1.542,-1.635 -0.108,-3.061 3.085,-3.068 l 1.73,-0.003 -0.113,0.851 m -168.992,2.565 c 0.06,0.55 0.135,1.032 0.168,1.07 0.145,0.167 0.038,-1.595 -0.11,-1.82 -0.113,-0.171 -0.131,0.066 -0.058,0.75 m -56.272,0.229 c 4.75,1.68 8.171,1.945 9.905,0.769 0.661,-0.449 2.114,-0.248 1.557,0.215 -2.553,2.119 -7.942,1.643 -12.827,-1.133 -1.4,-0.795 -1.261,-0.78 1.365,0.149 m 33.542,1.817 c -1.901,0.397 -2.385,0.639 -1.891,0.944 0.208,0.129 4.168,-0.658 4.38,-0.871 0.596,-0.595 0.087,-0.61 -2.489,-0.073 m 23.004,0.204 c 0,0.413 0.032,0.582 0.072,0.375 0.04,-0.206 0.04,-0.543 0,-0.75 -0.04,-0.206 -0.072,-0.037 -0.072,0.375 M 20.531,46.119 c 0.092,0.478 4.287,1.31 4.54,0.901 0.161,-0.26 -0.382,-0.452 -2.386,-0.846 -2.106,-0.414 -2.224,-0.417 -2.154,-0.055 m 7.804,1.211 c -0.49,0.307 0.11,0.515 2.239,0.775 1.427,0.174 2.183,0.204 2.296,0.092 0.341,-0.342 -0.075,-0.491 -1.908,-0.686 -1.033,-0.109 -1.991,-0.23 -2.129,-0.268 -0.137,-0.038 -0.362,10e-4 -0.498,0.087 m 41.332,0.091 C 67.791,47.674 68,47.612 68,47.917 c 0,0.365 3.988,0.086 4.655,-0.327 0.711,-0.439 -0.485,-0.507 -2.988,-0.169 m 12.096,0.049 c -0.96,0.273 -1.352,0.611 -0.902,0.78 0.39,0.146 2.389,-0.481 2.389,-0.75 0,-0.345 -0.352,-0.353 -1.487,-0.03 m -64.096,0.102 c 0,0.255 1.484,0.761 2.234,0.761 0.8,0 0.472,-0.445 -0.537,-0.728 -1.196,-0.335 -1.697,-0.345 -1.697,-0.033 m 18.522,0.652 c -0.305,0.366 -0.103,0.42 2.236,0.597 2.206,0.167 2.408,0.148 2.408,-0.233 0,-0.164 -0.396,-0.253 -1.458,-0.33 -0.802,-0.058 -1.801,-0.144 -2.22,-0.193 -0.553,-0.064 -0.818,-0.021 -0.966,0.159 M 21.52,48.317 c -0.516,0.327 0.809,0.85 2.155,0.85 0.592,0 0.683,-0.451 0.117,-0.579 C 21.734,48.12 21.816,48.13 21.52,48.317 M 78.25,48.25 c -0.092,0.031 -0.448,0.103 -0.792,0.161 -0.573,0.096 -0.836,0.439 -0.497,0.648 0.116,0.072 1.221,-0.086 2.164,-0.31 0.599,-0.142 0.47,-0.585 -0.167,-0.569 -0.298,0.007 -0.616,0.038 -0.708,0.07 m -4.378,0.756 c -1.007,0.204 -1.363,0.505 -0.83,0.702 0.426,0.158 2.541,-0.301 2.541,-0.551 0,-0.291 -0.708,-0.354 -1.711,-0.151 m -48.604,0.132 c -0.174,0.281 0.471,0.532 1.65,0.642 0.906,0.085 1.082,0.06 1.082,-0.155 0,-0.432 -2.492,-0.876 -2.732,-0.487 m 44.774,0.398 c -0.982,0.151 -1.332,0.432 -0.884,0.709 0.164,0.101 2.287,-0.191 2.545,-0.351 0.185,-0.114 -0.179,-0.568 -0.432,-0.539 -0.103,0.011 -0.656,0.093 -1.229,0.181 m -40.793,0.132 c -0.217,0.351 0.188,0.52 1.479,0.617 1.318,0.1 1.946,-0.296 0.814,-0.513 -1.299,-0.249 -2.179,-0.288 -2.293,-0.104 m 36.584,0.315 c -0.511,0.068 -0.75,0.18 -0.75,0.35 0,0.283 2.358,0.293 2.639,0.011 0.448,-0.448 -0.244,-0.58 -1.889,-0.361 m -32.731,0.153 c -0.165,0.267 0.355,0.472 1.482,0.584 1.066,0.106 1.638,-0.065 1.312,-0.391 -0.259,-0.259 -2.651,-0.424 -2.794,-0.193 m 44.985,0.305 c -2.035,0.41 -2.459,0.587 -2.151,0.895 0.196,0.196 4.146,-0.518 4.428,-0.8 0.174,-0.174 0.052,-0.553 -0.166,-0.517 -0.063,0.011 -1.013,0.2 -2.111,0.422 m -57.556,0.014 c 0.095,0.494 4.283,1.314 4.545,0.89 0.152,-0.246 -0.126,-0.343 -2.201,-0.774 -2.325,-0.482 -2.415,-0.486 -2.344,-0.116 m 41.386,-0.137 c -0.586,0.069 -0.834,0.173 -0.834,0.349 0,0.282 2.358,0.292 2.639,0.011 0.448,-0.448 -0.117,-0.56 -1.805,-0.36 M 37.113,50.443 C 36.801,50.755 37.444,51 38.576,51 c 1.284,0 1.53,-0.088 1.235,-0.443 -0.193,-0.233 -2.483,-0.329 -2.698,-0.114 m 3.97,0.224 c -0.225,0.364 0.161,0.5 1.417,0.5 1.34,0 1.768,-0.178 1.182,-0.492 -0.416,-0.223 -2.462,-0.229 -2.599,-0.008 m 3.989,0.185 c -0.198,0.32 0.303,0.476 1.535,0.479 1.121,0.002 1.617,-0.218 1.27,-0.565 -0.183,-0.183 -2.686,-0.106 -2.805,0.086 m -16.737,0.812 c -0.495,0.31 0.127,0.531 2.236,0.793 1.599,0.199 2.156,0.216 2.303,0.069 0.336,-0.336 -0.06,-0.475 -1.957,-0.683 -1.009,-0.11 -1.946,-0.231 -2.084,-0.268 -0.137,-0.037 -0.362,0.003 -0.498,0.089 m 41.332,0.09 C 67.791,52.007 68,51.945 68,52.25 c 0,0.306 0.451,0.317 2.638,0.063 1.668,-0.194 2.275,-0.382 2.107,-0.655 -0.125,-0.202 -1.088,-0.172 -3.078,0.096 m 12.166,0.023 c -1.727,0.464 -1.579,1.06 0.163,0.654 1.117,-0.261 1.445,-0.456 1.263,-0.75 -0.138,-0.223 -0.274,-0.214 -1.426,0.096 m -64.166,0.128 c 0,0.256 1.484,0.762 2.234,0.762 0.8,0 0.472,-0.445 -0.537,-0.728 -1.196,-0.336 -1.697,-0.346 -1.697,-0.034 m 18.504,0.673 c -0.123,0.149 -0.13,0.261 -0.019,0.33 0.339,0.209 4.414,0.412 4.633,0.23 0.383,-0.318 0.065,-0.44 -1.411,-0.542 -0.801,-0.056 -1.808,-0.133 -2.236,-0.173 -0.527,-0.048 -0.84,0.002 -0.967,0.155 m 25.384,-0.091 c -1.397,0.099 -1.67,0.192 -1.479,0.502 0.251,0.405 4.644,0.067 4.726,-0.364 0.061,-0.321 -0.404,-0.341 -3.247,-0.138 M 21.5,52.667 c -0.485,0.299 1.775,1.102 2.461,0.874 0.492,-0.164 0.153,-0.519 -0.669,-0.701 -1.476,-0.325 -1.537,-0.331 -1.792,-0.173 m 56.125,0.037 c -0.466,0.098 -0.792,0.257 -0.792,0.388 0,0.454 0.242,0.453 2.292,-0.013 0.206,-0.047 0.375,-0.196 0.375,-0.332 0,-0.286 -0.638,-0.3 -1.875,-0.043 m -3.861,0.683 c -0.812,0.194 -1.146,0.495 -0.729,0.655 0.434,0.166 2.548,-0.287 2.548,-0.546 0,-0.319 -0.751,-0.364 -1.819,-0.109 m 18.398,1.17 -0.421,1.36 -1.477,0.048 -1.476,0.049 1.177,0.829 c 1.317,0.928 1.266,0.691 0.581,2.699 -0.18,0.527 -0.298,0.958 -0.263,0.958 0.036,0 0.56,-0.375 1.166,-0.833 1.332,-1.008 1.103,-1.009 2.443,0.005 C 94.501,60.134 95,60.447 95,60.368 95,60.289 94.813,59.674 94.583,59 c -0.229,-0.674 -0.416,-1.246 -0.416,-1.271 0,-0.025 0.505,-0.406 1.123,-0.846 l 1.123,-0.8 L 95.011,56 93.61,55.917 93.18,54.637 c -0.558,-1.662 -0.528,-1.659 -1.018,-0.08 M 6.638,54.625 6.24,55.917 4.764,55.965 3.288,56.014 4.461,56.84 5.634,57.666 5.417,58.375 c -0.12,0.39 -0.3,0.919 -0.401,1.178 -0.367,0.941 -0.211,0.988 0.776,0.236 0.527,-0.402 1.055,-0.788 1.174,-0.858 0.136,-0.08 0.646,0.186 1.375,0.718 C 8.979,60.114 9.5,60.434 9.5,60.36 9.5,60.286 9.313,59.674 9.083,59 8.854,58.326 8.667,57.754 8.667,57.729 c 0,-0.025 0.505,-0.406 1.123,-0.846 l 1.123,-0.8 L 9.498,56 8.083,55.917 7.678,54.625 C 7.456,53.915 7.22,53.333 7.155,53.333 c -0.065,0 -0.298,0.582 -0.517,1.292 m 18.628,-1.151 c -0.172,0.279 0.478,0.53 1.652,0.64 0.906,0.084 1.082,0.059 1.082,-0.155 0,-0.42 -2.5,-0.863 -2.734,-0.485 m 44.859,0.401 c -1.089,0.159 -1.5,0.492 -0.894,0.724 0.229,0.088 2.22,-0.216 2.483,-0.378 0.144,-0.089 -0.182,-0.57 -0.359,-0.532 -0.058,0.013 -0.611,0.097 -1.23,0.186 m -40.879,0.132 c -0.219,0.353 0.234,0.542 1.495,0.623 1.361,0.087 1.941,-0.343 0.717,-0.532 -1.626,-0.251 -2.101,-0.27 -2.212,-0.091 m 36.671,0.307 c -1.014,0.125 -1.188,0.576 -0.25,0.647 0.932,0.072 2.083,-0.186 2.083,-0.466 0,-0.281 -0.565,-0.337 -1.833,-0.181 m -32.808,0.145 c -0.184,0.297 0.276,0.493 1.397,0.592 1.126,0.1 1.719,-0.059 1.402,-0.377 -0.244,-0.243 -2.666,-0.43 -2.799,-0.215 m 67.774,0.708 c 0,0.504 0.032,0.71 0.07,0.458 0.038,-0.252 0.038,-0.665 0,-0.917 -0.038,-0.252 -0.07,-0.045 -0.07,0.459 M 62,54.619 c -0.842,0.077 -1.165,0.283 -0.884,0.564 0.31,0.309 2.747,0.012 2.683,-0.328 C 63.743,54.562 63.285,54.502 62,54.619 m -24.887,0.157 c -0.314,0.314 0.332,0.557 1.481,0.557 1.255,0 1.663,-0.184 1.088,-0.491 -0.356,-0.191 -2.392,-0.243 -2.569,-0.066 m 63.584,1.912 c -0.016,0.332 -0.073,0.857 -0.125,1.166 -0.076,0.457 -0.059,0.508 0.092,0.27 0.103,-0.161 0.159,-0.686 0.126,-1.166 -0.044,-0.616 -0.071,-0.696 -0.093,-0.27 m -60.991,0.677 c 1.055,0.316 3.638,3.013 3.254,3.397 -0.229,0.23 -1.434,-0.155 -1.595,-0.51 -0.527,-1.156 -1.78,-2.085 -3.032,-2.249 l -0.75,-0.099 0.584,-0.368 c 0.681,-0.43 0.677,-0.429 1.539,-0.171 M 130.5,58.333 V 59.5 h 1 1 v -1.167 -1.166 h -1 -1 v 1.166 m 16.667,6.5 V 72.5 h 1 1 v -2.509 c 0,-2.98 -0.347,-3.005 3.005,0.217 l 2.384,2.292 1.347,-0.003 1.347,-0.002 -1.417,-1.367 c -0.779,-0.751 -2.11,-2.036 -2.958,-2.854 -1.847,-1.782 -1.821,-1.497 -0.262,-2.885 0.704,-0.626 1.7,-1.514 2.214,-1.972 0.514,-0.459 1.225,-1.077 1.581,-1.375 l 0.646,-0.542 h -1.369 -1.369 l -1.45,1.282 c -0.797,0.705 -1.487,1.324 -1.533,1.376 -0.046,0.052 -0.552,0.495 -1.125,0.985 l -1.041,0.89 V 61.6 57.167 h -1 -1 v 7.666 m 52,0 V 72.5 h 1 1 v -7.667 -7.666 h -1 -1 v 7.666 m 18.5,0 V 72.5 h 1 1 v -0.561 -0.562 l 0.571,0.539 c 1.404,1.324 4.274,1.23 5.691,-0.187 2.786,-2.786 2.085,-8.938 -1.174,-10.299 -1.464,-0.612 -3.939,-0.18 -4.73,0.826 l -0.358,0.456 v -2.773 -2.772 h -1 -1 v 7.666 M 112.583,57.66 c -7.217,1.573 -7.03,13.766 0.232,15.03 2.097,0.365 4.713,-0.045 6.107,-0.959 0.371,-0.243 0.411,-0.381 0.411,-1.417 0,-1.288 -0.012,-1.304 -0.614,-0.746 -2.383,2.21 -6.992,1.8 -8.305,-0.739 -1.045,-2.022 -1.043,-5.306 0.004,-7.332 1.28,-2.476 5.483,-2.899 8.114,-0.817 0.815,0.645 0.801,0.657 0.801,-0.661 0,-1.302 -0.069,-1.386 -1.703,-2.038 -0.988,-0.394 -3.871,-0.577 -5.047,-0.321 m 76.926,0.012 c -7.09,1.487 -6.992,13.616 0.122,15.003 2.001,0.39 4.721,0.005 6.161,-0.872 0.527,-0.321 0.541,-0.361 0.541,-1.483 0,-1.294 -0.012,-1.31 -0.614,-0.752 -2.347,2.177 -6.68,1.878 -8.234,-0.568 -0.853,-1.345 -1.119,-4.584 -0.53,-6.485 1.029,-3.326 5.488,-4.279 8.577,-1.835 0.816,0.645 0.801,0.657 0.801,-0.666 0,-1.123 -0.014,-1.162 -0.541,-1.483 -1.383,-0.843 -4.396,-1.255 -6.283,-0.859 m -18.842,2.245 V 61.5 H 170 169.333 V 62.25 63 h 0.667 0.667 v 3.227 c 0,5.762 0.323,6.273 3.964,6.273 h 1.702 v -0.725 -0.726 l -1.357,-0.104 c -2.311,-0.178 -2.309,-0.176 -2.309,-4.799 V 63 h 1.833 1.833 V 62.25 61.5 h -1.833 -1.833 v -1.583 -1.584 h -1 -1 v 1.584 M 54.241,58.946 c 0.493,0.235 0.628,0.425 0.853,1.2 0.304,1.044 0.938,2.353 1.931,3.985 0.375,0.615 0.721,1.187 0.771,1.27 0.339,0.572 -0.446,-0.316 -1.419,-1.606 -1.391,-1.845 -2.058,-2.91 -2.621,-4.182 -0.453,-1.024 -0.404,-1.091 0.485,-0.667 m 46.021,0.596 c -0.063,0.481 -0.157,1.062 -0.21,1.291 -0.064,0.282 -0.04,0.363 0.074,0.25 0.168,-0.164 0.471,-2.416 0.325,-2.416 -0.041,0 -0.126,0.393 -0.189,0.875 m 25.488,1.901 c -0.275,0.144 -0.744,0.494 -1.042,0.776 l -0.541,0.513 V 62.116 61.5 h -1 -1 v 5.5 5.5 h 0.986 0.986 l 0.055,-3.708 0.056,-3.709 0.464,-0.714 c 0.735,-1.13 1.296,-1.395 2.828,-1.335 l 1.291,0.052 v -0.96 -0.959 l -1.291,0.006 c -0.842,0.005 -1.466,0.098 -1.792,0.27 m 12.936,0.008 c -3.942,1.393 -4.534,8.098 -0.934,10.576 1.189,0.819 3.987,1.04 5.956,0.471 0.624,-0.18 0.625,-0.182 0.625,-1.089 0,-1.025 -0.179,-1.129 -1.083,-0.631 -0.754,0.415 -3.166,0.407 -3.95,-0.014 -2.385,-1.28 -2.384,-6.249 0.002,-7.53 0.793,-0.425 3.192,-0.435 3.981,-0.017 0.909,0.482 1.05,0.398 1.05,-0.622 V 61.69 l -0.9,-0.262 c -1.168,-0.339 -3.757,-0.327 -4.747,0.023 m 21.848,0.155 c -4.064,1.966 -4.102,8.829 -0.06,10.69 1.488,0.684 4.544,0.682 6.484,-0.005 0.472,-0.167 0.918,-2.124 0.484,-2.124 -0.031,0 -0.275,0.108 -0.541,0.241 -3.366,1.679 -6.658,0.639 -7.233,-2.283 L 159.545,67.5 h 4.227 4.228 l -0.006,-0.708 c -0.036,-4.414 -3.738,-6.987 -7.46,-5.186 m -60.775,0.32 c -0.062,0.334 -0.076,0.646 -0.03,0.691 0.045,0.046 0.134,-0.19 0.197,-0.524 0.063,-0.335 0.077,-0.646 0.031,-0.692 -0.046,-0.046 -0.135,0.19 -0.198,0.525 M 130.5,67 v 5.5 h 1 1 V 67 61.5 h -1 -1 V 67 m 74.196,-1.208 c 0.063,4.96 0.191,5.469 1.61,6.456 1.42,0.987 4.245,0.652 5.402,-0.64 0.284,-0.317 0.292,-0.31 0.292,0.283 V 72.5 h 1.083 1.084 V 67 61.5 h -1.075 -1.075 l -0.05,3.888 -0.05,3.889 -0.467,0.612 c -0.627,0.82 -1.248,1.111 -2.374,1.111 -2.115,0 -2.409,-0.702 -2.409,-5.753 V 61.5 h -1.013 -1.012 l 0.054,4.292 M 41.076,63.208 c 0.051,0.298 0.353,2.417 0.673,4.709 0.32,2.291 0.621,4.335 0.669,4.541 0.073,0.308 0.018,0.375 -0.306,0.375 -0.374,0 -0.414,-0.108 -0.76,-2.041 -0.201,-1.123 -0.611,-3.411 -0.911,-5.084 l -0.545,-3.041 h 0.544 c 0.485,0 0.555,0.059 0.636,0.541 m 2.273,3.709 c 0.919,6.391 0.875,5.862 0.496,5.962 -0.375,0.098 -0.337,0.244 -1.186,-4.546 -0.284,-1.604 -0.623,-3.457 -0.754,-4.118 -0.318,-1.601 -0.322,-1.578 0.303,-1.517 l 0.542,0.052 0.599,4.167 m 120.932,-3.808 c 0.723,0.343 1.385,1.317 1.505,2.212 L 165.877,66 h -3.105 c -3.517,0 -3.465,0.025 -2.772,-1.333 0.8,-1.569 2.757,-2.281 4.281,-1.558 m 59.452,-0.043 c 2.453,1.025 2.484,6.669 0.043,7.827 -2.234,1.06 -4.109,-0.721 -4.109,-3.902 0,-3.141 1.795,-4.874 4.066,-3.925 M 99.262,63.929 c -0.061,0.244 -0.074,0.481 -0.028,0.527 0.046,0.046 0.133,-0.117 0.195,-0.361 0.061,-0.244 0.074,-0.481 0.028,-0.527 -0.046,-0.046 -0.134,0.116 -0.195,0.361 m -0.398,1.435 c -0.099,0.39 -0.152,0.737 -0.116,0.772 0.035,0.036 0.148,-0.251 0.252,-0.636 0.104,-0.385 0.156,-0.733 0.116,-0.773 -0.04,-0.04 -0.153,0.247 -0.252,0.637 m -37.031,0.358 c 0,0.03 -0.381,0.302 -0.847,0.604 -1.01,0.655 -1.819,1.707 -1.819,2.366 0,0.587 -0.165,0.595 -0.821,0.043 -0.664,-0.559 -0.647,-0.946 0.066,-1.52 0.667,-0.536 3.421,-1.738 3.421,-1.493 m 36.534,1.228 c -0.247,0.804 -0.128,0.923 0.133,0.133 0.11,-0.333 0.167,-0.638 0.128,-0.677 -0.04,-0.04 -0.157,0.205 -0.261,0.544 M 97.34,69.712 C 92.655,81.268 83.877,90.566 72.25,96.29 c -1.375,0.676 -2.312,1.179 -2.083,1.117 2.348,-0.636 9.993,-5.21 12.303,-7.36 0.246,-0.229 0.747,-0.634 1.113,-0.899 0.823,-0.597 4.817,-4.626 5.596,-5.645 0.314,-0.411 0.683,-0.861 0.821,-1 0.533,-0.54 2.562,-3.346 3.538,-4.894 0.935,-1.484 3.128,-5.746 3.786,-7.359 0.075,-0.183 0.269,-0.653 0.432,-1.043 0.163,-0.391 0.261,-0.746 0.218,-0.788 -0.043,-0.043 -0.328,0.539 -0.634,1.293 m -31.007,0.624 c 3.109,1.178 3.269,1.275 3.931,2.403 l 0.301,0.511 -0.604,-0.457 c -0.331,-0.252 -2.089,-1.064 -3.905,-1.804 -3.648,-1.488 -3.466,-1.397 -3.313,-1.645 0.176,-0.283 0.345,-0.237 3.59,0.992 m 10.4,9.64 c -0.357,0.262 -0.982,0.774 -1.388,1.138 l -0.739,0.661 1.947,2.269 c 2.402,2.801 2.078,2.656 3.38,1.508 2.282,-2.011 1.979,-4.577 -0.457,-3.878 -0.529,0.151 -0.555,0.119 -0.295,-0.367 0.716,-1.339 -1.093,-2.323 -2.448,-1.331 m -54.65,0.106 c -1.523,0.534 -2.653,2.507 -2.235,3.902 0.443,1.476 2.237,2.808 2.919,2.167 0.457,-0.43 0.509,-0.651 0.153,-0.651 -0.462,0 -1.753,-1.403 -1.753,-1.905 0,-2.273 2.759,-3.19 4.027,-1.339 l 0.386,0.563 0.462,-0.443 0.462,-0.442 -0.71,-0.737 C 24.577,79.936 23.458,79.6 22.083,80.082 m 56.017,1.17 c 0.591,0.895 -0.544,1.716 -1.307,0.945 l -0.543,-0.549 0.478,-0.416 c 0.545,-0.475 1.05,-0.468 1.372,0.02 m -51.767,3.109 c -0.595,0.929 -1.356,2.111 -1.69,2.628 l -0.606,0.94 0.56,0.367 0.56,0.367 0.678,-0.998 c 0.372,-0.549 0.735,-0.998 0.805,-0.998 0.383,0 0.527,0.501 0.527,1.844 v 1.445 l 0.688,0.456 0.689,0.455 -0.074,-1.808 -0.074,-1.809 0.657,-0.009 c 1.244,-0.017 2.054,-1.538 1.352,-2.54 -0.259,-0.37 -2.602,-2.037 -2.856,-2.031 -0.073,0.001 -0.62,0.762 -1.216,1.691 m 46.534,-1.357 c -0.677,0.412 -0.707,0.282 0.475,2.106 1.291,1.993 1.448,2.426 1.083,2.984 -0.813,1.24 -1.661,0.831 -3.092,-1.489 -1.193,-1.936 -1.165,-1.914 -1.84,-1.433 l -0.476,0.338 1.004,1.62 c 1.331,2.149 2.107,2.87 3.092,2.87 1.741,0 3.194,-1.661 2.746,-3.14 -0.143,-0.475 -2.074,-3.798 -2.391,-4.114 -0.037,-0.037 -0.307,0.079 -0.601,0.258 m 7.038,-0.075 c 0.405,0.405 0.311,0.961 -0.254,1.498 l -0.515,0.49 -0.564,-0.648 c -0.621,-0.714 -0.609,-0.816 0.155,-1.282 0.636,-0.388 0.838,-0.398 1.178,-0.058 m -50.77,2.386 c 0.074,0.716 -0.588,1.147 -1.306,0.85 -0.72,-0.298 -0.742,-0.421 -0.22,-1.245 l 0.466,-0.738 0.504,0.317 c 0.345,0.218 0.521,0.475 0.556,0.816 m 3.025,0.618 c -0.115,0.303 -0.111,0.508 0.011,0.656 0.271,0.325 -1.604,3.897 -1.992,3.796 -0.186,-0.049 -0.352,0.08 -0.487,0.375 -0.244,0.536 -0.341,0.427 0.935,1.043 l 1.045,0.504 0.243,-0.471 c 0.214,-0.414 0.214,-0.482 -0.004,-0.565 -0.37,-0.142 1.551,-3.972 1.932,-3.851 0.229,0.072 0.792,-0.688 0.622,-0.838 -0.027,-0.024 -0.518,-0.278 -1.093,-0.566 l -1.044,-0.524 -0.168,0.441 m 33.382,1.031 c -0.675,0.328 -0.685,0.217 0.19,2.16 1.523,3.384 1.78,3.9 1.915,3.847 2.896,-1.13 3.465,-1.546 2.978,-2.178 -0.189,-0.246 -0.304,-0.227 -1.259,0.212 L 68.315,91.488 67.7,90.119 c -0.338,-0.753 -0.84,-1.83 -1.115,-2.394 l -0.502,-1.024 -0.541,0.263 m -29.518,0.881 c -2.283,0.914 -2.967,4.33 -1.132,5.655 1.555,1.124 3.275,0.991 3.275,-0.254 0,-0.02 -0.371,-0.073 -0.824,-0.116 -1.53,-0.147 -2.361,-1.158 -2.014,-2.448 0.465,-1.725 2.144,-2.288 3.543,-1.187 l 0.41,0.322 0.191,-0.617 c 0.229,-0.739 0.069,-0.909 -1.209,-1.288 -0.93,-0.277 -1.662,-0.298 -2.24,-0.067 m 26.156,0.262 c -3.86,1.351 -2.581,7.286 1.379,6.399 1.602,-0.36 2.024,-0.717 1.756,-1.487 L 65.134,92.5 64.643,92.85 c -1.558,1.11 -3.31,0.175 -3.31,-1.764 0,-1.255 0.931,-2.086 2.337,-2.086 0.539,0 0.581,-0.091 0.334,-0.739 -0.193,-0.507 -0.694,-0.549 -1.824,-0.154 m -21.236,0.857 c -0.112,0.194 -1.154,6.049 -1.088,6.114 0.034,0.032 0.333,0.11 0.666,0.172 l 0.605,0.113 0.187,-1.056 c 0.385,-2.181 0.366,-2.173 1.088,-0.44 0.772,1.853 0.813,1.901 1.748,2.052 0.586,0.095 0.715,0.073 0.641,-0.108 C 44.74,95.686 44.36,94.862 43.948,93.98 l -0.75,-1.603 1.234,-1.226 c 1.447,-1.437 1.441,-1.42 0.526,-1.575 l -0.708,-0.119 -1.208,1.31 c -1.341,1.453 -1.393,1.426 -0.97,-0.517 0.12,-0.55 0.172,-1.046 0.115,-1.103 -0.167,-0.166 -1.168,-0.314 -1.243,-0.183 m 12.172,0.875 c -1.854,0.141 -1.838,0.134 -1.689,0.725 0.1,0.401 0.179,0.436 0.986,0.436 h 0.877 l 0.11,1.708 c 0.06,0.94 0.154,2.102 0.207,2.584 l 0.098,0.875 h 0.671 0.672 L 54.935,94.625 C 54.872,93.777 54.776,92.577 54.72,91.958 l -0.101,-1.125 0.565,-0.002 c 1.023,-0.004 1.316,-0.156 1.316,-0.684 0,-0.549 -0.095,-0.557 -3.384,-0.308 m -6.354,0.703 c -0.05,0.389 -0.111,1.805 -0.135,3.146 l -0.044,2.439 1.084,0.102 c 0.595,0.056 1.439,0.102 1.875,0.103 l 0.791,0.001 V 95.75 95.167 H 49.167 48 v -0.75 -0.75 h 1.094 1.094 L 50.136,93.125 C 50.083,92.583 50.083,92.583 49.042,92.534 48.017,92.485 48,92.476 48,92.006 48,91.09 48.114,91 49.268,91 c 1.061,0 1.065,-0.002 1.065,-0.477 0,-0.539 -0.551,-0.69 -2.513,-0.69 h -0.966 l -0.092,0.709 m 21.824,7.32 c -0.458,0.181 -0.87,0.366 -0.917,0.413 -0.173,0.173 0.933,-0.165 1.498,-0.458 0.757,-0.393 0.472,-0.371 -0.581,0.045 m -1.919,0.721 c -0.321,0.124 -0.471,0.227 -0.334,0.23 0.138,0.003 0.475,-0.098 0.75,-0.224 0.644,-0.294 0.345,-0.299 -0.416,-0.006 m -1.584,0.507 c -0.66,0.228 -0.661,0.229 -0.083,0.134 0.321,-0.052 0.696,-0.16 0.833,-0.238 0.367,-0.209 0.013,-0.16 -0.75,0.104 M 37,99.492 c 0.137,0.093 0.394,0.171 0.569,0.172 0.427,0.004 0.294,-0.092 -0.319,-0.229 -0.365,-0.082 -0.433,-0.066 -0.25,0.057 m 26.25,0.094 -0.667,0.227 0.667,-0.094 c 0.703,-0.1 1.409,-0.383 0.917,-0.368 -0.138,0.004 -0.55,0.11 -0.917,0.235 M 38.917,100 c 0.183,0.079 0.483,0.141 0.666,0.138 0.268,-0.004 0.252,-0.031 -0.083,-0.138 -0.57,-0.183 -1.008,-0.183 -0.583,0 m 22.583,0 -0.417,0.133 0.417,0.005 c 0.229,0.003 0.567,-0.059 0.75,-0.138 l 0.333,-0.143 -0.333,0.005 C 62.067,99.864 61.729,99.927 61.5,100 m -2.5,0.5 c -0.57,0.12 -0.572,0.123 -0.083,0.133 0.275,0.006 0.65,-0.054 0.833,-0.133 0.401,-0.172 0.068,-0.172 -0.75,0 m -4,0.5 c -0.916,0.112 -0.916,0.112 -0.167,0.127 0.413,0.008 1.088,-0.045 1.5,-0.118 0.978,-0.174 0.064,-0.18 -1.333,-0.009 m -9.289,0.12 c 0.253,0.038 0.628,0.037 0.833,-0.003 0.205,-0.039 -0.002,-0.071 -0.461,-0.069 -0.458,0.001 -0.626,0.033 -0.372,0.072"
       stroke="none"
       fill="#fafbfa"
       fill-rule="evenodd" />
    <path
       id="path3"
       d="m 41.5,5.898 c 0,0.035 0.221,0.097 0.491,0.136 0.27,0.04 0.453,0.011 0.407,-0.064 C 42.315,5.836 41.5,5.771 41.5,5.898 M 86.083,15 c 0.637,0.642 1.196,1.167 1.241,1.167 0.046,0 -0.437,-0.525 -1.074,-1.167 -0.637,-0.642 -1.195,-1.167 -1.241,-1.167 -0.046,0 0.438,0.525 1.074,1.167 M 18.75,21 c 0.358,0.367 0.688,0.667 0.734,0.667 0.046,0 -0.209,-0.3 -0.567,-0.667 -0.358,-0.367 -0.689,-0.667 -0.735,-0.667 -0.045,0 0.21,0.3 0.568,0.667 m 9.458,4.948 c 0.161,0.042 0.423,0.042 0.584,0 0.16,-0.042 0.029,-0.076 -0.292,-0.076 -0.321,0 -0.452,0.034 -0.292,0.076 M 59.45,43.223 c -0.047,0.123 -0.019,0.33 0.063,0.459 0.108,0.171 0.149,0.11 0.151,-0.224 0.003,-0.497 -0.079,-0.587 -0.214,-0.235 m -8.658,2.728 c 0.206,0.04 0.543,0.04 0.75,0 0.206,-0.04 0.037,-0.072 -0.375,-0.072 -0.413,0 -0.582,0.032 -0.375,0.072 m -0.25,0.668 c 0.252,0.039 0.664,0.039 0.916,0 C 51.71,46.581 51.504,46.55 51,46.55 c -0.504,0 -0.71,0.031 -0.458,0.069 m 50.333,2.131 c 0.002,0.367 0.036,0.497 0.076,0.29 0.04,-0.208 0.039,-0.508 -0.003,-0.667 -0.042,-0.159 -0.074,0.01 -0.073,0.377 m -53.75,-0.299 c 0.206,0.04 0.544,0.04 0.75,0 0.206,-0.04 0.038,-0.072 -0.375,-0.072 -0.413,0 -0.581,0.032 -0.375,0.072 M 0.039,52.5 c 0,0.321 0.034,0.452 0.076,0.292 0.042,-0.161 0.042,-0.423 0,-0.584 C 0.073,52.048 0.039,52.179 0.039,52.5 m 100.836,0.25 c 0.002,0.367 0.036,0.497 0.076,0.29 0.04,-0.208 0.039,-0.508 -0.003,-0.667 -0.042,-0.159 -0.074,0.01 -0.073,0.377 m -54.748,0.035 c 0.207,0.039 0.507,0.038 0.667,-0.004 0.159,-0.042 -0.011,-0.074 -0.377,-0.072 -0.367,0.002 -0.497,0.036 -0.29,0.076 m -4.426,23.672 c 0.615,0.032 1.665,0.032 2.333,0 0.669,-0.031 0.166,-0.058 -1.117,-0.058 -1.284,0 -1.831,0.026 -1.216,0.058 m -13.142,12.96 c 0,0.825 0.028,1.183 0.063,0.796 0.035,-0.386 0.035,-1.061 0.001,-1.5 -0.035,-0.438 -0.063,-0.121 -0.064,0.704 m 15.014,0.625 -0.49,0.541 0.542,-0.489 c 0.505,-0.456 0.618,-0.594 0.49,-0.594 -0.029,0 -0.273,0.244 -0.542,0.542 m 4.887,1.076 c 0.208,0.04 0.508,0.038 0.667,-0.003 0.159,-0.042 -0.01,-0.075 -0.377,-0.073 -0.367,0.002 -0.497,0.036 -0.29,0.076 M 46.545,93 c 0,0.412 0.033,0.581 0.073,0.375 0.039,-0.206 0.039,-0.544 0,-0.75 -0.04,-0.206 -0.073,-0.038 -0.073,0.375 m 1.483,1.375 c -0.023,0.654 0.023,0.791 0.264,0.789 0.192,-0.002 0.225,-0.045 0.095,-0.127 -0.107,-0.069 -0.226,-0.424 -0.263,-0.789 -0.067,-0.658 -0.068,-0.657 -0.096,0.127 M 53.542,96 c 0.037,0.138 0.249,0.264 0.471,0.281 0.318,0.024 0.333,0.011 0.07,-0.061 C 53.9,96.169 53.688,96.043 53.612,95.939 53.521,95.814 53.497,95.835 53.542,96 m -5.334,5.115 c 0.161,0.042 0.423,0.042 0.584,0 0.16,-0.042 0.029,-0.076 -0.292,-0.076 -0.321,0 -0.452,0.034 -0.292,0.076 m 4,0 c 0.161,0.042 0.423,0.042 0.584,0 0.16,-0.042 0.029,-0.076 -0.292,-0.076 -0.321,0 -0.452,0.034 -0.292,0.076"
       stroke="none"
       fill="#546a8e"
       fill-rule="evenodd" />
    <path
       id="path4"
       d="m 48.542,5.75 c 0.002,0.367 0.036,0.497 0.076,0.29 0.04,-0.208 0.038,-0.508 -0.003,-0.667 -0.042,-0.159 -0.075,0.01 -0.073,0.377 m -9.003,3.417 c 0,0.32 0.034,0.452 0.076,0.291 0.042,-0.16 0.042,-0.423 0,-0.583 -0.042,-0.16 -0.076,-0.029 -0.076,0.292 m -1.5,0.166 c 0,0.321 0.034,0.452 0.076,0.292 0.042,-0.16 0.042,-0.423 0,-0.583 -0.042,-0.161 -0.076,-0.03 -0.076,0.291 m 8.836,-0.218 c 0.16,0.042 0.423,0.042 0.583,0 0.161,-0.042 0.029,-0.076 -0.291,-0.076 -0.321,0 -0.452,0.034 -0.292,0.076 m -2.17,0.718 c 0,0.321 0.035,0.452 0.077,0.292 0.041,-0.16 0.041,-0.423 0,-0.583 -0.042,-0.161 -0.077,-0.03 -0.077,0.291 m 4.753,4.957 c 0.573,0.033 1.511,0.033 2.084,0 0.573,-0.032 0.104,-0.059 -1.042,-0.059 -1.146,0 -1.615,0.027 -1.042,0.059 m 37.851,1.344 c 0.491,0.569 0.978,1.086 1.083,1.15 0.105,0.064 -0.21,-0.35 -0.701,-0.918 -0.491,-0.569 -0.978,-1.086 -1.083,-1.15 -0.105,-0.064 0.21,0.35 0.701,0.918 m -40.432,0.652 c 0.254,0.039 0.629,0.038 0.834,-0.002 0.205,-0.04 -0.003,-0.071 -0.461,-0.07 -0.458,0.002 -0.626,0.034 -0.373,0.072 m 7.498,-0.004 c 0.16,0.041 0.423,0.041 0.583,0 0.161,-0.042 0.029,-0.077 -0.291,-0.077 -0.321,0 -0.452,0.035 -0.292,0.077 m -34.336,0.812 c 0.224,0.265 0.245,0.389 0.092,0.542 -0.109,0.108 -0.154,0.197 -0.101,0.197 0.377,0 0.436,-0.477 0.094,-0.766 -0.373,-0.316 -0.373,-0.316 -0.085,0.027 m -2.962,2.114 -0.827,0.875 0.875,-0.827 C 17.606,19.301 18,18.908 18,18.881 c 0,-0.124 -0.154,0.014 -0.923,0.827 m 73.083,-0.25 c 0.309,0.39 0.593,0.709 0.629,0.709 0.118,0 -0.596,-0.938 -0.9,-1.182 -0.161,-0.129 -0.039,0.084 0.271,0.473 m -72.751,1.584 -0.659,0.708 0.708,-0.659 c 0.39,-0.362 0.709,-0.681 0.709,-0.708 0,-0.126 -0.145,0 -0.758,0.659 m 4.008,0.458 c 0.451,0.458 0.858,0.833 0.904,0.833 0.046,0 -0.286,-0.375 -0.738,-0.833 -0.451,-0.458 -0.858,-0.833 -0.904,-0.833 -0.046,0 0.286,0.375 0.738,0.833 m 63.421,0.245 c -0.212,0.226 -0.462,0.365 -0.555,0.307 -0.099,-0.061 -0.116,-0.019 -0.04,0.103 0.106,0.172 1.09,-0.521 1.09,-0.77 0,-0.122 -0.132,-0.026 -0.495,0.36 m -3.643,0.142 -0.364,0.386 0.46,0.405 0.459,0.405 -0.372,-0.424 -0.372,-0.424 0.367,-0.368 C 81.575,21.665 81.7,21.5 81.649,21.5 c -0.05,0 -0.254,0.174 -0.454,0.387 m -60.202,1.155 c 0.691,0.736 0.84,0.868 0.84,0.743 0,-0.027 -0.356,-0.383 -0.791,-0.792 l -0.792,-0.743 0.743,0.792 m 62.221,0.077 c 0.27,0.27 0.242,0.332 -0.506,1.125 l -0.791,0.839 0.871,-0.824 c 0.823,-0.777 0.929,-1.426 0.234,-1.426 -0.051,0 0.035,0.129 0.192,0.286 m -7.381,2.131 c 0.775,0.779 1.447,1.417 1.493,1.417 0.046,0 -0.551,-0.638 -1.326,-1.417 -0.775,-0.779 -1.447,-1.417 -1.493,-1.417 -0.045,0 0.551,0.638 1.326,1.417 m -50.755,-0.042 -0.995,1.042 1.042,-0.995 c 0.573,-0.547 1.042,-1.016 1.042,-1.041 0,-0.124 -0.165,0.027 -1.089,0.994 m 33.461,10.125 c 0,0.321 0.034,0.452 0.076,0.292 0.042,-0.16 0.042,-0.423 0,-0.583 -0.042,-0.161 -0.076,-0.03 -0.076,0.291 m -6.886,0.375 c -0.049,0.358 -0.024,0.563 0.06,0.479 0.081,-0.081 0.12,-0.362 0.087,-0.625 -0.055,-0.441 -0.067,-0.429 -0.147,0.146 M 57.583,41 c 0.358,0.367 0.689,0.667 0.735,0.667 0.045,0 -0.21,-0.3 -0.568,-0.667 -0.358,-0.367 -0.688,-0.667 -0.734,-0.667 -0.046,0 0.209,0.3 0.567,0.667 m -17.708,5.948 c 0.16,0.042 0.423,0.042 0.583,0 0.161,-0.042 0.029,-0.076 -0.291,-0.076 -0.321,0 -0.452,0.034 -0.292,0.076 m 61,0.635 c 0.002,0.367 0.036,0.497 0.076,0.29 0.04,-0.207 0.039,-0.507 -0.003,-0.667 -0.042,-0.159 -0.074,0.011 -0.073,0.377 m -63.5,0.532 c 0.16,0.042 0.423,0.042 0.583,0 0.161,-0.042 0.029,-0.076 -0.291,-0.076 -0.321,0 -0.452,0.034 -0.292,0.076 m 2.419,0.17 c 0.207,0.039 0.507,0.038 0.666,-0.004 0.16,-0.042 -0.01,-0.074 -0.377,-0.072 -0.366,0.002 -0.497,0.036 -0.289,0.076 m -25.255,0.548 c 0,0.321 0.034,0.452 0.076,0.292 0.042,-0.16 0.042,-0.423 0,-0.583 -0.042,-0.161 -0.076,-0.03 -0.076,0.291 m 29.57,-0.375 c -0.043,0.069 0.384,0.104 0.948,0.079 1.726,-0.079 1.93,-0.152 0.495,-0.179 -0.751,-0.013 -1.401,0.032 -1.443,0.1 m 18.433,0.324 c 0.16,0.041 0.423,0.041 0.583,0 0.16,-0.042 0.029,-0.077 -0.292,-0.077 -0.321,0 -0.452,0.035 -0.291,0.077 m 22.087,1.343 c 0.096,0.968 0.177,1.038 0.191,0.167 0.007,-0.436 -0.047,-0.792 -0.12,-0.792 -0.073,0 -0.105,0.281 -0.071,0.625 m -68.417,0.208 c 0,0.413 0.033,0.582 0.072,0.375 0.04,-0.206 0.04,-0.543 0,-0.75 -0.039,-0.206 -0.072,-0.037 -0.072,0.375 m 29.583,0.288 c 0.299,0.037 0.749,0.036 1,-0.002 0.25,-0.038 0.005,-0.068 -0.545,-0.067 -0.55,10e-4 -0.755,0.032 -0.455,0.069 m -3.251,0.665 c 0.253,0.039 0.628,0.038 0.833,-0.002 0.205,-0.04 -0.002,-0.071 -0.46,-0.07 -0.459,0.002 -0.626,0.034 -0.373,0.072 m 16.498,0.464 c 0.002,0.367 0.036,0.497 0.076,0.29 0.04,-0.208 0.038,-0.508 -0.003,-0.667 -0.042,-0.159 -0.075,0.01 -0.073,0.377 m 25.605,0.286 c 0.077,0.463 0.1,0.487 0.153,0.153 0.034,-0.217 -0.007,-0.463 -0.091,-0.547 -0.093,-0.092 -0.117,0.063 -0.062,0.394 m -70.108,0.631 c 0,0.32 0.034,0.452 0.076,0.291 0.042,-0.16 0.042,-0.423 0,-0.583 -0.042,-0.16 -0.076,-0.029 -0.076,0.292 m 22.588,-0.216 c 0.207,0.04 0.507,0.039 0.667,-0.003 0.159,-0.042 -0.011,-0.074 -0.377,-0.073 -0.367,0.002 -0.497,0.036 -0.29,0.076 m 24.833,0 c 0.208,0.04 0.508,0.039 0.667,-0.003 0.159,-0.042 -0.01,-0.074 -0.377,-0.073 -0.367,0.002 -0.497,0.036 -0.29,0.076 m -22.252,0.164 c 0.161,0.042 0.423,0.042 0.584,0 0.16,-0.042 0.029,-0.076 -0.292,-0.076 -0.321,0 -0.452,0.034 -0.292,0.076 m 5.003,0.171 c 0.253,0.039 0.628,0.038 0.833,-0.002 0.205,-0.04 -0.002,-0.071 -0.461,-0.07 -0.458,0.002 -0.626,0.034 -0.372,0.072 m 56.161,1.047 c 0,0.321 0.034,0.452 0.076,0.292 0.042,-0.16 0.042,-0.423 0,-0.583 -0.042,-0.161 -0.076,-0.03 -0.076,0.291 m -38.164,1.449 c 0.161,0.041 0.423,0.041 0.584,0 0.16,-0.042 0.029,-0.077 -0.292,-0.077 -0.321,0 -0.452,0.035 -0.292,0.077 m -23.833,0.166 c 0.16,0.042 0.423,0.042 0.583,0 0.161,-0.042 0.029,-0.076 -0.291,-0.076 -0.321,0 -0.452,0.034 -0.292,0.076 m 3.292,0.116 c 0,0.137 1.019,0.206 1.1,0.075 0.047,-0.077 -0.181,-0.139 -0.507,-0.139 -0.326,0 -0.593,0.029 -0.593,0.064 m -37.5,0.269 -1.584,0.103 1.532,0.032 c 0.878,0.018 1.576,-0.039 1.635,-0.135 0.057,-0.091 0.08,-0.152 0.052,-0.134 -0.029,0.017 -0.765,0.078 -1.635,0.134 m 85.5,0 -1.584,0.103 1.532,0.032 c 0.878,0.018 1.576,-0.039 1.635,-0.135 0.057,-0.091 0.08,-0.152 0.052,-0.134 -0.029,0.017 -0.765,0.078 -1.635,0.134 M 8.183,55.905 c 0.119,0.119 2.815,0.153 2.931,0.036 0.06,-0.059 -0.592,-0.108 -1.447,-0.108 -0.856,0 -1.524,0.033 -1.484,0.072 m 86.781,0.052 c 1.024,0.042 1.349,0.109 1.26,0.258 -0.075,0.124 -0.013,0.114 0.161,-0.027 0.429,-0.348 0.393,-0.357 -1.26,-0.321 l -1.542,0.034 1.381,0.056 M 38.96,56.285 c 0.208,0.039 0.508,0.038 0.667,-0.004 0.159,-0.042 -0.01,-0.074 -0.377,-0.072 -0.367,0.002 -0.497,0.036 -0.29,0.076 m 21.421,2.465 c 10e-4,0.458 0.034,0.626 0.072,0.373 0.038,-0.254 0.037,-0.629 -0.002,-0.834 -0.04,-0.205 -0.071,0.003 -0.07,0.461 m -15.926,2.87 c 0.295,0.037 0.82,0.038 1.166,0.002 0.346,-0.036 0.104,-0.067 -0.538,-0.067 -0.641,-10e-4 -0.924,0.028 -0.628,0.065 m 0.75,8.38 c 0,0.321 0.035,0.452 0.077,0.292 0.041,-0.161 0.041,-0.423 0,-0.584 C 45.24,69.548 45.205,69.679 45.205,70 M 25.667,81.083 c 0.311,0.321 0.603,0.584 0.648,0.584 0.046,0 -0.171,-0.263 -0.482,-0.584 C 25.522,80.762 25.23,80.5 25.185,80.5 c -0.046,0 0.171,0.262 0.482,0.583 m -13.703,2.334 c 0.096,0.183 0.46,0.595 0.808,0.916 0.575,0.53 0.085,-0.1 -0.906,-1.166 -0.043,-0.046 0.001,0.066 0.098,0.25 m 37.668,1.54 c 0.576,0.033 1.476,0.032 2,-10e-4 0.523,-0.033 0.051,-0.059 -1.049,-0.059 -1.1,0 -1.528,0.027 -0.951,0.06 M 14.5,86.224 c 0.688,0.715 1.475,1.457 1.75,1.649 0.275,0.191 0.425,0.276 0.333,0.189 -0.091,-0.087 -0.879,-0.829 -1.75,-1.648 l -1.583,-1.49 1.25,1.3 m 30.677,4.18 -0.573,0.679 0.648,-0.619 c 0.356,-0.341 0.614,-0.647 0.573,-0.68 -0.041,-0.033 -0.333,0.246 -0.648,0.62 m 4.656,-0.477 c 0.418,0.079 0.5,0.173 0.5,0.573 0,0.4 -0.082,0.494 -0.5,0.573 -0.493,0.092 -0.492,0.093 0.042,0.052 0.5,-0.038 0.542,-0.087 0.542,-0.625 0,-0.538 -0.042,-0.587 -0.542,-0.625 -0.534,-0.041 -0.535,-0.04 -0.042,0.052 m -31,0.128 c 0,0.046 0.3,0.321 0.667,0.612 0.367,0.29 0.667,0.49 0.667,0.444 0,-0.045 -0.3,-0.321 -0.667,-0.611 -0.367,-0.29 -0.667,-0.491 -0.667,-0.445 m 32.52,0.737 c -0.016,0.307 0.063,0.371 0.439,0.352 0.377,-0.019 0.394,-0.035 0.093,-0.094 -0.2,-0.039 -0.398,-0.197 -0.439,-0.352 -0.052,-0.199 -0.08,-0.172 -0.093,0.094 m -17.648,0.541 c 0,0.321 0.035,0.452 0.077,0.292 0.041,-0.16 0.041,-0.423 0,-0.583 -0.042,-0.161 -0.077,-0.029 -0.077,0.291 m 14.337,0.584 c 0.002,0.366 0.036,0.497 0.076,0.289 0.04,-0.207 0.038,-0.507 -0.003,-0.666 -0.042,-0.16 -0.075,0.01 -0.073,0.377 m -1.489,2.75 c 0,0.596 0.031,0.839 0.068,0.541 0.037,-0.298 0.037,-0.785 0,-1.083 -0.037,-0.298 -0.068,-0.054 -0.068,0.542 m 0.324,1.619 c 0.254,0.039 0.629,0.038 0.834,-0.002 0.205,-0.04 -0.003,-0.071 -0.461,-0.07 -0.458,0.002 -0.626,0.034 -0.373,0.072 m 0.25,4.832 c 0.207,0.04 0.507,0.038 0.667,-0.003 0.159,-0.042 -0.011,-0.075 -0.377,-0.073 -0.367,0.002 -0.497,0.036 -0.29,0.076 m 6.167,0 c 0.207,0.04 0.507,0.038 0.666,-0.003 0.16,-0.042 -0.01,-0.075 -0.377,-0.073 -0.366,0.002 -0.497,0.036 -0.289,0.076"
       stroke="none"
       fill="#7d91ae"
       fill-rule="evenodd" />
  </g>
</svg>
