<svg id="svg" version="1.1" xmlns="http://www.w3.org/2000/svg" xmlns:xlink="http://www.w3.org/1999/xlink" width="600" height="101.2121212121212" viewBox="0, 0, 600,101.2121212121212"><g id="svgg"><path id="path0" d="M102.167 50.583 L 102.167 101.167 103.167 101.167 L 104.167 101.167 104.167 50.681 C 104.167 10.448,104.209 0.177,104.375 0.110 C 104.490 0.064,104.040 0.020,103.375 0.013 L 102.167 0.000 102.167 50.583 M47.417 0.349 C 44.850 0.514,43.998 0.601,42.667 0.830 C 42.071 0.933,41.433 1.040,41.250 1.068 C 41.067 1.096,40.467 1.218,39.917 1.341 C 39.367 1.463,38.879 1.571,38.833 1.580 C 36.886 1.994,33.177 3.204,30.917 4.164 C 28.433 5.219,24.872 7.023,24.667 7.330 C 24.621 7.399,24.415 7.508,24.208 7.572 C 24.002 7.636,23.833 7.750,23.833 7.825 C 23.833 7.900,23.702 8.009,23.542 8.067 C 23.381 8.125,23.100 8.265,22.917 8.380 C 22.281 8.776,21.582 9.246,21.381 9.415 C 21.070 9.673,20.831 9.856,19.749 10.658 C 19.200 11.065,18.675 11.478,18.583 11.574 C 18.492 11.671,18.054 12.041,17.612 12.397 C 16.189 13.541,12.687 17.112,11.417 18.715 C 11.142 19.062,10.712 19.587,10.461 19.881 C 10.210 20.176,10.004 20.468,10.003 20.530 C 10.001 20.592,9.906 20.742,9.792 20.863 C 9.300 21.382,7.388 24.324,6.343 26.167 C 4.743 28.988,2.525 34.397,1.833 37.168 C 1.394 38.925,1.155 39.973,0.998 40.833 C 0.906 41.337,0.755 42.162,0.661 42.667 C 0.132 45.526,-0.170 54.109,0.222 55.167 C 0.305 55.391,0.524 57.536,0.528 58.167 C 0.529 58.304,0.597 58.642,0.679 58.917 C 0.761 59.192,0.871 59.717,0.923 60.083 C 1.031 60.846,1.085 61.123,1.329 62.167 C 1.426 62.579,1.530 63.074,1.560 63.266 C 1.590 63.458,1.669 63.701,1.734 63.807 C 1.869 64.026,2.022 64.631,2.036 65.000 C 2.041 65.137,2.113 65.336,2.196 65.441 C 2.278 65.547,2.385 65.809,2.433 66.025 C 2.480 66.240,2.537 66.492,2.559 66.583 C 2.581 66.675,2.692 66.919,2.806 67.125 C 2.919 67.331,2.974 67.500,2.928 67.500 C 2.883 67.500,2.990 67.838,3.168 68.252 C 3.345 68.666,3.487 69.022,3.483 69.044 C 3.480 69.066,3.569 69.308,3.682 69.583 C 3.794 69.858,3.871 70.177,3.853 70.292 C 3.834 70.406,3.879 70.500,3.952 70.500 C 4.025 70.500,4.190 70.744,4.319 71.042 C 4.569 71.622,5.821 74.154,6.400 75.250 C 8.077 78.426,11.672 83.130,14.854 86.312 C 34.560 106.019,66.461 106.026,86.160 86.327 C 106.907 65.580,105.642 31.662,83.407 12.505 C 80.757 10.221,76.546 7.267,74.792 6.460 C 74.448 6.301,74.167 6.096,74.167 6.003 C 74.167 5.910,74.047 5.833,73.901 5.833 C 73.754 5.833,73.436 5.724,73.192 5.589 C 72.949 5.455,72.188 5.092,71.500 4.782 C 70.813 4.471,69.976 4.094,69.641 3.942 C 69.307 3.791,68.917 3.667,68.776 3.667 C 68.635 3.667,68.479 3.601,68.430 3.522 C 68.381 3.442,68.132 3.334,67.878 3.282 C 67.624 3.231,67.117 3.055,66.750 2.891 C 66.383 2.728,66.008 2.585,65.917 2.575 C 65.825 2.565,65.412 2.456,65.000 2.334 C 63.958 2.024,63.993 2.033,63.250 1.834 C 62.883 1.736,62.433 1.629,62.250 1.596 C 62.067 1.564,61.542 1.445,61.083 1.332 C 60.625 1.219,60.063 1.104,59.833 1.077 C 59.604 1.050,58.929 0.939,58.333 0.832 C 57.008 0.593,56.773 0.571,53.333 0.353 C 50.321 0.162,50.304 0.162,47.417 0.349 M50.068 5.875 C 50.285 7.954,50.520 11.369,50.450 11.438 C 50.409 11.480,50.095 11.560,49.754 11.615 C 48.953 11.745,48.839 11.558,48.836 10.106 C 48.833 9.001,48.820 8.965,48.458 9.062 C 48.252 9.117,47.664 9.163,47.153 9.164 L 46.222 9.167 46.298 10.476 L 46.373 11.784 45.664 11.898 C 44.765 12.041,44.855 12.245,44.668 9.651 C 44.579 8.422,44.460 6.989,44.404 6.465 C 44.306 5.554,44.320 5.510,44.718 5.410 C 45.735 5.155,45.912 5.317,45.966 6.550 C 46.024 7.883,46.072 7.918,47.576 7.757 L 48.645 7.642 48.547 6.472 C 48.437 5.164,48.534 5.007,49.446 5.003 C 49.963 5.000,49.978 5.021,50.068 5.875 M55.280 5.331 C 55.886 5.334,55.931 5.454,57.250 10.583 C 57.368 11.042,57.518 11.548,57.583 11.708 C 57.687 11.964,57.596 12.000,56.854 12.000 L 56.005 12.000 55.821 11.271 C 55.644 10.568,55.610 10.538,54.879 10.437 C 53.495 10.248,53.406 10.276,53.122 11.000 C 52.870 11.641,52.831 11.667,52.107 11.667 C 51.129 11.667,51.115 11.617,51.730 10.315 C 52.016 9.708,52.661 8.298,53.163 7.180 C 53.958 5.408,54.119 5.159,54.413 5.238 C 54.598 5.288,54.988 5.330,55.280 5.331 M42.385 5.958 C 42.424 6.027,42.507 6.365,42.569 6.708 L 42.682 7.333 41.741 7.333 C 39.994 7.333,39.083 8.957,39.992 10.448 C 40.591 11.431,41.971 11.620,42.999 10.860 L 43.464 10.517 43.639 11.206 C 43.876 12.140,43.382 12.486,41.401 12.773 C 38.287 13.224,36.771 8.494,39.429 6.623 C 40.228 6.061,42.192 5.619,42.385 5.958 M61.129 6.407 C 61.186 6.464,60.985 7.605,60.683 8.944 C 60.073 11.648,60.058 11.578,61.264 11.760 C 62.274 11.913,62.396 12.032,62.262 12.746 C 62.175 13.209,62.083 13.337,61.888 13.262 C 61.746 13.208,60.907 13.001,60.023 12.802 C 59.140 12.604,58.387 12.419,58.351 12.391 C 58.316 12.364,58.408 11.834,58.557 11.213 C 58.706 10.591,59.019 9.258,59.252 8.250 C 59.812 5.826,59.710 6.007,60.419 6.167 C 60.753 6.243,61.073 6.351,61.129 6.407 M54.635 7.167 C 54.580 7.304,54.381 7.803,54.193 8.276 L 53.851 9.134 54.597 9.194 L 55.342 9.253 55.233 8.755 C 54.969 7.555,54.732 6.924,54.635 7.167 M65.997 7.768 C 66.365 7.916,66.667 8.056,66.667 8.080 C 66.667 8.103,66.254 9.164,65.751 10.436 C 64.646 13.226,64.641 12.885,65.792 13.340 C 67.026 13.828,67.018 13.818,66.738 14.476 C 66.554 14.912,66.436 15.008,66.209 14.911 C 66.048 14.843,65.221 14.522,64.370 14.199 C 63.520 13.875,62.845 13.560,62.870 13.499 C 62.896 13.438,63.436 12.063,64.072 10.444 C 64.707 8.825,65.249 7.500,65.277 7.500 C 65.304 7.500,65.628 7.621,65.997 7.768 M34.000 11.459 C 34.779 12.994,35.440 14.302,35.469 14.366 C 35.498 14.430,35.213 14.639,34.836 14.832 L 34.151 15.182 31.950 13.938 C 30.740 13.254,29.735 12.710,29.716 12.728 C 29.698 12.747,30.089 13.547,30.586 14.506 C 31.082 15.465,31.491 16.330,31.494 16.427 C 31.500 16.591,30.346 17.243,30.250 17.132 C 30.177 17.049,27.591 11.934,27.462 11.621 C 27.366 11.387,27.491 11.252,28.063 10.974 L 28.785 10.624 29.934 11.261 C 30.566 11.612,31.560 12.188,32.142 12.541 C 32.724 12.894,33.173 13.123,33.140 13.050 C 33.107 12.977,32.687 12.149,32.207 11.211 C 31.195 9.236,31.242 8.829,32.500 8.678 C 32.546 8.672,33.221 9.924,34.000 11.459 M73.500 11.435 C 73.500 11.542,73.365 11.797,73.199 12.001 L 72.899 12.372 72.038 11.936 C 70.979 11.399,70.933 11.399,70.693 11.925 C 70.401 12.567,70.435 12.628,71.333 13.083 C 72.277 13.562,72.253 13.516,71.912 14.175 L 71.658 14.668 70.834 14.251 C 70.382 14.021,69.952 13.834,69.881 13.834 C 69.748 13.835,69.118 14.845,69.203 14.919 C 69.229 14.942,69.720 15.196,70.295 15.484 C 71.273 15.975,71.328 16.032,71.148 16.379 C 70.741 17.164,70.689 17.175,69.760 16.672 C 69.275 16.410,68.498 16.003,68.034 15.767 L 67.189 15.339 67.778 14.211 C 68.103 13.591,68.776 12.273,69.273 11.283 L 70.179 9.482 71.839 10.361 C 72.753 10.845,73.500 11.328,73.500 11.435 M76.322 12.984 L 76.895 13.458 76.701 15.844 C 76.594 17.155,76.530 18.252,76.559 18.281 C 76.588 18.310,77.162 17.625,77.834 16.760 C 79.131 15.091,79.212 15.054,79.899 15.813 C 80.206 16.154,80.196 16.175,79.014 17.672 C 78.356 18.505,77.472 19.632,77.049 20.176 C 76.159 21.322,76.245 21.292,75.530 20.698 L 74.976 20.239 75.156 18.161 C 75.255 17.018,75.379 15.824,75.432 15.506 C 75.518 14.989,75.387 15.110,74.164 16.673 C 73.414 17.632,72.784 18.434,72.764 18.455 C 72.745 18.476,72.477 18.283,72.170 18.026 L 71.611 17.559 72.431 16.488 C 74.080 14.335,75.566 12.500,75.657 12.504 C 75.708 12.507,76.008 12.723,76.322 12.984 M26.465 14.142 C 28.029 15.255,28.630 17.417,27.747 18.757 C 25.941 21.501,22.103 20.537,21.570 17.206 C 21.168 14.691,24.398 12.670,26.465 14.142 M54.860 14.929 C 74.445 17.428,88.405 34.938,86.354 54.435 C 83.790 78.807,58.115 93.540,35.667 83.519 C 22.732 77.746,14.593 65.061,14.586 50.667 C 14.575 28.978,33.481 12.202,54.860 14.929 M24.065 15.163 C 22.825 15.664,22.743 17.045,23.877 18.287 C 24.937 19.446,26.667 18.877,26.667 17.369 C 26.667 16.525,25.116 14.864,24.464 15.011 C 24.438 15.016,24.258 15.085,24.065 15.163 M20.139 17.553 L 20.502 17.940 20.069 18.345 C 19.191 19.166,19.196 19.180,21.015 20.948 C 21.940 21.847,22.783 22.635,22.887 22.700 C 23.014 22.779,22.913 22.999,22.580 23.366 C 22.307 23.668,22.062 23.949,22.037 23.990 C 22.011 24.031,21.449 23.543,20.787 22.905 C 20.125 22.268,19.265 21.450,18.875 21.089 L 18.167 20.432 17.531 21.053 L 16.894 21.675 16.407 21.256 L 15.920 20.838 17.188 19.544 C 17.886 18.832,18.666 18.006,18.922 17.708 C 19.477 17.064,19.657 17.041,20.139 17.553 M82.892 18.896 C 83.606 19.194,84.560 20.038,85.014 20.773 L 85.374 21.356 84.906 21.844 C 84.316 22.460,84.312 22.460,83.942 21.657 C 83.079 19.785,80.845 19.704,79.911 21.512 C 79.252 22.786,80.362 24.323,81.357 23.513 L 81.750 23.193 81.291 22.712 L 80.832 22.230 81.302 21.780 L 81.771 21.330 82.707 22.390 L 83.643 23.449 82.504 24.580 C 81.158 25.915,81.006 25.922,79.662 24.714 C 76.647 22.003,79.224 17.363,82.892 18.896 M15.684 22.179 L 16.170 22.525 15.638 23.265 C 15.320 23.707,15.169 24.062,15.261 24.146 C 15.347 24.224,16.298 24.903,17.375 25.656 C 19.574 27.193,19.483 27.063,18.871 27.786 L 18.417 28.321 16.333 26.823 L 14.250 25.325 13.884 25.745 C 13.682 25.976,13.443 26.296,13.352 26.457 C 13.158 26.801,12.235 26.380,12.267 25.962 C 12.283 25.742,14.990 21.833,15.125 21.833 C 15.165 21.833,15.417 21.989,15.684 22.179 M88.115 24.838 L 89.146 26.325 88.635 26.689 L 88.125 27.053 87.808 26.651 C 87.635 26.431,87.365 26.044,87.210 25.792 C 86.882 25.258,86.796 25.241,86.244 25.603 C 85.720 25.946,85.725 26.004,86.373 26.923 L 86.913 27.689 86.498 28.007 C 85.910 28.459,85.807 28.424,85.276 27.583 C 84.735 26.726,84.662 26.703,84.005 27.189 L 83.523 27.546 84.178 28.432 C 84.949 29.476,84.951 29.490,84.385 29.903 L 83.947 30.223 83.557 29.736 C 82.865 28.873,81.610 27.001,81.681 26.939 C 81.786 26.846,85.859 23.951,86.333 23.632 C 86.962 23.208,87.005 23.238,88.115 24.838 M12.866 28.266 C 16.049 29.865,16.663 30.623,16.088 32.248 C 15.199 34.764,14.128 34.999,10.917 33.385 C 8.636 32.239,8.714 32.319,9.077 31.515 L 9.376 30.852 11.352 31.843 C 13.832 33.086,14.468 33.100,14.764 31.921 C 14.933 31.248,14.576 30.920,12.509 29.852 C 11.404 29.281,10.500 28.789,10.500 28.759 C 10.500 28.584,11.157 27.500,11.263 27.500 C 11.305 27.500,12.027 27.845,12.866 28.266 M30.462 29.451 C 30.907 30.166,31.895 31.762,32.659 33.000 C 34.616 36.170,34.610 36.048,32.615 32.177 C 31.059 29.157,30.791 28.736,30.257 28.461 L 29.654 28.152 30.462 29.451 M90.972 29.628 C 91.783 31.334,91.837 31.939,91.240 32.648 C 90.695 33.296,89.842 33.478,89.074 33.112 C 88.536 32.856,88.514 32.859,88.405 33.215 C 88.240 33.750,87.008 35.833,86.857 35.833 C 86.697 35.833,86.167 34.742,86.167 34.414 C 86.167 34.282,86.419 33.778,86.727 33.295 C 87.855 31.526,87.696 31.070,86.213 31.823 C 84.972 32.454,85.073 32.463,84.671 31.675 L 84.335 31.017 87.126 29.599 C 90.518 27.876,90.139 27.873,90.972 29.628 M89.042 30.377 C 88.225 30.787,88.218 30.808,88.679 31.394 C 89.410 32.324,90.555 31.686,90.102 30.601 C 89.963 30.271,89.828 30.005,89.800 30.010 C 89.773 30.016,89.431 30.181,89.042 30.377 M56.829 33.826 C 57.313 34.729,56.647 35.831,55.615 35.833 C 55.439 35.833,55.361 35.909,55.427 36.016 C 55.745 36.532,57.833 35.765,57.833 35.131 C 57.833 34.730,57.201 33.718,56.871 33.590 C 56.711 33.527,56.700 33.585,56.829 33.826 M8.808 34.516 C 9.402 34.723,9.453 34.860,9.058 35.188 C 8.395 35.737,8.164 36.898,8.664 37.165 C 8.945 37.316,9.138 37.209,9.976 36.439 C 12.443 34.171,14.708 36.007,13.266 39.105 C 12.769 40.170,12.622 40.260,11.816 39.994 C 11.078 39.751,11.033 39.664,11.495 39.375 C 11.971 39.078,12.361 38.227,12.301 37.616 C 12.223 36.808,11.782 36.852,10.871 37.759 C 8.261 40.357,5.747 37.886,7.769 34.708 C 8.043 34.278,8.097 34.268,8.808 34.516 M92.662 34.747 C 93.436 35.148,93.884 35.942,94.240 37.548 C 94.331 37.961,94.277 38.040,93.760 38.256 C 92.959 38.591,92.881 38.569,92.960 38.030 C 93.044 37.461,92.615 36.367,92.255 36.229 C 91.898 36.092,91.500 36.461,91.500 36.929 C 91.500 40.585,88.170 41.087,87.253 37.569 C 86.908 36.245,86.917 36.206,87.604 35.919 C 88.458 35.562,88.516 35.590,88.403 36.300 C 88.288 37.019,88.662 38.111,89.078 38.271 C 89.521 38.441,89.808 38.015,89.915 37.030 C 90.139 34.951,91.258 34.021,92.662 34.747 M57.864 41.115 C 58.294 41.556,58.837 42.254,59.071 42.667 C 59.428 43.297,59.496 43.352,59.498 43.011 C 59.503 41.999,58.654 40.904,57.541 40.486 C 57.139 40.335,57.179 40.412,57.864 41.115 M44.215 44.680 C 48.287 46.762,51.977 47.084,54.917 45.613 C 55.916 45.114,55.916 45.113,55.426 44.979 C 55.036 44.872,54.713 44.954,53.859 45.374 C 51.955 46.312,48.660 46.002,44.481 44.493 C 42.695 43.848,42.649 43.880,44.215 44.680 M7.683 54.375 L 8.109 55.750 9.680 55.833 L 11.250 55.917 10.042 56.805 C 9.377 57.294,8.833 57.749,8.833 57.818 C 8.833 57.886,9.022 58.496,9.252 59.173 C 9.806 60.801,9.769 60.831,8.416 59.845 C 7.015 58.823,7.240 58.825,5.880 59.824 C 4.517 60.825,4.532 60.838,5.067 59.186 C 5.305 58.450,5.500 57.814,5.500 57.771 C 5.500 57.728,4.956 57.294,4.292 56.805 L 3.083 55.917 4.617 55.869 L 6.150 55.821 6.609 54.411 C 7.172 52.684,7.159 52.684,7.683 54.375 M93.183 54.375 L 93.599 55.750 95.174 55.833 L 96.750 55.917 95.542 56.805 C 94.877 57.294,94.333 57.749,94.333 57.818 C 94.333 57.886,94.522 58.496,94.752 59.173 C 95.302 60.791,95.276 60.812,93.936 59.835 C 92.543 58.820,92.724 58.819,91.371 59.843 C 90.068 60.830,90.029 60.797,90.581 59.173 C 90.812 58.496,91.000 57.886,91.000 57.818 C 91.000 57.749,90.456 57.294,89.792 56.805 L 88.583 55.917 90.117 55.869 L 91.650 55.821 92.109 54.411 C 92.672 52.682,92.671 52.682,93.183 54.375 M38.143 57.681 C 37.880 57.913,37.842 57.999,38.029 57.941 C 38.884 57.673,40.382 58.569,41.217 59.845 C 41.673 60.543,41.828 60.661,42.292 60.664 C 42.929 60.667,42.958 60.544,42.473 59.897 C 40.804 57.674,39.125 56.814,38.143 57.681 M53.500 58.739 C 53.500 59.281,55.690 62.874,56.757 64.083 L 57.198 64.583 56.842 64.000 C 56.097 62.779,55.172 60.837,54.989 60.108 C 54.829 59.474,53.500 58.252,53.500 58.739 M40.073 63.153 C 40.122 63.390,40.502 65.496,40.918 67.833 C 41.864 73.141,41.791 72.833,42.097 72.833 C 42.384 72.833,42.403 73.063,41.746 68.667 C 41.533 67.246,41.267 65.359,41.153 64.473 C 40.949 62.885,40.940 62.862,40.466 62.793 C 40.026 62.728,39.993 62.758,40.073 63.153 M41.833 63.075 C 41.833 63.293,41.984 64.144,42.737 68.167 C 42.866 68.854,43.103 70.185,43.264 71.125 C 43.464 72.285,43.629 72.833,43.779 72.833 C 44.100 72.833,43.883 70.773,42.918 64.659 C 42.780 63.785,42.667 63.016,42.667 62.951 C 42.667 62.886,42.479 62.833,42.250 62.833 C 41.997 62.833,41.833 62.928,41.833 63.075 M59.836 66.515 C 58.034 67.348,57.635 67.933,58.386 68.638 C 58.848 69.072,59.000 69.093,59.000 68.723 C 59.000 68.219,59.817 67.041,60.530 66.516 C 61.404 65.874,61.223 65.873,59.836 66.515 M62.906 69.351 C 62.766 69.578,62.500 69.449,66.138 70.920 C 67.910 71.637,69.556 72.377,69.794 72.565 L 70.229 72.906 69.906 72.357 C 69.455 71.589,69.536 71.634,66.581 70.527 C 65.116 69.979,63.713 69.451,63.464 69.354 C 63.155 69.235,62.978 69.234,62.906 69.351 M78.673 79.586 C 79.197 79.857,79.412 80.387,79.302 81.135 C 79.240 81.560,79.273 81.593,79.698 81.531 C 82.016 81.191,82.344 83.641,80.219 85.418 C 79.686 85.863,79.126 86.332,78.974 86.459 C 78.728 86.665,78.472 86.426,76.580 84.230 L 74.462 81.771 75.439 80.891 C 77.023 79.466,77.818 79.145,78.673 79.586 M24.643 80.155 C 25.246 80.462,26.500 81.688,26.500 81.969 C 26.500 82.044,26.291 82.305,26.035 82.550 L 25.569 82.996 25.268 82.485 C 24.501 81.186,23.004 80.957,21.980 81.980 C 20.847 83.114,21.139 84.468,22.685 85.255 C 22.996 85.413,23.282 85.571,23.321 85.606 C 23.360 85.641,23.181 85.891,22.923 86.160 L 22.454 86.650 21.852 86.339 C 21.101 85.951,20.077 84.902,19.843 84.281 C 18.847 81.634,22.085 78.850,24.643 80.155 M76.830 81.303 L 76.437 81.621 76.843 82.134 C 77.315 82.729,77.441 82.726,77.902 82.108 C 78.508 81.296,77.642 80.645,76.830 81.303 M29.090 83.505 C 30.961 84.767,31.278 85.748,30.171 86.855 C 29.801 87.224,29.538 87.333,29.017 87.333 C 28.361 87.333,28.346 87.346,28.504 87.761 C 28.722 88.335,28.716 90.833,28.496 90.833 C 28.403 90.833,28.034 90.640,27.677 90.404 L 27.028 89.974 27.119 88.767 C 27.275 86.702,26.834 86.335,25.895 87.750 C 25.208 88.785,25.110 88.820,24.427 88.274 L 23.938 87.882 25.677 85.193 C 26.719 83.583,27.500 82.535,27.624 82.580 C 27.739 82.622,28.398 83.038,29.090 83.505 M75.746 86.265 C 76.410 87.664,75.789 89.158,74.251 89.856 C 72.492 90.655,71.436 89.834,69.132 85.877 L 68.846 85.387 69.505 85.017 L 70.164 84.647 71.276 86.365 C 72.841 88.784,73.283 89.085,74.114 88.304 C 74.706 87.748,74.590 87.252,73.441 85.430 C 72.858 84.506,72.330 83.659,72.268 83.548 C 72.199 83.424,72.399 83.189,72.786 82.942 L 73.417 82.538 74.454 84.133 C 75.025 85.011,75.606 85.970,75.746 86.265 M78.551 83.241 L 78.083 83.648 78.604 84.175 C 79.172 84.749,79.843 84.591,80.086 83.825 C 80.374 82.919,79.362 82.534,78.551 83.241 M27.672 85.026 C 27.298 85.692,27.295 85.726,27.590 85.942 C 28.256 86.429,29.167 86.080,29.167 85.336 C 29.167 85.142,28.366 84.333,28.173 84.333 C 28.112 84.333,27.886 84.645,27.672 85.026 M33.546 86.020 C 34.117 86.306,34.608 86.561,34.637 86.588 C 34.823 86.754,34.115 87.673,33.862 87.593 C 33.503 87.479,31.682 90.970,31.998 91.166 C 32.234 91.311,32.040 92.162,31.746 92.275 C 31.492 92.372,29.500 91.394,29.500 91.172 C 29.500 90.748,29.909 90.168,30.153 90.245 C 30.531 90.365,32.283 86.924,32.011 86.596 C 31.808 86.352,32.084 85.500,32.365 85.500 C 32.444 85.500,32.976 85.734,33.546 86.020 M67.239 88.880 C 68.461 91.603,68.275 91.423,69.347 90.924 C 69.844 90.692,70.335 90.503,70.438 90.502 C 70.634 90.500,71.102 91.454,70.970 91.586 C 70.858 91.698,67.451 93.176,67.419 93.126 C 67.236 92.837,64.817 87.296,64.859 87.260 C 65.032 87.112,65.941 86.680,66.083 86.678 C 66.175 86.677,66.695 87.668,67.239 88.880 M38.861 88.028 C 39.680 88.380,39.699 88.404,39.607 88.972 C 39.467 89.831,39.292 89.909,38.583 89.427 C 37.414 88.634,36.093 89.004,35.563 90.273 C 34.913 91.829,35.798 93.024,37.604 93.027 L 38.291 93.028 38.126 93.675 C 37.632 95.622,33.667 93.524,33.667 91.315 C 33.667 88.499,36.212 86.888,38.861 88.028 M63.971 87.958 C 64.449 88.890,64.379 89.167,63.664 89.167 C 62.139 89.167,61.209 90.064,61.383 91.367 C 61.622 93.149,63.286 93.788,64.730 92.652 L 65.166 92.310 65.321 92.717 C 65.667 93.627,65.622 93.730,64.678 94.208 C 62.158 95.485,59.808 94.061,59.781 91.243 C 59.766 89.570,60.793 88.331,62.549 87.905 C 63.724 87.621,63.799 87.623,63.971 87.958 M42.283 89.061 C 42.332 89.110,42.257 89.770,42.118 90.527 L 41.864 91.906 43.057 90.632 L 44.250 89.358 45.070 89.512 C 45.520 89.597,45.915 89.693,45.948 89.725 C 45.980 89.757,45.404 90.358,44.670 91.060 C 43.935 91.762,43.333 92.367,43.333 92.404 C 43.333 92.441,43.708 93.264,44.167 94.234 C 45.168 96.351,45.157 96.195,44.292 96.062 C 43.203 95.896,43.097 95.790,42.420 94.175 C 41.662 92.366,41.736 92.388,41.492 93.897 C 41.232 95.511,41.216 95.532,40.409 95.312 C 40.047 95.213,39.733 95.116,39.712 95.097 C 39.690 95.078,39.934 93.679,40.253 91.989 C 40.571 90.299,40.832 88.888,40.833 88.853 C 40.834 88.762,42.177 88.954,42.283 89.061 M56.500 90.167 L 56.500 90.833 55.644 90.833 L 54.788 90.833 54.902 92.958 C 54.964 94.127,55.056 95.316,55.105 95.601 C 55.192 96.100,55.169 96.124,54.504 96.230 C 53.552 96.382,53.560 96.395,53.433 94.379 C 53.370 93.392,53.276 92.233,53.223 91.806 L 53.127 91.028 52.230 91.121 L 51.333 91.213 51.333 90.542 L 51.333 89.870 53.375 89.711 C 56.812 89.442,56.500 89.396,56.500 90.167 M50.500 90.510 L 50.500 91.167 49.333 91.167 L 48.167 91.167 48.167 91.732 C 48.167 92.384,48.358 92.500,49.430 92.500 C 50.161 92.500,50.167 92.505,50.167 93.083 L 50.167 93.667 49.167 93.667 L 48.167 93.667 48.167 94.316 C 48.167 95.079,48.315 95.167,49.607 95.167 L 50.520 95.167 50.468 95.792 C 50.438 96.165,50.333 96.410,50.208 96.400 C 50.094 96.391,49.201 96.372,48.224 96.358 L 46.448 96.333 46.563 93.142 C 46.700 89.309,46.431 89.740,48.650 89.802 L 50.500 89.854 50.500 90.510 " stroke="none" fill="#0b2c6f" fill-rule="evenodd"></path><path id="path1" d="M49.832 16.553 C 49.785 16.602,48.547 16.719,47.082 16.814 C 40.220 17.256,31.481 21.124,27.372 25.538 L 26.994 25.944 28.476 25.944 C 29.636 25.944,30.076 26.014,30.506 26.265 C 31.578 26.891,36.777 34.754,37.438 36.750 C 37.794 37.825,37.918 37.970,38.594 38.096 C 39.199 38.210,39.396 38.387,39.814 39.188 C 40.258 40.041,47.076 42.799,47.276 42.208 C 48.123 39.706,49.495 38.333,51.148 38.333 L 51.980 38.333 51.720 37.572 C 51.366 36.532,51.749 34.277,52.432 33.382 C 53.656 31.776,56.846 31.713,57.956 33.272 C 58.756 34.395,59.019 37.916,58.365 38.747 L 58.005 39.205 58.794 39.835 C 60.842 41.471,61.124 42.513,60.509 46.163 C 60.121 48.461,59.874 48.222,62.433 48.018 C 64.642 47.841,65.228 47.941,64.826 48.425 C 64.656 48.630,63.632 48.762,61.094 48.905 L 59.938 48.971 59.740 49.638 C 59.576 50.194,59.585 50.347,59.791 50.553 C 60.090 50.852,59.936 51.167,59.490 51.167 C 59.246 51.167,59.167 51.283,59.167 51.640 C 59.167 51.901,59.067 52.444,58.946 52.849 C 58.699 53.667,58.918 54.261,59.658 54.779 C 59.858 54.920,59.983 55.138,59.934 55.265 C 59.885 55.391,59.993 56.071,60.173 56.774 C 60.353 57.478,60.500 58.381,60.500 58.782 C 60.500 59.349,60.789 60.111,61.807 62.225 L 63.113 64.941 66.348 67.077 C 68.128 68.252,69.883 69.343,70.250 69.501 C 73.198 70.777,73.595 71.112,73.085 71.890 C 72.820 72.295,72.821 72.296,73.929 72.814 C 74.538 73.100,75.079 73.333,75.131 73.333 C 75.182 73.333,75.346 73.444,75.495 73.579 C 76.358 74.359,81.341 66.306,82.912 61.594 C 84.201 57.726,85.011 52.541,84.482 51.548 C 84.300 51.206,84.295 51.097,84.458 51.042 C 84.960 50.874,84.706 49.632,84.193 49.744 C 83.153 49.973,83.187 49.169,84.228 48.907 C 84.689 48.792,84.701 48.763,84.591 48.019 C 84.529 47.596,84.459 46.987,84.435 46.667 C 84.101 42.081,81.943 36.239,78.879 31.625 C 73.367 23.327,63.633 17.461,54.333 16.832 C 53.188 16.755,51.725 16.640,51.083 16.578 C 50.442 16.515,49.878 16.504,49.832 16.553 M25.460 27.437 C 20.763 32.398,17.052 40.380,16.598 46.500 C 16.560 47.004,16.478 47.721,16.414 48.093 C 16.299 48.764,16.303 48.771,16.982 49.038 C 17.863 49.384,17.797 49.925,16.892 49.778 C 16.337 49.688,16.333 49.692,16.333 50.344 C 16.333 50.705,16.408 51.000,16.500 51.000 C 16.739 51.000,16.706 51.626,16.463 51.707 C 15.916 51.889,16.932 57.990,18.089 61.469 C 22.174 73.748,32.252 82.228,45.500 84.533 C 47.175 84.824,53.825 84.824,55.500 84.533 C 62.172 83.372,67.191 81.125,72.301 77.011 C 73.988 75.653,74.416 75.150,73.310 75.824 C 72.488 76.325,71.746 76.271,71.141 75.667 C 70.866 75.392,70.469 75.167,70.258 75.167 C 69.892 75.167,68.926 74.266,68.333 73.373 C 67.946 72.789,63.144 70.889,61.709 70.753 C 57.509 70.353,55.503 68.843,57.023 67.226 L 57.374 66.852 54.966 63.801 C 53.642 62.123,52.452 60.760,52.321 60.771 C 52.190 60.783,51.521 60.915,50.833 61.064 C 50.146 61.214,48.346 61.423,46.833 61.530 C 45.321 61.637,44.066 61.735,44.046 61.747 C 44.025 61.760,44.192 62.639,44.417 63.702 C 44.908 66.018,45.329 69.446,45.334 71.167 C 45.337 71.954,45.428 72.571,45.581 72.833 C 46.411 74.255,46.425 74.744,45.651 75.293 C 45.488 75.409,45.331 75.709,45.303 75.960 L 45.250 76.417 43.048 76.463 C 39.864 76.530,39.069 76.135,39.858 74.876 C 40.578 73.727,40.290 70.128,39.154 66.083 C 38.870 65.075,38.599 64.046,38.551 63.797 C 38.503 63.548,38.322 63.299,38.148 63.244 C 37.667 63.092,37.455 62.545,37.573 61.761 C 37.637 61.332,37.579 60.679,37.422 60.078 C 36.613 56.969,37.719 55.678,40.559 56.417 C 41.515 56.666,41.527 56.665,42.302 56.209 L 43.083 55.750 42.032 55.609 C 41.187 55.496,40.992 55.415,41.034 55.193 C 41.095 54.877,43.587 54.687,43.876 54.976 C 43.975 55.075,44.415 54.958,45.058 54.662 C 45.622 54.403,46.383 54.055,46.750 53.890 L 47.417 53.589 45.752 53.503 C 44.005 53.412,43.312 53.012,44.420 52.734 C 45.052 52.576,48.656 52.824,49.020 53.051 C 49.514 53.360,49.709 53.015,49.519 52.169 C 49.430 51.774,49.267 51.395,49.156 51.327 C 49.030 51.249,48.997 51.036,49.066 50.758 C 49.128 50.513,49.131 50.062,49.073 49.754 L 48.968 49.195 46.613 49.176 C 44.219 49.157,43.872 49.075,44.063 48.576 C 44.158 48.327,44.436 48.303,46.505 48.360 C 48.418 48.412,48.824 48.383,48.753 48.198 C 48.706 48.074,48.667 47.832,48.667 47.660 C 48.667 47.095,47.489 46.878,46.451 47.251 C 45.398 47.630,43.956 47.637,42.528 47.271 C 41.948 47.122,40.997 47.000,40.414 47.000 C 39.197 47.000,38.539 46.798,38.382 46.378 C 38.219 45.940,37.624 45.115,37.292 44.866 C 37.131 44.746,37.000 44.483,37.000 44.281 C 37.000 44.079,36.850 43.820,36.667 43.705 C 36.483 43.591,36.333 43.388,36.333 43.254 C 36.333 43.121,36.192 42.936,36.019 42.844 C 35.846 42.751,35.657 42.484,35.598 42.250 C 35.540 42.016,35.343 41.677,35.162 41.496 C 34.981 41.315,34.833 40.997,34.833 40.790 C 34.833 40.583,34.675 40.314,34.480 40.193 C 34.196 40.015,34.145 39.862,34.220 39.403 C 34.271 39.090,34.243 38.833,34.159 38.833 C 34.075 38.833,33.806 38.440,33.563 37.958 C 32.459 35.779,29.571 31.294,27.578 28.667 C 26.918 27.796,26.345 26.979,26.306 26.851 C 26.258 26.697,25.975 26.893,25.460 27.437 M23.100 46.198 C 24.986 46.566,25.435 46.798,25.036 47.198 C 24.864 47.369,21.644 46.840,20.719 46.488 C 20.100 46.253,20.323 45.561,20.955 45.757 C 21.068 45.792,22.033 45.990,23.100 46.198 M80.592 45.848 C 80.922 46.381,76.535 47.447,75.835 47.004 C 75.384 46.719,75.905 46.471,77.780 46.078 C 79.860 45.642,80.436 45.595,80.592 45.848 M72.750 47.417 C 72.750 47.846,68.426 48.497,68.052 48.124 C 67.657 47.728,68.094 47.541,70.000 47.289 C 72.419 46.968,72.750 46.984,72.750 47.417 M19.059 47.432 C 20.578 47.824,21.061 48.703,19.598 48.412 C 17.971 48.089,17.226 47.663,17.611 47.278 C 17.769 47.120,17.912 47.135,19.059 47.432 M30.910 47.418 C 32.007 47.555,32.926 47.667,32.952 47.667 C 32.978 47.667,33.000 47.817,33.000 48.000 C 33.000 48.399,32.365 48.435,30.152 48.158 C 28.378 47.937,27.888 47.752,28.170 47.413 C 28.420 47.111,28.449 47.111,30.910 47.418 M83.456 47.447 C 83.599 47.883,81.008 48.574,80.633 48.200 C 80.348 47.915,80.628 47.688,81.603 47.416 C 82.549 47.152,83.363 47.166,83.456 47.447 M40.718 48.275 C 40.889 48.324,40.995 48.482,40.963 48.639 C 40.914 48.885,40.650 48.910,38.662 48.861 C 36.404 48.806,35.791 48.640,36.085 48.164 C 36.207 47.966,39.958 48.057,40.718 48.275 M79.403 48.101 C 79.874 48.282,79.682 48.650,79.024 48.827 C 77.657 49.195,76.848 49.232,76.733 48.932 C 76.586 48.549,76.680 48.487,77.786 48.245 C 78.978 47.984,79.076 47.976,79.403 48.101 M23.071 48.359 C 24.016 48.549,24.375 48.858,24.040 49.193 C 23.923 49.310,23.560 49.303,22.893 49.171 C 21.431 48.881,21.333 48.838,21.333 48.489 C 21.333 48.105,21.678 48.080,23.071 48.359 M75.789 49.220 C 75.610 49.766,72.917 49.952,72.917 49.418 C 72.917 49.136,73.089 49.061,74.083 48.909 C 75.267 48.729,75.911 48.846,75.789 49.220 M27.542 49.190 C 28.166 49.346,28.375 49.718,27.932 49.888 C 27.507 50.051,25.312 49.639,25.212 49.378 C 25.006 48.841,25.869 48.771,27.542 49.190 M71.780 49.600 C 71.967 50.089,69.396 50.629,68.959 50.192 C 68.660 49.893,69.126 49.524,69.888 49.455 C 71.447 49.313,71.676 49.331,71.780 49.600 M31.075 49.608 C 31.860 49.716,32.200 50.033,31.877 50.356 C 31.652 50.582,29.326 50.257,29.152 49.976 C 28.857 49.499,29.449 49.385,31.075 49.608 M35.636 50.100 C 35.892 50.152,36.003 50.275,35.964 50.464 C 35.897 50.792,33.437 50.837,33.117 50.517 C 32.576 49.976,33.932 49.752,35.636 50.100 M67.833 50.147 C 67.833 50.536,67.401 50.661,66.052 50.664 C 65.017 50.667,64.757 50.559,64.969 50.217 C 65.257 49.754,67.833 49.691,67.833 50.147 M24.630 50.825 C 25.061 50.834,25.303 51.264,25.030 51.536 C 24.671 51.895,20.333 50.877,20.333 50.433 C 20.333 50.047,20.806 50.049,22.583 50.446 C 23.500 50.650,24.421 50.821,24.630 50.825 M80.599 50.192 C 80.805 50.526,80.220 50.776,78.375 51.143 C 76.005 51.615,75.208 51.559,75.805 50.961 C 76.228 50.538,80.399 49.869,80.599 50.192 M39.792 50.425 C 40.087 50.516,40.050 50.945,39.737 51.065 C 38.808 51.422,36.490 50.752,37.178 50.326 C 37.384 50.199,39.290 50.271,39.792 50.425 M63.932 50.359 C 64.182 50.763,63.453 51.014,62.168 50.965 C 61.192 50.927,60.917 50.862,60.917 50.668 C 60.917 50.235,63.680 49.951,63.932 50.359 M43.917 50.917 C 43.917 51.543,41.151 51.409,41.029 50.778 C 40.979 50.516,41.119 50.491,42.445 50.535 C 43.789 50.579,43.917 50.612,43.917 50.917 M47.744 50.725 C 48.308 51.137,47.877 51.333,46.407 51.333 C 45.131 51.333,45.000 51.303,45.000 51.014 C 45.000 50.479,47.104 50.257,47.744 50.725 M72.777 51.595 C 72.944 52.029,72.671 52.124,70.431 52.409 C 68.666 52.633,68.239 52.644,68.062 52.466 C 67.662 52.067,68.073 51.890,70.000 51.631 C 72.535 51.291,72.660 51.290,72.777 51.595 M19.044 51.777 C 20.307 52.115,20.631 52.350,20.258 52.660 C 20.046 52.836,19.788 52.819,18.814 52.567 C 17.638 52.262,17.236 51.936,17.684 51.652 C 17.976 51.467,17.834 51.454,19.044 51.777 M30.697 51.737 C 32.773 51.982,33.000 52.050,33.000 52.427 C 33.000 52.722,32.148 52.741,30.152 52.492 C 28.378 52.270,27.888 52.086,28.170 51.746 C 28.415 51.451,28.282 51.452,30.697 51.737 M83.417 51.833 C 83.417 52.334,80.845 52.924,80.574 52.485 C 80.406 52.213,80.690 52.012,81.598 51.761 C 82.646 51.470,83.417 51.501,83.417 51.833 M64.803 52.381 C 65.175 52.829,64.724 52.983,62.580 53.141 C 60.283 53.311,59.564 53.198,60.023 52.739 C 60.219 52.543,61.590 52.366,64.271 52.190 C 64.466 52.177,64.706 52.263,64.803 52.381 M40.542 52.606 C 41.002 52.694,41.155 53.051,40.820 53.258 C 40.586 53.403,36.446 53.173,36.166 53.000 C 35.206 52.406,38.112 52.145,40.542 52.606 M79.511 52.596 C 79.809 52.956,79.550 53.098,78.123 53.353 C 76.215 53.694,76.054 52.993,77.946 52.580 C 79.248 52.295,79.261 52.295,79.511 52.596 M22.931 52.689 C 24.104 52.915,24.478 53.172,24.094 53.491 C 23.593 53.907,21.196 53.265,21.387 52.767 C 21.509 52.449,21.645 52.442,22.931 52.689 M75.833 53.510 C 75.833 53.969,73.064 54.361,72.897 53.926 C 72.747 53.534,72.868 53.468,74.125 53.251 C 75.221 53.062,75.833 53.155,75.833 53.510 M26.594 53.343 C 27.972 53.588,28.167 53.658,28.167 53.910 C 28.167 54.279,27.699 54.342,26.472 54.139 C 25.203 53.930,24.701 53.375,25.594 53.169 C 25.600 53.168,26.050 53.246,26.594 53.343 M71.780 53.933 C 71.967 54.423,69.396 54.962,68.959 54.525 C 68.647 54.214,69.140 53.855,69.972 53.789 C 71.605 53.659,71.676 53.664,71.780 53.933 M31.897 54.165 C 32.341 54.604,31.841 54.843,30.712 54.732 C 29.375 54.601,28.973 54.432,29.115 54.060 C 29.227 53.768,31.586 53.858,31.897 54.165 M35.636 54.433 C 35.892 54.485,36.003 54.608,35.964 54.798 C 35.897 55.125,33.437 55.171,33.117 54.850 C 32.576 54.309,33.932 54.085,35.636 54.433 M67.833 54.487 C 67.833 54.847,67.416 54.975,66.072 55.025 C 65.127 55.061,64.804 54.936,64.938 54.587 C 65.123 54.106,67.833 54.012,67.833 54.487 M39.109 54.667 C 39.865 54.667,40.233 55.001,39.873 55.360 C 39.608 55.626,37.164 55.354,37.046 55.046 C 36.914 54.702,37.327 54.475,37.896 54.579 C 38.159 54.627,38.705 54.667,39.109 54.667 M63.932 54.692 C 64.182 55.097,63.453 55.347,62.168 55.298 C 61.192 55.261,60.917 55.195,60.917 55.002 C 60.917 54.568,63.680 54.284,63.932 54.692 " stroke="none" fill="#810607" fill-rule="evenodd"></path><path id="path2" d="M48.667 6.500 L 48.667 7.833 47.854 7.833 C 47.407 7.833,46.817 7.878,46.542 7.933 L 46.042 8.033 45.924 6.767 L 45.805 5.500 45.130 5.500 L 44.455 5.500 44.587 7.292 C 44.659 8.277,44.763 9.683,44.818 10.417 L 44.917 11.750 45.610 11.801 L 46.303 11.851 46.213 10.534 C 46.109 9.014,46.116 9.006,47.861 9.002 L 48.805 9.000 48.922 10.250 L 49.039 11.500 49.686 11.500 C 50.457 11.500,50.431 11.716,50.138 7.792 L 49.942 5.167 49.304 5.167 L 48.667 5.167 48.667 6.500 M52.717 8.355 C 51.966 10.033,51.366 11.417,51.384 11.430 C 51.402 11.443,51.725 11.501,52.103 11.559 L 52.789 11.664 53.079 10.904 C 53.285 10.365,53.441 10.172,53.615 10.239 C 53.750 10.291,54.266 10.333,54.761 10.333 L 55.662 10.333 55.846 11.064 C 56.018 11.748,56.074 11.803,56.704 11.903 C 57.610 12.048,57.613 12.268,56.651 8.732 C 55.647 5.041,55.894 5.511,54.898 5.396 L 54.083 5.303 52.717 8.355 M40.373 6.222 C 36.755 7.535,37.770 13.012,41.559 12.621 C 42.960 12.477,43.715 12.036,43.595 11.433 C 43.464 10.781,43.442 10.769,42.885 11.057 C 41.505 11.770,40.369 11.482,39.824 10.281 C 39.056 8.589,40.040 7.167,41.979 7.167 L 42.635 7.167 42.456 6.583 C 42.256 5.930,41.527 5.804,40.373 6.222 M59.750 6.535 C 59.699 6.745,59.372 8.132,59.024 9.618 L 58.391 12.319 60.219 12.748 C 61.224 12.983,62.066 13.155,62.090 13.130 C 62.580 12.614,62.194 12.079,61.167 11.849 C 60.571 11.716,60.063 11.594,60.038 11.578 C 60.014 11.562,60.259 10.402,60.583 9.000 C 60.908 7.598,61.153 6.434,61.128 6.414 C 60.764 6.117,59.832 6.198,59.750 6.535 M55.144 7.986 L 55.467 9.373 54.725 9.289 C 53.731 9.177,53.738 9.201,54.277 7.778 C 54.537 7.091,54.766 6.544,54.785 6.564 C 54.805 6.583,54.966 7.223,55.144 7.986 M65.242 7.847 C 64.883 8.427,63.021 13.421,63.125 13.523 C 63.271 13.668,66.364 14.863,66.418 14.795 C 66.503 14.690,66.833 14.016,66.833 13.947 C 66.833 13.906,66.402 13.702,65.875 13.493 C 65.348 13.285,64.862 13.068,64.795 13.011 C 64.728 12.953,65.084 11.868,65.586 10.598 C 66.662 7.879,66.634 8.079,65.975 7.850 C 65.337 7.627,65.377 7.627,65.242 7.847 M31.787 9.113 L 31.323 9.356 32.336 11.282 C 32.893 12.341,33.326 13.225,33.299 13.248 C 33.272 13.270,32.241 12.705,31.007 11.992 L 28.765 10.695 28.132 11.018 C 27.785 11.195,27.500 11.384,27.500 11.437 C 27.500 11.524,30.153 16.821,30.279 16.985 C 30.308 17.023,30.591 16.914,30.908 16.743 L 31.485 16.432 30.490 14.524 C 29.943 13.475,29.524 12.588,29.559 12.553 C 29.593 12.518,30.621 13.059,31.842 13.755 C 34.096 15.040,34.382 15.117,35.060 14.621 C 35.387 14.382,32.835 8.814,32.417 8.853 C 32.325 8.862,32.041 8.978,31.787 9.113 M68.757 12.487 L 67.333 15.330 68.985 16.159 L 70.636 16.988 70.901 16.583 C 71.047 16.361,71.167 16.153,71.167 16.122 C 71.167 16.091,70.686 15.809,70.099 15.496 L 69.031 14.925 69.352 14.296 C 69.728 13.559,69.860 13.540,70.750 14.088 C 71.585 14.602,71.606 14.601,71.904 14.025 L 72.150 13.549 71.314 13.158 C 70.272 12.670,70.175 12.200,70.938 11.347 C 70.972 11.309,71.418 11.497,71.930 11.764 C 72.882 12.262,73.333 12.152,73.333 11.422 C 73.333 11.285,71.465 10.223,70.298 9.697 C 70.233 9.667,69.540 10.923,68.757 12.487 M73.766 14.931 C 72.783 16.177,71.943 17.287,71.901 17.398 C 71.796 17.672,72.630 18.441,72.814 18.239 C 72.892 18.154,73.539 17.333,74.252 16.417 L 75.548 14.750 75.444 16.000 C 75.386 16.688,75.291 17.932,75.231 18.765 L 75.123 20.279 75.658 20.660 C 75.960 20.876,76.254 20.978,76.335 20.895 C 76.414 20.815,77.302 19.700,78.309 18.417 L 80.140 16.083 79.695 15.714 C 79.099 15.220,79.239 15.126,77.769 17.008 C 77.049 17.929,76.441 18.660,76.416 18.633 C 76.392 18.606,76.473 17.458,76.596 16.083 L 76.821 13.583 76.324 13.125 C 75.640 12.493,75.754 12.412,73.766 14.931 M23.667 13.932 C 21.460 14.888,20.994 17.319,22.654 19.210 C 24.520 21.335,28.048 20.069,28.048 17.274 C 28.048 14.885,25.664 13.067,23.667 13.932 M46.583 14.935 C 16.551 19.220,3.942 54.047,24.617 75.606 C 46.917 98.858,86.469 82.841,86.403 50.583 C 86.367 33.025,74.117 18.542,56.500 15.231 C 55.136 14.975,47.833 14.756,46.583 14.935 M25.507 15.375 C 26.226 15.859,26.912 17.163,26.763 17.758 C 26.352 19.393,24.195 19.338,23.309 17.669 C 22.372 15.907,23.912 14.300,25.507 15.375 M54.167 16.691 C 57.751 16.572,65.059 19.192,69.583 22.218 C 77.576 27.565,84.257 38.346,84.398 46.125 C 84.408 46.697,84.473 47.166,84.542 47.166 C 85.046 47.168,84.634 48.818,84.083 49.000 C 83.229 49.282,83.290 49.739,84.167 49.621 L 84.833 49.532 84.833 50.206 C 84.833 50.650,84.734 50.957,84.542 51.107 C 84.264 51.322,84.265 51.342,84.549 51.512 C 85.556 52.115,83.574 60.974,81.438 65.417 C 79.779 68.869,75.500 74.942,75.500 73.846 C 75.500 73.739,74.860 73.344,74.078 72.969 C 72.769 72.341,72.677 72.265,72.912 72.005 C 73.577 71.270,73.290 70.933,71.219 70.023 C 70.373 69.651,68.205 68.377,66.372 67.176 L 63.056 65.002 61.695 62.155 C 60.529 59.717,60.333 59.183,60.333 58.439 C 60.333 57.961,60.211 57.123,60.062 56.577 C 59.913 56.030,59.800 55.415,59.810 55.208 C 59.821 55.001,59.732 54.833,59.612 54.833 C 59.169 54.833,58.620 53.541,58.819 52.969 C 58.919 52.684,59.000 52.170,59.000 51.827 C 59.000 51.300,59.065 51.186,59.417 51.098 C 59.836 50.993,59.990 50.580,59.651 50.467 C 59.523 50.424,59.537 50.172,59.698 49.621 L 59.927 48.836 62.088 48.748 C 64.515 48.650,64.833 48.588,64.833 48.217 C 64.833 47.990,61.724 47.995,60.250 48.224 C 60.158 48.238,60.095 48.175,60.110 48.083 C 60.125 47.992,60.251 47.242,60.392 46.417 C 61.051 42.533,60.891 41.820,58.969 40.109 L 57.959 39.209 58.338 38.695 C 59.013 37.783,58.643 34.127,57.781 33.186 C 55.758 30.980,51.839 32.478,51.834 35.461 C 51.834 35.760,51.747 36.142,51.642 36.310 C 51.494 36.547,51.513 36.797,51.726 37.421 C 52.084 38.472,52.093 38.444,51.408 38.364 C 49.832 38.180,47.348 40.575,47.335 42.292 C 47.332 42.675,45.840 42.186,41.667 40.434 C 40.887 40.107,40.156 39.838,40.042 39.836 C 39.927 39.835,39.833 39.688,39.833 39.509 C 39.833 39.021,39.165 38.366,38.424 38.128 C 37.821 37.935,37.733 37.829,37.416 36.917 C 36.636 34.677,31.574 26.904,30.530 26.343 C 29.726 25.911,27.158 25.900,26.707 26.326 C 26.244 26.764,26.269 26.820,27.923 29.000 C 29.454 31.019,31.301 33.848,32.818 36.496 C 33.473 37.640,34.082 38.649,34.171 38.738 C 34.260 38.827,34.333 39.138,34.333 39.430 C 34.333 39.721,34.446 40.053,34.583 40.167 C 34.721 40.281,34.833 40.518,34.833 40.695 C 34.833 40.871,35.021 41.203,35.250 41.432 C 35.479 41.661,35.667 41.991,35.667 42.165 C 35.667 42.339,35.799 42.579,35.961 42.699 C 36.123 42.819,36.346 43.123,36.457 43.375 C 36.569 43.627,36.728 43.833,36.812 43.833 C 36.895 43.833,37.008 44.010,37.062 44.226 C 37.117 44.442,37.425 44.906,37.747 45.258 C 38.070 45.610,38.333 45.985,38.333 46.090 C 38.333 46.593,38.972 46.849,40.416 46.925 C 41.218 46.967,42.306 47.113,42.836 47.251 C 44.146 47.590,45.329 47.564,46.361 47.172 C 47.210 46.849,48.667 46.950,48.667 47.332 C 48.667 47.402,48.714 47.693,48.771 47.979 L 48.875 48.500 46.531 48.500 C 44.344 48.500,43.729 48.618,44.081 48.969 C 44.143 49.032,45.277 49.083,46.599 49.083 C 48.594 49.083,49.016 49.126,49.076 49.333 C 49.224 49.851,49.233 50.592,49.093 50.817 C 48.998 50.972,49.044 51.120,49.230 51.256 C 49.698 51.598,49.798 53.094,49.360 53.208 C 49.164 53.259,48.928 53.197,48.819 53.066 C 48.572 52.768,44.253 52.725,44.072 53.019 C 43.858 53.365,44.413 53.495,46.167 53.509 C 47.317 53.518,47.802 53.572,47.583 53.668 C 44.077 55.196,44.146 55.174,43.520 54.988 C 42.652 54.731,41.083 54.846,41.083 55.167 C 41.083 55.357,41.360 55.437,42.238 55.500 L 43.393 55.583 42.467 56.196 C 41.564 56.794,41.527 56.803,40.896 56.578 C 38.144 55.597,36.662 56.962,37.445 59.757 C 37.599 60.307,37.706 61.195,37.683 61.748 C 37.648 62.629,37.690 62.785,38.050 63.081 C 39.404 64.198,40.964 73.562,40.000 74.788 C 39.044 76.004,39.668 76.333,42.928 76.333 L 45.333 76.333 45.333 75.924 C 45.333 75.699,45.521 75.328,45.750 75.098 C 46.269 74.579,46.278 74.077,45.780 73.330 C 45.441 72.822,45.368 72.408,45.196 70.000 C 45.015 67.475,44.625 64.714,44.184 62.833 C 43.864 61.467,43.697 61.562,46.625 61.448 C 48.278 61.384,49.861 61.217,50.900 60.998 C 51.807 60.806,52.608 60.710,52.680 60.783 C 52.751 60.857,53.866 62.262,55.156 63.906 L 57.503 66.895 57.085 67.332 C 55.691 68.787,57.630 70.317,61.232 70.604 C 63.621 70.795,67.773 72.572,68.758 73.826 C 69.526 74.803,70.172 75.286,70.468 75.103 C 70.559 75.047,70.896 75.263,71.217 75.584 C 71.970 76.337,72.372 76.324,73.641 75.504 C 74.899 74.691,74.919 74.743,73.768 75.831 C 56.969 91.719,28.564 85.912,19.238 64.684 C 17.221 60.093,15.661 52.594,16.510 51.571 C 16.704 51.337,16.696 51.267,16.452 51.089 C 15.842 50.643,16.074 49.645,16.774 49.701 C 17.602 49.768,17.696 49.398,16.931 49.079 C 16.320 48.823,16.020 47.547,16.501 47.250 C 16.593 47.193,16.624 46.973,16.571 46.762 C 16.321 45.762,17.499 40.948,18.769 37.785 C 23.493 26.013,35.767 16.991,47.477 16.681 C 48.173 16.662,48.781 16.605,48.829 16.553 C 48.877 16.501,50.004 16.514,51.333 16.582 C 52.663 16.649,53.938 16.698,54.167 16.691 M17.904 18.938 C 15.972 21.013,16.066 20.857,16.500 21.250 C 16.836 21.554,16.853 21.549,17.493 20.923 L 18.145 20.287 20.001 22.018 C 22.190 24.060,22.040 23.980,22.490 23.348 L 22.847 22.846 21.002 21.063 L 19.156 19.279 19.545 18.848 C 20.349 17.955,20.361 17.917,19.943 17.525 L 19.557 17.162 17.904 18.938 M80.583 18.917 C 77.828 19.892,77.537 23.174,80.048 24.948 C 81.176 25.746,81.182 25.745,82.395 24.521 L 83.504 23.404 82.647 22.443 L 81.791 21.482 81.394 21.854 L 80.998 22.227 81.332 22.582 C 81.763 23.041,81.754 23.290,81.292 23.676 C 79.952 24.794,79.018 22.110,80.300 20.828 C 81.506 19.621,82.872 19.825,83.866 21.359 L 84.397 22.179 84.805 21.771 L 85.212 21.363 84.844 20.768 C 83.813 19.100,82.132 18.369,80.583 18.917 M13.696 23.905 C 12.177 26.030,12.178 26.027,12.726 26.386 C 13.106 26.635,13.136 26.620,13.637 25.908 L 14.156 25.173 16.286 26.679 L 18.416 28.186 18.791 27.718 C 19.305 27.074,19.387 27.181,17.208 25.652 C 16.131 24.896,15.187 24.223,15.110 24.157 C 15.034 24.091,15.207 23.711,15.496 23.312 L 16.021 22.587 15.659 22.294 C 15.134 21.868,15.180 21.831,13.696 23.905 M84.368 25.130 C 81.417 27.215,81.579 26.845,82.845 28.599 C 83.950 30.131,83.928 30.115,84.465 29.739 L 84.837 29.479 84.168 28.546 C 83.358 27.414,83.359 27.447,84.093 26.994 C 84.757 26.584,84.730 26.568,85.511 27.788 C 85.844 28.308,85.870 28.317,86.261 28.061 C 86.783 27.719,86.773 27.620,86.133 26.727 L 85.598 25.984 86.091 25.581 C 86.764 25.031,86.839 25.055,87.460 26.003 C 88.062 26.925,88.142 26.960,88.652 26.542 L 89.007 26.250 88.002 24.846 C 87.450 24.074,86.975 23.420,86.948 23.393 C 86.921 23.365,85.760 24.147,84.368 25.130 M241.000 36.917 L 241.000 47.333 243.500 47.333 L 246.000 47.333 246.003 43.625 C 246.009 37.284,246.587 35.836,249.112 35.834 C 251.102 35.833,251.333 36.553,251.333 42.752 L 251.333 47.333 253.852 47.333 L 256.370 47.333 256.298 41.875 C 256.221 35.998,256.146 35.446,255.227 33.972 C 253.642 31.429,249.191 31.242,246.667 33.611 L 246.083 34.159 246.039 30.329 L 245.994 26.500 243.497 26.500 L 241.000 26.500 241.000 36.917 M278.833 36.917 L 278.833 47.333 281.333 47.333 L 283.833 47.333 283.833 36.917 L 283.833 26.500 281.333 26.500 L 278.833 26.500 278.833 36.917 M288.167 36.917 L 288.167 47.333 290.667 47.333 L 293.167 47.333 293.167 36.917 L 293.167 26.500 290.667 26.500 L 288.167 26.500 288.167 36.917 M113.500 27.115 C 107.635 28.097,105.983 35.508,111.045 38.133 C 111.996 38.626,112.668 38.829,115.583 39.505 C 118.072 40.082,118.833 40.608,118.833 41.750 C 118.833 44.238,112.477 44.433,108.921 42.053 C 108.361 41.678,108.333 41.772,108.333 44.070 L 108.333 46.306 109.042 46.552 C 113.139 47.979,118.513 48.095,121.037 46.813 C 123.022 45.805,123.918 44.099,123.913 41.342 C 123.905 37.395,122.528 36.204,116.583 35.001 C 113.815 34.441,113.000 33.945,113.000 32.823 C 113.000 30.832,116.690 30.291,120.667 31.699 C 121.446 31.975,122.215 32.239,122.375 32.286 C 122.821 32.418,122.821 28.101,122.375 27.912 C 120.909 27.293,115.395 26.798,113.500 27.115 M228.833 27.100 C 223.756 28.009,220.857 30.931,220.297 35.701 C 219.708 40.718,221.666 44.803,225.545 46.654 C 228.200 47.921,232.938 48.040,235.766 46.912 C 237.279 46.308,237.167 46.529,237.167 44.139 C 237.167 42.101,237.102 41.801,236.742 42.156 C 235.479 43.399,231.447 44.188,229.571 43.557 C 224.613 41.892,224.172 33.731,228.914 31.411 C 230.047 30.856,233.511 30.803,234.250 31.329 C 234.342 31.394,234.737 31.572,235.128 31.724 C 235.520 31.876,236.138 32.188,236.503 32.419 L 237.167 32.838 237.167 30.616 L 237.167 28.395 236.292 28.032 C 234.387 27.243,230.645 26.775,228.833 27.100 M10.921 28.158 C 10.781 28.429,10.667 28.691,10.667 28.740 C 10.667 28.790,11.435 29.214,12.375 29.683 C 14.937 30.961,15.498 31.786,14.394 32.655 C 13.764 33.151,13.584 33.110,11.420 31.988 C 10.347 31.431,9.448 31.000,9.422 31.029 C 9.282 31.192,8.817 32.206,8.863 32.250 C 9.224 32.603,13.171 34.333,13.614 34.333 C 15.871 34.333,17.025 30.983,15.211 29.701 C 14.568 29.246,11.573 27.667,11.355 27.667 C 11.256 27.667,11.061 27.888,10.921 28.158 M148.000 30.167 L 148.000 32.333 146.750 32.333 L 145.500 32.333 145.500 34.083 L 145.500 35.833 146.740 35.833 L 147.980 35.833 148.035 40.208 C 148.085 44.098,148.125 44.648,148.403 45.167 C 149.355 46.949,150.043 47.205,154.125 47.296 L 157.333 47.369 157.333 45.625 L 157.333 43.882 155.708 43.787 C 152.705 43.610,152.839 43.824,152.836 39.208 L 152.833 35.833 155.250 35.833 L 157.667 35.833 157.667 34.083 L 157.667 32.333 155.250 32.333 L 152.833 32.333 152.833 30.167 L 152.833 28.000 150.417 28.000 L 148.000 28.000 148.000 30.167 M161.000 30.167 L 161.000 32.333 159.750 32.333 L 158.500 32.333 158.500 34.083 L 158.500 35.833 159.750 35.833 L 161.000 35.833 161.000 39.853 C 161.000 46.625,161.444 47.165,167.125 47.295 L 170.333 47.369 170.333 45.601 L 170.333 43.833 169.273 43.833 C 165.923 43.833,165.842 43.726,165.837 39.292 L 165.833 35.833 168.333 35.833 L 170.833 35.833 170.833 34.083 L 170.833 32.333 168.333 32.333 L 165.833 32.333 165.833 30.167 L 165.833 28.000 163.417 28.000 L 161.000 28.000 161.000 30.167 M30.382 28.392 C 30.863 28.592,31.158 29.086,33.150 33.017 C 34.376 35.437,35.306 37.342,35.215 37.250 C 35.031 37.064,29.667 28.350,29.667 28.238 C 29.667 28.122,29.813 28.154,30.382 28.392 M87.333 29.606 C 85.821 30.395,84.561 31.060,84.535 31.083 C 84.508 31.106,84.613 31.392,84.769 31.719 L 85.051 32.312 86.177 31.745 C 87.755 30.950,87.977 31.474,86.843 33.318 L 86.186 34.385 86.513 35.026 C 86.693 35.378,86.871 35.667,86.908 35.667 C 87.046 35.667,88.333 33.201,88.333 32.938 C 88.333 32.606,88.484 32.602,88.907 32.922 C 90.154 33.865,91.977 32.547,91.494 31.051 C 91.322 30.518,90.189 28.161,90.109 28.169 C 90.095 28.171,88.846 28.817,87.333 29.606 M90.140 30.425 C 90.772 31.811,89.284 32.582,88.491 31.279 L 88.172 30.754 88.878 30.385 C 89.786 29.909,89.907 29.913,90.140 30.425 M177.767 32.264 C 170.440 34.260,170.517 45.529,177.871 47.413 C 185.672 49.412,191.412 42.955,188.147 35.853 C 186.744 32.801,181.918 31.133,177.767 32.264 M199.417 32.510 C 198.867 32.789,198.135 33.291,197.792 33.625 L 197.167 34.234 197.167 33.284 L 197.167 32.333 194.667 32.333 L 192.167 32.333 192.167 39.833 L 192.167 47.333 194.667 47.333 L 197.167 47.333 197.180 43.042 C 197.197 37.095,197.728 35.833,200.210 35.833 C 202.182 35.833,202.333 36.304,202.333 42.428 L 202.333 47.333 204.932 47.333 L 207.531 47.333 207.455 42.042 C 207.359 35.452,207.164 34.547,205.513 33.044 C 204.198 31.846,201.241 31.587,199.417 32.510 M262.250 32.314 L 260.750 32.583 260.703 34.479 L 260.655 36.374 261.036 36.281 C 261.245 36.230,261.867 36.018,262.417 35.812 C 265.458 34.669,269.266 35.322,269.587 37.042 L 269.704 37.667 267.477 37.667 C 261.716 37.667,259.428 39.112,259.428 42.750 C 259.428 45.919,261.301 47.659,264.719 47.664 C 266.639 47.667,267.551 47.359,268.731 46.307 L 269.667 45.473 269.667 46.403 L 269.667 47.333 272.167 47.333 L 274.667 47.333 274.667 42.430 C 274.667 35.535,274.199 34.009,271.713 32.796 C 269.991 31.955,265.512 31.727,262.250 32.314 M301.809 32.326 C 298.284 33.435,296.603 35.861,296.607 39.833 C 296.613 46.646,302.470 49.440,311.125 46.758 L 312.000 46.487 312.000 44.577 C 312.000 43.526,311.965 42.667,311.922 42.667 C 311.855 42.667,310.735 43.147,309.583 43.670 C 306.272 45.175,302.623 44.386,301.802 41.988 L 301.520 41.167 307.177 41.167 L 312.833 41.167 312.832 40.542 C 312.824 36.315,311.066 33.474,307.752 32.334 C 306.456 31.888,303.216 31.884,301.809 32.326 M323.500 32.435 C 322.996 32.664,322.227 33.152,321.792 33.519 L 321.000 34.187 321.000 33.260 L 321.000 32.333 318.583 32.333 L 316.167 32.333 316.167 39.833 L 316.167 47.333 318.583 47.333 L 321.000 47.333 321.000 43.594 C 321.000 37.349,321.627 35.833,324.211 35.833 C 326.123 35.833,326.324 36.485,326.329 42.708 L 326.333 47.333 328.833 47.333 L 331.333 47.333 331.333 42.159 C 331.333 35.594,331.120 34.550,329.480 33.078 C 328.177 31.910,325.333 31.604,323.500 32.435 M338.807 32.240 C 333.289 34.337,332.942 44.072,338.290 46.777 C 340.296 47.792,343.233 47.368,344.912 45.820 L 345.667 45.124 345.667 45.949 C 345.667 47.580,345.050 48.716,343.814 49.366 C 342.324 50.149,338.514 49.792,336.921 48.721 C 336.365 48.347,336.333 48.440,336.333 50.473 L 336.333 52.445 337.531 52.734 C 341.823 53.770,346.694 52.981,348.760 50.915 C 350.533 49.142,350.664 48.351,350.665 39.375 L 350.667 32.333 348.167 32.333 L 345.667 32.333 345.667 33.167 C 345.667 34.155,345.682 34.149,344.955 33.443 C 343.635 32.161,340.586 31.564,338.807 32.240 M358.964 32.395 C 354.465 33.900,352.507 39.248,354.783 43.816 C 356.640 47.543,362.430 48.808,368.351 46.781 L 369.417 46.417 369.464 44.542 C 369.490 43.510,369.444 42.667,369.362 42.667 C 369.280 42.667,368.696 42.901,368.065 43.188 C 363.906 45.077,360.266 44.708,359.258 42.295 C 358.754 41.088,358.381 41.167,364.603 41.167 L 370.206 41.167 370.091 39.542 C 369.810 35.600,368.313 33.445,365.086 32.334 C 363.658 31.843,360.522 31.874,358.964 32.395 M381.015 32.312 C 380.611 32.461,379.880 32.961,379.390 33.423 L 378.500 34.262 378.500 33.298 L 378.500 32.333 376.000 32.333 L 373.500 32.333 373.500 39.833 L 373.500 47.333 375.988 47.333 L 378.475 47.333 378.529 42.958 C 378.580 38.854,378.606 38.542,378.942 37.917 C 379.865 36.203,381.617 35.596,383.765 36.248 C 384.215 36.385,384.640 36.497,384.708 36.498 C 384.777 36.499,384.833 35.487,384.833 34.250 L 384.833 32.000 383.292 32.020 C 382.325 32.033,381.476 32.141,381.015 32.312 M389.522 32.281 C 387.148 32.916,386.150 34.246,386.150 36.774 C 386.150 39.801,387.833 41.092,392.417 41.583 C 395.010 41.861,396.050 43.316,394.244 44.139 C 392.965 44.722,387.770 44.028,386.758 43.139 C 386.398 42.822,386.333 43.090,386.333 44.904 L 386.333 46.807 386.875 46.982 C 388.907 47.637,394.173 47.879,395.973 47.400 C 398.769 46.656,399.583 45.626,399.583 42.833 C 399.583 39.622,398.442 38.607,394.167 38.016 C 391.124 37.596,390.500 37.337,390.500 36.494 C 390.500 35.040,394.102 34.880,397.631 36.176 C 398.116 36.354,398.585 36.500,398.673 36.500 C 399.066 36.500,398.860 32.837,398.458 32.678 C 396.805 32.024,391.384 31.784,389.522 32.281 M128.032 38.208 L 128.083 44.083 128.561 45.041 C 130.104 48.136,134.514 48.687,137.402 46.145 L 138.167 45.472 138.167 46.403 L 138.167 47.333 140.583 47.333 L 143.000 47.333 143.000 39.833 L 143.000 32.333 140.599 32.333 L 138.199 32.333 138.131 36.792 C 138.040 42.760,137.573 43.833,135.067 43.833 C 133.027 43.833,132.833 43.218,132.833 36.727 L 132.833 32.333 130.407 32.333 L 127.981 32.333 128.032 38.208 M57.030 33.625 C 58.543 35.208,58.099 36.167,55.851 36.167 C 54.653 36.167,54.377 35.915,55.407 35.760 C 56.903 35.536,57.348 34.726,56.588 33.607 C 56.056 32.822,56.270 32.831,57.030 33.625 M7.884 34.694 C 5.617 37.485,8.422 40.238,10.870 37.625 C 12.024 36.394,12.935 37.074,12.189 38.609 C 11.993 39.013,11.720 39.387,11.583 39.440 C 11.181 39.594,11.292 39.765,11.917 39.956 C 12.638 40.178,12.959 39.847,13.408 38.421 C 14.240 35.777,12.179 34.510,10.167 36.430 C 8.629 37.897,7.579 37.158,8.750 35.432 C 8.988 35.081,9.155 34.766,9.121 34.732 C 8.914 34.525,8.043 34.498,7.884 34.694 M91.040 34.888 C 90.431 35.226,90.171 35.744,90.055 36.848 C 89.819 39.107,88.333 38.869,88.333 36.572 C 88.333 35.784,88.272 35.738,87.572 36.004 C 87.146 36.166,87.127 36.220,87.218 36.993 C 87.641 40.564,91.327 40.865,91.332 37.329 C 91.335 35.493,92.764 35.686,92.980 37.550 L 93.083 38.443 93.645 38.213 C 94.183 37.992,94.202 37.955,94.099 37.309 C 93.780 35.315,92.333 34.170,91.040 34.888 M306.343 35.673 C 307.004 36.144,307.450 36.816,307.588 37.547 L 307.704 38.167 304.682 38.167 L 301.660 38.167 301.766 37.708 C 302.219 35.731,304.808 34.580,306.343 35.673 M363.649 35.599 C 364.245 35.952,364.783 36.771,364.923 37.542 L 365.037 38.167 362.015 38.167 L 358.994 38.167 359.102 37.708 C 359.552 35.797,362.034 34.646,363.649 35.599 M182.289 36.014 C 184.440 37.666,184.344 42.326,182.129 43.743 C 179.189 45.623,176.282 41.027,178.059 37.308 C 178.832 35.690,181.002 35.026,182.289 36.014 M344.590 36.340 C 346.376 38.071,345.848 42.702,343.774 43.491 C 340.765 44.635,338.430 40.707,340.084 37.281 C 340.953 35.482,343.217 35.009,344.590 36.340 M58.166 40.686 C 58.957 41.131,59.489 42.066,59.600 43.202 L 59.685 44.083 59.242 43.200 C 58.999 42.713,58.387 41.870,57.882 41.325 C 56.896 40.260,56.999 40.030,58.166 40.686 M100.005 40.500 C 100.005 40.637,100.078 40.862,100.167 41.000 C 100.310 41.222,100.328 41.222,100.328 41.000 C 100.328 40.862,100.256 40.637,100.167 40.500 C 100.023 40.278,100.005 40.278,100.005 40.500 M269.597 41.518 C 269.269 43.991,266.407 45.342,264.895 43.738 C 263.353 42.103,264.787 40.677,267.980 40.670 L 269.710 40.667 269.597 41.518 M100.605 44.083 C 100.665 44.633,100.740 45.115,100.773 45.153 C 100.918 45.320,100.811 43.558,100.663 43.333 C 100.550 43.162,100.532 43.399,100.605 44.083 M44.333 44.312 C 49.083 45.992,52.504 46.257,54.238 45.081 C 54.899 44.632,56.352 44.833,55.795 45.296 C 53.242 47.415,47.853 46.939,42.968 44.163 C 41.568 43.368,41.707 43.383,44.333 44.312 M77.875 46.129 C 75.974 46.526,75.490 46.768,75.984 47.073 C 76.192 47.202,80.152 46.415,80.364 46.202 C 80.960 45.607,80.451 45.592,77.875 46.129 M100.879 46.333 C 100.879 46.746,100.911 46.915,100.951 46.708 C 100.991 46.502,100.991 46.165,100.951 45.958 C 100.911 45.752,100.879 45.921,100.879 46.333 M20.531 46.119 C 20.623 46.597,24.818 47.429,25.071 47.020 C 25.232 46.760,24.689 46.568,22.685 46.174 C 20.579 45.760,20.461 45.757,20.531 46.119 M28.335 47.330 C 27.845 47.637,28.445 47.845,30.574 48.105 C 32.001 48.279,32.757 48.309,32.870 48.197 C 33.211 47.855,32.795 47.706,30.962 47.511 C 29.929 47.402,28.971 47.281,28.833 47.243 C 28.696 47.205,28.471 47.244,28.335 47.330 M69.667 47.421 C 67.791 47.674,68.000 47.612,68.000 47.917 C 68.000 48.282,71.988 48.003,72.655 47.590 C 73.366 47.151,72.170 47.083,69.667 47.421 M81.763 47.470 C 80.803 47.743,80.411 48.081,80.861 48.250 C 81.251 48.396,83.250 47.769,83.250 47.500 C 83.250 47.155,82.898 47.147,81.763 47.470 M17.667 47.572 C 17.667 47.827,19.151 48.333,19.901 48.333 C 20.701 48.333,20.373 47.888,19.364 47.605 C 18.168 47.270,17.667 47.260,17.667 47.572 M36.189 48.224 C 35.884 48.590,36.086 48.644,38.425 48.821 C 40.631 48.988,40.833 48.969,40.833 48.588 C 40.833 48.424,40.437 48.335,39.375 48.258 C 38.573 48.200,37.574 48.114,37.155 48.065 C 36.602 48.001,36.337 48.044,36.189 48.224 M21.520 48.317 C 21.004 48.644,22.329 49.167,23.675 49.167 C 24.267 49.167,24.358 48.716,23.792 48.588 C 21.734 48.120,21.816 48.130,21.520 48.317 M78.250 48.250 C 78.158 48.281,77.802 48.353,77.458 48.411 C 76.885 48.507,76.622 48.850,76.961 49.059 C 77.077 49.131,78.182 48.973,79.125 48.749 C 79.724 48.607,79.595 48.164,78.958 48.180 C 78.660 48.187,78.342 48.218,78.250 48.250 M73.872 49.006 C 72.865 49.210,72.509 49.511,73.042 49.708 C 73.468 49.866,75.583 49.407,75.583 49.157 C 75.583 48.866,74.875 48.803,73.872 49.006 M25.268 49.138 C 25.094 49.419,25.739 49.670,26.918 49.780 C 27.824 49.865,28.000 49.840,28.000 49.625 C 28.000 49.193,25.508 48.749,25.268 49.138 M70.042 49.536 C 69.060 49.687,68.710 49.968,69.158 50.245 C 69.322 50.346,71.445 50.054,71.703 49.894 C 71.888 49.780,71.524 49.326,71.271 49.355 C 71.168 49.366,70.615 49.448,70.042 49.536 M29.249 49.668 C 29.032 50.019,29.437 50.188,30.728 50.285 C 32.046 50.385,32.674 49.989,31.542 49.772 C 30.243 49.523,29.363 49.484,29.249 49.668 M65.833 49.983 C 65.322 50.051,65.083 50.163,65.083 50.333 C 65.083 50.616,67.441 50.626,67.722 50.344 C 68.170 49.896,67.478 49.764,65.833 49.983 M33.102 50.136 C 32.937 50.403,33.457 50.608,34.584 50.720 C 35.650 50.826,36.222 50.655,35.896 50.329 C 35.637 50.070,33.245 49.905,33.102 50.136 M78.087 50.441 C 76.052 50.851,75.628 51.028,75.936 51.336 C 76.132 51.532,80.082 50.818,80.364 50.536 C 80.538 50.362,80.416 49.983,80.198 50.019 C 80.135 50.030,79.185 50.219,78.087 50.441 M20.531 50.455 C 20.626 50.949,24.814 51.769,25.076 51.345 C 25.228 51.099,24.950 51.002,22.875 50.571 C 20.550 50.089,20.460 50.085,20.531 50.455 M61.917 50.318 C 61.331 50.387,61.083 50.491,61.083 50.667 C 61.083 50.949,63.441 50.959,63.722 50.678 C 64.170 50.230,63.605 50.118,61.917 50.318 M37.113 50.443 C 36.801 50.755,37.444 51.000,38.576 51.000 C 39.860 51.000,40.106 50.912,39.811 50.557 C 39.618 50.324,37.328 50.228,37.113 50.443 M41.083 50.667 C 40.858 51.031,41.244 51.167,42.500 51.167 C 43.840 51.167,44.268 50.989,43.682 50.675 C 43.266 50.452,41.220 50.446,41.083 50.667 M45.072 50.852 C 44.874 51.172,45.375 51.328,46.607 51.331 C 47.728 51.333,48.224 51.113,47.877 50.766 C 47.694 50.583,45.191 50.660,45.072 50.852 M28.335 51.664 C 27.840 51.974,28.462 52.195,30.571 52.457 C 32.170 52.656,32.727 52.673,32.874 52.526 C 33.210 52.190,32.814 52.051,30.917 51.843 C 29.908 51.733,28.971 51.612,28.833 51.575 C 28.696 51.538,28.471 51.578,28.335 51.664 M69.667 51.754 C 67.791 52.007,68.000 51.945,68.000 52.250 C 68.000 52.556,68.451 52.567,70.638 52.313 C 72.306 52.119,72.913 51.931,72.745 51.658 C 72.620 51.456,71.657 51.486,69.667 51.754 M81.833 51.777 C 80.106 52.241,80.254 52.837,81.996 52.431 C 83.113 52.170,83.441 51.975,83.259 51.681 C 83.121 51.458,82.985 51.467,81.833 51.777 M17.667 51.905 C 17.667 52.161,19.151 52.667,19.901 52.667 C 20.701 52.667,20.373 52.222,19.364 51.939 C 18.168 51.603,17.667 51.593,17.667 51.905 M36.171 52.578 C 36.048 52.727,36.041 52.839,36.152 52.908 C 36.491 53.117,40.566 53.320,40.785 53.138 C 41.168 52.820,40.850 52.698,39.374 52.596 C 38.573 52.540,37.566 52.463,37.138 52.423 C 36.611 52.375,36.298 52.425,36.171 52.578 M61.555 52.487 C 60.158 52.586,59.885 52.679,60.076 52.989 C 60.327 53.394,64.720 53.056,64.802 52.625 C 64.863 52.304,64.398 52.284,61.555 52.487 M21.500 52.667 C 21.015 52.966,23.275 53.769,23.961 53.541 C 24.453 53.377,24.114 53.022,23.292 52.840 C 21.816 52.515,21.755 52.509,21.500 52.667 M77.625 52.704 C 77.159 52.802,76.833 52.961,76.833 53.092 C 76.833 53.546,77.075 53.545,79.125 53.079 C 79.331 53.032,79.500 52.883,79.500 52.747 C 79.500 52.461,78.862 52.447,77.625 52.704 M73.764 53.387 C 72.952 53.581,72.618 53.882,73.035 54.042 C 73.469 54.208,75.583 53.755,75.583 53.496 C 75.583 53.177,74.832 53.132,73.764 53.387 M92.162 54.557 L 91.741 55.917 90.264 55.965 L 88.788 56.014 89.965 56.843 C 91.282 57.771,91.231 57.534,90.546 59.542 C 90.366 60.069,90.248 60.500,90.283 60.500 C 90.319 60.500,90.843 60.125,91.449 59.667 C 92.781 58.659,92.552 58.658,93.892 59.672 C 94.501 60.134,95.000 60.447,95.000 60.368 C 95.000 60.289,94.813 59.674,94.583 59.000 C 94.354 58.326,94.167 57.754,94.167 57.729 C 94.167 57.704,94.672 57.323,95.290 56.883 L 96.413 56.083 95.011 56.000 L 93.610 55.917 93.180 54.637 C 92.622 52.975,92.652 52.978,92.162 54.557 M6.638 54.625 L 6.240 55.917 4.764 55.965 L 3.288 56.014 4.461 56.840 L 5.634 57.666 5.417 58.375 C 5.297 58.765,5.117 59.294,5.016 59.553 C 4.649 60.494,4.805 60.541,5.792 59.789 C 6.319 59.387,6.847 59.001,6.966 58.931 C 7.102 58.851,7.612 59.117,8.341 59.649 C 8.979 60.114,9.500 60.434,9.500 60.360 C 9.500 60.286,9.313 59.674,9.083 59.000 C 8.854 58.326,8.667 57.754,8.667 57.729 C 8.667 57.704,9.172 57.323,9.790 56.883 L 10.913 56.083 9.498 56.000 L 8.083 55.917 7.678 54.625 C 7.456 53.915,7.220 53.333,7.155 53.333 C 7.090 53.333,6.857 53.915,6.638 54.625 M25.266 53.474 C 25.094 53.753,25.744 54.004,26.918 54.114 C 27.824 54.198,28.000 54.173,28.000 53.959 C 28.000 53.539,25.500 53.096,25.266 53.474 M70.125 53.875 C 69.036 54.034,68.625 54.367,69.231 54.599 C 69.460 54.687,71.451 54.383,71.714 54.221 C 71.858 54.132,71.532 53.651,71.355 53.689 C 71.297 53.702,70.744 53.786,70.125 53.875 M29.246 54.007 C 29.027 54.360,29.480 54.549,30.741 54.630 C 32.102 54.717,32.682 54.287,31.458 54.098 C 29.832 53.847,29.357 53.828,29.246 54.007 M65.917 54.314 C 64.903 54.439,64.729 54.890,65.667 54.961 C 66.599 55.033,67.750 54.775,67.750 54.495 C 67.750 54.214,67.185 54.158,65.917 54.314 M33.109 54.459 C 32.925 54.756,33.385 54.952,34.506 55.051 C 35.632 55.151,36.225 54.992,35.908 54.674 C 35.664 54.431,33.242 54.244,33.109 54.459 M100.883 55.167 C 100.883 55.671,100.915 55.877,100.953 55.625 C 100.991 55.373,100.991 54.960,100.953 54.708 C 100.915 54.456,100.883 54.663,100.883 55.167 M62.000 54.619 C 61.158 54.696,60.835 54.902,61.116 55.183 C 61.426 55.492,63.863 55.195,63.799 54.855 C 63.743 54.562,63.285 54.502,62.000 54.619 M37.113 54.776 C 36.799 55.090,37.445 55.333,38.594 55.333 C 39.849 55.333,40.257 55.149,39.682 54.842 C 39.326 54.651,37.290 54.599,37.113 54.776 M100.697 56.688 C 100.681 57.020,100.624 57.545,100.572 57.854 C 100.496 58.311,100.513 58.362,100.664 58.124 C 100.767 57.963,100.823 57.438,100.790 56.958 C 100.746 56.342,100.719 56.262,100.697 56.688 M39.706 57.365 C 40.761 57.681,43.344 60.378,42.960 60.762 C 42.731 60.992,41.526 60.607,41.365 60.252 C 40.838 59.096,39.585 58.167,38.333 58.003 L 37.583 57.904 38.167 57.536 C 38.848 57.106,38.844 57.107,39.706 57.365 M130.500 58.333 L 130.500 59.500 131.500 59.500 L 132.500 59.500 132.500 58.333 L 132.500 57.167 131.500 57.167 L 130.500 57.167 130.500 58.333 M147.167 64.833 L 147.167 72.500 148.167 72.500 L 149.167 72.500 149.167 69.991 C 149.167 67.011,148.820 66.986,152.172 70.208 L 154.556 72.500 155.903 72.497 L 157.250 72.495 155.833 71.128 C 155.054 70.377,153.723 69.092,152.875 68.274 C 151.028 66.492,151.054 66.777,152.613 65.389 C 153.317 64.763,154.313 63.875,154.827 63.417 C 155.341 62.958,156.052 62.340,156.408 62.042 L 157.054 61.500 155.685 61.500 L 154.316 61.500 152.866 62.782 C 152.069 63.487,151.379 64.106,151.333 64.158 C 151.287 64.210,150.781 64.653,150.208 65.143 L 149.167 66.033 149.167 61.600 L 149.167 57.167 148.167 57.167 L 147.167 57.167 147.167 64.833 M199.167 64.833 L 199.167 72.500 200.167 72.500 L 201.167 72.500 201.167 64.833 L 201.167 57.167 200.167 57.167 L 199.167 57.167 199.167 64.833 M217.667 64.833 L 217.667 72.500 218.667 72.500 L 219.667 72.500 219.667 71.939 L 219.667 71.377 220.238 71.916 C 221.642 73.240,224.512 73.146,225.929 71.729 C 228.715 68.943,228.014 62.791,224.755 61.430 C 223.291 60.818,220.816 61.250,220.025 62.256 L 219.667 62.712 219.667 59.939 L 219.667 57.167 218.667 57.167 L 217.667 57.167 217.667 64.833 M112.583 57.660 C 105.366 59.233,105.553 71.426,112.815 72.690 C 114.912 73.055,117.528 72.645,118.922 71.731 C 119.293 71.488,119.333 71.350,119.333 70.314 C 119.333 69.026,119.321 69.010,118.719 69.568 C 116.336 71.778,111.727 71.368,110.414 68.829 C 109.369 66.807,109.371 63.523,110.418 61.497 C 111.698 59.021,115.901 58.598,118.532 60.680 C 119.347 61.325,119.333 61.337,119.333 60.019 C 119.333 58.717,119.264 58.633,117.630 57.981 C 116.642 57.587,113.759 57.404,112.583 57.660 M189.509 57.672 C 182.419 59.159,182.517 71.288,189.631 72.675 C 191.632 73.065,194.352 72.680,195.792 71.803 C 196.319 71.482,196.333 71.442,196.333 70.320 C 196.333 69.026,196.321 69.010,195.719 69.568 C 193.372 71.745,189.039 71.446,187.485 69.000 C 186.632 67.655,186.366 64.416,186.955 62.515 C 187.984 59.189,192.443 58.236,195.532 60.680 C 196.348 61.325,196.333 61.337,196.333 60.014 C 196.333 58.891,196.319 58.852,195.792 58.531 C 194.409 57.688,191.396 57.276,189.509 57.672 M170.667 59.917 L 170.667 61.500 170.000 61.500 L 169.333 61.500 169.333 62.250 L 169.333 63.000 170.000 63.000 L 170.667 63.000 170.667 66.227 C 170.667 71.989,170.990 72.500,174.631 72.500 L 176.333 72.500 176.333 71.775 L 176.333 71.049 174.976 70.945 C 172.665 70.767,172.667 70.769,172.667 66.146 L 172.667 63.000 174.500 63.000 L 176.333 63.000 176.333 62.250 L 176.333 61.500 174.500 61.500 L 172.667 61.500 172.667 59.917 L 172.667 58.333 171.667 58.333 L 170.667 58.333 170.667 59.917 M54.241 58.946 C 54.734 59.181,54.869 59.371,55.094 60.146 C 55.398 61.190,56.032 62.499,57.025 64.131 C 57.400 64.746,57.746 65.318,57.796 65.401 C 58.135 65.973,57.350 65.085,56.377 63.795 C 54.986 61.950,54.319 60.885,53.756 59.613 C 53.303 58.589,53.352 58.522,54.241 58.946 M100.262 59.542 C 100.199 60.023,100.105 60.604,100.052 60.833 C 99.988 61.115,100.012 61.196,100.126 61.083 C 100.294 60.919,100.597 58.667,100.451 58.667 C 100.410 58.667,100.325 59.060,100.262 59.542 M125.750 61.443 C 125.475 61.587,125.006 61.937,124.708 62.219 L 124.167 62.732 124.167 62.116 L 124.167 61.500 123.167 61.500 L 122.167 61.500 122.167 67.000 L 122.167 72.500 123.153 72.500 L 124.139 72.500 124.194 68.792 L 124.250 65.083 124.714 64.369 C 125.449 63.239,126.010 62.974,127.542 63.034 L 128.833 63.086 128.833 62.126 L 128.833 61.167 127.542 61.173 C 126.700 61.178,126.076 61.271,125.750 61.443 M138.686 61.451 C 134.744 62.844,134.152 69.549,137.752 72.027 C 138.941 72.846,141.739 73.067,143.708 72.498 C 144.332 72.318,144.333 72.316,144.333 71.409 C 144.333 70.384,144.154 70.280,143.250 70.778 C 142.496 71.193,140.084 71.185,139.300 70.764 C 136.915 69.484,136.916 64.515,139.302 63.234 C 140.095 62.809,142.494 62.799,143.283 63.217 C 144.192 63.699,144.333 63.615,144.333 62.595 L 144.333 61.690 143.433 61.428 C 142.265 61.089,139.676 61.101,138.686 61.451 M160.534 61.606 C 156.470 63.572,156.432 70.435,160.474 72.296 C 161.962 72.980,165.018 72.978,166.958 72.291 C 167.430 72.124,167.876 70.167,167.442 70.167 C 167.411 70.167,167.167 70.275,166.901 70.408 C 163.535 72.087,160.243 71.047,159.668 68.125 L 159.545 67.500 163.772 67.500 L 168.000 67.500 167.994 66.792 C 167.958 62.378,164.256 59.805,160.534 61.606 M99.759 61.926 C 99.697 62.260,99.683 62.572,99.729 62.617 C 99.774 62.663,99.863 62.427,99.926 62.093 C 99.989 61.758,100.003 61.447,99.957 61.401 C 99.911 61.355,99.822 61.591,99.759 61.926 M130.500 67.000 L 130.500 72.500 131.500 72.500 L 132.500 72.500 132.500 67.000 L 132.500 61.500 131.500 61.500 L 130.500 61.500 130.500 67.000 M204.696 65.792 C 204.759 70.752,204.887 71.261,206.306 72.248 C 207.726 73.235,210.551 72.900,211.708 71.608 C 211.992 71.291,212.000 71.298,212.000 71.891 L 212.000 72.500 213.083 72.500 L 214.167 72.500 214.167 67.000 L 214.167 61.500 213.092 61.500 L 212.017 61.500 211.967 65.388 L 211.917 69.277 211.450 69.889 C 210.823 70.709,210.202 71.000,209.076 71.000 C 206.961 71.000,206.667 70.298,206.667 65.247 L 206.667 61.500 205.654 61.500 L 204.642 61.500 204.696 65.792 M41.076 63.208 C 41.127 63.506,41.429 65.625,41.749 67.917 C 42.069 70.208,42.370 72.252,42.418 72.458 C 42.491 72.766,42.436 72.833,42.112 72.833 C 41.738 72.833,41.698 72.725,41.352 70.792 C 41.151 69.669,40.741 67.381,40.441 65.708 L 39.896 62.667 40.440 62.667 C 40.925 62.667,40.995 62.726,41.076 63.208 M43.349 66.917 C 44.268 73.308,44.224 72.779,43.845 72.879 C 43.470 72.977,43.508 73.123,42.659 68.333 C 42.375 66.729,42.036 64.876,41.905 64.215 C 41.587 62.614,41.583 62.637,42.208 62.698 L 42.750 62.750 43.349 66.917 M164.281 63.109 C 165.004 63.452,165.666 64.426,165.786 65.321 L 165.877 66.000 162.772 66.000 C 159.255 66.000,159.307 66.025,160.000 64.667 C 160.800 63.098,162.757 62.386,164.281 63.109 M223.733 63.066 C 226.186 64.091,226.217 69.735,223.776 70.893 C 221.542 71.953,219.667 70.172,219.667 66.991 C 219.667 63.850,221.462 62.117,223.733 63.066 M99.262 63.929 C 99.201 64.173,99.188 64.410,99.234 64.456 C 99.280 64.502,99.367 64.339,99.429 64.095 C 99.490 63.851,99.503 63.614,99.457 63.568 C 99.411 63.522,99.323 63.684,99.262 63.929 M98.864 65.364 C 98.765 65.754,98.712 66.101,98.748 66.136 C 98.783 66.172,98.896 65.885,99.000 65.500 C 99.104 65.115,99.156 64.767,99.116 64.727 C 99.076 64.687,98.963 64.974,98.864 65.364 M61.833 65.722 C 61.833 65.752,61.452 66.024,60.986 66.326 C 59.976 66.981,59.167 68.033,59.167 68.692 C 59.167 69.279,59.002 69.287,58.346 68.735 C 57.682 68.176,57.699 67.789,58.412 67.215 C 59.079 66.679,61.833 65.477,61.833 65.722 M98.367 66.950 C 98.120 67.754,98.239 67.873,98.500 67.083 C 98.610 66.750,98.667 66.445,98.628 66.406 C 98.588 66.366,98.471 66.611,98.367 66.950 M97.340 69.712 C 92.655 81.268,83.877 90.566,72.250 96.290 C 70.875 96.966,69.938 97.469,70.167 97.407 C 72.515 96.771,80.160 92.197,82.470 90.047 C 82.716 89.818,83.217 89.413,83.583 89.148 C 84.406 88.551,88.400 84.522,89.179 83.503 C 89.493 83.092,89.862 82.642,90.000 82.503 C 90.533 81.963,92.562 79.157,93.538 77.609 C 94.473 76.125,96.666 71.863,97.324 70.250 C 97.399 70.067,97.593 69.597,97.756 69.207 C 97.919 68.816,98.017 68.461,97.974 68.419 C 97.931 68.376,97.646 68.958,97.340 69.712 M66.333 70.336 C 69.442 71.514,69.602 71.611,70.264 72.739 L 70.565 73.250 69.961 72.793 C 69.630 72.541,67.872 71.729,66.056 70.989 C 62.408 69.501,62.590 69.592,62.743 69.344 C 62.919 69.061,63.088 69.107,66.333 70.336 M76.733 79.976 C 76.376 80.238,75.751 80.750,75.345 81.114 L 74.606 81.775 76.553 84.044 C 78.955 86.845,78.631 86.700,79.933 85.552 C 82.215 83.541,81.912 80.975,79.476 81.674 C 78.947 81.825,78.921 81.793,79.181 81.307 C 79.897 79.968,78.088 78.984,76.733 79.976 M22.083 80.082 C 20.560 80.616,19.430 82.589,19.848 83.984 C 20.291 85.460,22.085 86.792,22.767 86.151 C 23.224 85.721,23.276 85.500,22.920 85.500 C 22.458 85.500,21.167 84.097,21.167 83.595 C 21.167 81.322,23.926 80.405,25.194 82.256 L 25.580 82.819 26.042 82.376 L 26.504 81.934 25.794 81.197 C 24.577 79.936,23.458 79.600,22.083 80.082 M78.100 81.252 C 78.691 82.147,77.556 82.968,76.793 82.197 L 76.250 81.648 76.728 81.232 C 77.273 80.757,77.778 80.764,78.100 81.252 M26.333 84.361 C 25.738 85.290,24.977 86.472,24.643 86.989 L 24.037 87.929 24.597 88.296 L 25.157 88.663 25.835 87.665 C 26.207 87.116,26.570 86.667,26.640 86.667 C 27.023 86.667,27.167 87.168,27.167 88.511 L 27.167 89.956 27.855 90.412 L 28.544 90.867 28.470 89.059 L 28.396 87.250 29.053 87.241 C 30.297 87.224,31.107 85.703,30.405 84.701 C 30.146 84.331,27.803 82.664,27.549 82.670 C 27.476 82.671,26.929 83.432,26.333 84.361 M72.867 83.004 C 72.190 83.416,72.160 83.286,73.342 85.110 C 74.633 87.103,74.790 87.536,74.425 88.094 C 73.612 89.334,72.764 88.925,71.333 86.605 C 70.140 84.669,70.168 84.691,69.493 85.172 L 69.017 85.510 70.021 87.130 C 71.352 89.279,72.128 90.000,73.113 90.000 C 74.854 90.000,76.307 88.339,75.859 86.860 C 75.716 86.385,73.785 83.062,73.468 82.746 C 73.431 82.709,73.161 82.825,72.867 83.004 M79.905 82.929 C 80.310 83.334,80.216 83.890,79.651 84.427 L 79.136 84.917 78.572 84.269 C 77.951 83.555,77.963 83.453,78.727 82.987 C 79.363 82.599,79.565 82.589,79.905 82.929 M29.135 85.315 C 29.209 86.031,28.547 86.462,27.829 86.165 C 27.109 85.867,27.087 85.744,27.609 84.920 L 28.075 84.182 28.579 84.499 C 28.924 84.717,29.100 84.974,29.135 85.315 M32.160 85.933 C 32.045 86.236,32.049 86.441,32.171 86.589 C 32.442 86.914,30.567 90.486,30.179 90.385 C 29.993 90.336,29.827 90.465,29.692 90.760 C 29.448 91.296,29.351 91.187,30.627 91.803 L 31.672 92.307 31.915 91.836 C 32.129 91.422,32.129 91.354,31.911 91.271 C 31.541 91.129,33.462 87.299,33.843 87.420 C 34.072 87.492,34.635 86.732,34.465 86.582 C 34.438 86.558,33.947 86.304,33.372 86.016 L 32.328 85.492 32.160 85.933 M65.542 86.964 C 64.867 87.292,64.857 87.181,65.732 89.124 C 67.255 92.508,67.512 93.024,67.647 92.971 C 70.543 91.841,71.112 91.425,70.625 90.793 C 70.436 90.547,70.321 90.566,69.366 91.005 L 68.315 91.488 67.700 90.119 C 67.362 89.366,66.860 88.289,66.585 87.725 L 66.083 86.701 65.542 86.964 M36.024 87.845 C 33.741 88.759,33.057 92.175,34.892 93.500 C 36.447 94.624,38.167 94.491,38.167 93.246 C 38.167 93.226,37.796 93.173,37.343 93.130 C 35.813 92.983,34.982 91.972,35.329 90.682 C 35.794 88.957,37.473 88.394,38.872 89.495 L 39.282 89.817 39.473 89.200 C 39.702 88.461,39.542 88.291,38.264 87.912 C 37.334 87.635,36.602 87.614,36.024 87.845 M62.180 88.107 C 58.320 89.458,59.599 95.393,63.559 94.506 C 65.161 94.146,65.583 93.789,65.315 93.019 L 65.134 92.500 64.643 92.850 C 63.085 93.960,61.333 93.025,61.333 91.086 C 61.333 89.831,62.264 89.000,63.670 89.000 C 64.209 89.000,64.251 88.909,64.004 88.261 C 63.811 87.754,63.310 87.712,62.180 88.107 M40.944 88.964 C 40.832 89.158,39.790 95.013,39.856 95.078 C 39.890 95.110,40.189 95.188,40.522 95.250 L 41.127 95.363 41.314 94.307 C 41.699 92.126,41.680 92.134,42.402 93.867 C 43.174 95.720,43.215 95.768,44.150 95.919 C 44.736 96.014,44.865 95.992,44.791 95.811 C 44.740 95.686,44.360 94.862,43.948 93.980 L 43.198 92.377 44.432 91.151 C 45.879 89.714,45.873 89.731,44.958 89.576 L 44.250 89.457 43.042 90.767 C 41.701 92.220,41.649 92.193,42.072 90.250 C 42.192 89.700,42.244 89.204,42.187 89.147 C 42.020 88.981,41.019 88.833,40.944 88.964 M53.116 89.839 C 51.262 89.980,51.278 89.973,51.427 90.564 C 51.527 90.965,51.606 91.000,52.413 91.000 L 53.290 91.000 53.400 92.708 C 53.460 93.648,53.554 94.810,53.607 95.292 L 53.705 96.167 54.376 96.167 L 55.048 96.167 54.935 94.625 C 54.872 93.777,54.776 92.577,54.720 91.958 L 54.619 90.833 55.184 90.831 C 56.207 90.827,56.500 90.675,56.500 90.147 C 56.500 89.598,56.405 89.590,53.116 89.839 M46.762 90.542 C 46.712 90.931,46.651 92.347,46.627 93.688 L 46.583 96.127 47.667 96.229 C 48.262 96.285,49.106 96.331,49.542 96.332 L 50.333 96.333 50.333 95.750 L 50.333 95.167 49.167 95.167 L 48.000 95.167 48.000 94.417 L 48.000 93.667 49.094 93.667 L 50.188 93.667 50.136 93.125 C 50.083 92.583,50.083 92.583,49.042 92.534 C 48.017 92.485,48.000 92.476,48.000 92.006 C 48.000 91.090,48.114 91.000,49.268 91.000 C 50.329 91.000,50.333 90.998,50.333 90.523 C 50.333 89.984,49.782 89.833,47.820 89.833 L 46.854 89.833 46.762 90.542 M68.586 97.862 C 68.128 98.043,67.716 98.228,67.669 98.275 C 67.496 98.448,68.602 98.110,69.167 97.817 C 69.924 97.424,69.639 97.446,68.586 97.862 M66.667 98.583 C 66.346 98.707,66.196 98.810,66.333 98.813 C 66.471 98.816,66.808 98.715,67.083 98.589 C 67.727 98.295,67.428 98.290,66.667 98.583 M65.083 99.090 C 64.423 99.318,64.422 99.319,65.000 99.224 C 65.321 99.172,65.696 99.064,65.833 98.986 C 66.200 98.777,65.846 98.826,65.083 99.090 M37.000 99.492 C 37.137 99.585,37.394 99.663,37.569 99.664 C 37.996 99.668,37.863 99.572,37.250 99.435 C 36.885 99.353,36.817 99.369,37.000 99.492 M63.250 99.586 L 62.583 99.813 63.250 99.719 C 63.953 99.619,64.659 99.336,64.167 99.351 C 64.029 99.355,63.617 99.461,63.250 99.586 M38.917 100.000 C 39.100 100.079,39.400 100.141,39.583 100.138 C 39.851 100.134,39.835 100.107,39.500 100.000 C 38.930 99.817,38.492 99.817,38.917 100.000 M61.500 100.000 L 61.083 100.133 61.500 100.138 C 61.729 100.141,62.067 100.079,62.250 100.000 L 62.583 99.857 62.250 99.862 C 62.067 99.864,61.729 99.927,61.500 100.000 M59.000 100.500 C 58.430 100.620,58.428 100.623,58.917 100.633 C 59.192 100.639,59.567 100.579,59.750 100.500 C 60.151 100.328,59.818 100.328,59.000 100.500 M55.000 101.000 C 54.084 101.112,54.084 101.112,54.833 101.127 C 55.246 101.135,55.921 101.082,56.333 101.009 C 57.311 100.835,56.397 100.829,55.000 101.000 M45.711 101.120 C 45.964 101.158,46.339 101.157,46.544 101.117 C 46.749 101.078,46.542 101.046,46.083 101.048 C 45.625 101.049,45.457 101.081,45.711 101.120 " stroke="none" fill="#fafbfa" fill-rule="evenodd"></path><path id="path3" d="M41.500 5.898 C 41.500 5.933,41.721 5.995,41.991 6.034 C 42.261 6.074,42.444 6.045,42.398 5.970 C 42.315 5.836,41.500 5.771,41.500 5.898 M86.083 15.000 C 86.720 15.642,87.279 16.167,87.324 16.167 C 87.370 16.167,86.887 15.642,86.250 15.000 C 85.613 14.358,85.055 13.833,85.009 13.833 C 84.963 13.833,85.447 14.358,86.083 15.000 M18.750 21.000 C 19.108 21.367,19.438 21.667,19.484 21.667 C 19.530 21.667,19.275 21.367,18.917 21.000 C 18.559 20.633,18.228 20.333,18.182 20.333 C 18.137 20.333,18.392 20.633,18.750 21.000 M28.208 25.948 C 28.369 25.990,28.631 25.990,28.792 25.948 C 28.952 25.906,28.821 25.872,28.500 25.872 C 28.179 25.872,28.048 25.906,28.208 25.948 M59.450 43.223 C 59.403 43.346,59.431 43.553,59.513 43.682 C 59.621 43.853,59.662 43.792,59.664 43.458 C 59.667 42.961,59.585 42.871,59.450 43.223 M50.792 45.951 C 50.998 45.991,51.335 45.991,51.542 45.951 C 51.748 45.911,51.579 45.879,51.167 45.879 C 50.754 45.879,50.585 45.911,50.792 45.951 M50.542 46.619 C 50.794 46.658,51.206 46.658,51.458 46.619 C 51.710 46.581,51.504 46.550,51.000 46.550 C 50.496 46.550,50.290 46.581,50.542 46.619 M100.875 48.750 C 100.877 49.117,100.911 49.247,100.951 49.040 C 100.991 48.832,100.990 48.532,100.948 48.373 C 100.906 48.214,100.874 48.383,100.875 48.750 M47.125 48.451 C 47.331 48.491,47.669 48.491,47.875 48.451 C 48.081 48.411,47.913 48.379,47.500 48.379 C 47.087 48.379,46.919 48.411,47.125 48.451 M0.039 52.500 C 0.039 52.821,0.073 52.952,0.115 52.792 C 0.157 52.631,0.157 52.369,0.115 52.208 C 0.073 52.048,0.039 52.179,0.039 52.500 M100.875 52.750 C 100.877 53.117,100.911 53.247,100.951 53.040 C 100.991 52.832,100.990 52.532,100.948 52.373 C 100.906 52.214,100.874 52.383,100.875 52.750 M46.127 52.785 C 46.334 52.824,46.634 52.823,46.794 52.781 C 46.953 52.739,46.783 52.707,46.417 52.709 C 46.050 52.711,45.920 52.745,46.127 52.785 M41.701 76.457 C 42.316 76.489,43.366 76.489,44.034 76.457 C 44.703 76.426,44.200 76.399,42.917 76.399 C 41.633 76.399,41.086 76.425,41.701 76.457 M28.559 89.417 C 28.559 90.242,28.587 90.600,28.622 90.213 C 28.657 89.827,28.657 89.152,28.623 88.713 C 28.588 88.275,28.560 88.592,28.559 89.417 M43.573 90.042 L 43.083 90.583 43.625 90.094 C 44.130 89.638,44.243 89.500,44.115 89.500 C 44.086 89.500,43.842 89.744,43.573 90.042 M48.460 91.118 C 48.668 91.158,48.968 91.156,49.127 91.115 C 49.286 91.073,49.117 91.040,48.750 91.042 C 48.383 91.044,48.253 91.078,48.460 91.118 M46.545 93.000 C 46.545 93.412,46.578 93.581,46.618 93.375 C 46.657 93.169,46.657 92.831,46.618 92.625 C 46.578 92.419,46.545 92.587,46.545 93.000 M48.028 94.375 C 48.005 95.029,48.051 95.166,48.292 95.164 C 48.484 95.162,48.517 95.119,48.387 95.037 C 48.280 94.968,48.161 94.613,48.124 94.248 C 48.057 93.590,48.056 93.591,48.028 94.375 M53.542 96.000 C 53.579 96.138,53.791 96.264,54.013 96.281 C 54.331 96.305,54.346 96.292,54.083 96.220 C 53.900 96.169,53.688 96.043,53.612 95.939 C 53.521 95.814,53.497 95.835,53.542 96.000 M48.208 101.115 C 48.369 101.157,48.631 101.157,48.792 101.115 C 48.952 101.073,48.821 101.039,48.500 101.039 C 48.179 101.039,48.048 101.073,48.208 101.115 M52.208 101.115 C 52.369 101.157,52.631 101.157,52.792 101.115 C 52.952 101.073,52.821 101.039,52.500 101.039 C 52.179 101.039,52.048 101.073,52.208 101.115 " stroke="none" fill="#546a8e" fill-rule="evenodd"></path><path id="path4" d="M48.542 5.750 C 48.544 6.117,48.578 6.247,48.618 6.040 C 48.658 5.832,48.656 5.532,48.615 5.373 C 48.573 5.214,48.540 5.383,48.542 5.750 M39.539 9.167 C 39.539 9.487,39.573 9.619,39.615 9.458 C 39.657 9.298,39.657 9.035,39.615 8.875 C 39.573 8.715,39.539 8.846,39.539 9.167 M38.039 9.333 C 38.039 9.654,38.073 9.785,38.115 9.625 C 38.157 9.465,38.157 9.202,38.115 9.042 C 38.073 8.881,38.039 9.012,38.039 9.333 M46.875 9.115 C 47.035 9.157,47.298 9.157,47.458 9.115 C 47.619 9.073,47.487 9.039,47.167 9.039 C 46.846 9.039,46.715 9.073,46.875 9.115 M44.705 9.833 C 44.705 10.154,44.740 10.285,44.782 10.125 C 44.823 9.965,44.823 9.702,44.782 9.542 C 44.740 9.381,44.705 9.512,44.705 9.833 M49.458 14.790 C 50.031 14.823,50.969 14.823,51.542 14.790 C 52.115 14.758,51.646 14.731,50.500 14.731 C 49.354 14.731,48.885 14.758,49.458 14.790 M87.309 16.134 C 87.800 16.703,88.287 17.220,88.392 17.284 C 88.497 17.348,88.182 16.934,87.691 16.366 C 87.200 15.797,86.713 15.280,86.608 15.216 C 86.503 15.152,86.818 15.566,87.309 16.134 M46.877 16.786 C 47.131 16.825,47.506 16.824,47.711 16.784 C 47.916 16.744,47.708 16.713,47.250 16.714 C 46.792 16.716,46.624 16.748,46.877 16.786 M54.375 16.782 C 54.535 16.823,54.798 16.823,54.958 16.782 C 55.119 16.740,54.987 16.705,54.667 16.705 C 54.346 16.705,54.215 16.740,54.375 16.782 M20.039 17.594 C 20.263 17.859,20.284 17.983,20.131 18.136 C 20.022 18.244,19.977 18.333,20.030 18.333 C 20.407 18.333,20.466 17.856,20.124 17.567 C 19.751 17.251,19.751 17.251,20.039 17.594 M17.077 19.708 L 16.250 20.583 17.125 19.756 C 17.606 19.301,18.000 18.908,18.000 18.881 C 18.000 18.757,17.846 18.895,17.077 19.708 M90.160 19.458 C 90.469 19.848,90.753 20.167,90.789 20.167 C 90.907 20.167,90.193 19.229,89.889 18.985 C 89.728 18.856,89.850 19.069,90.160 19.458 M17.409 21.042 L 16.750 21.750 17.458 21.091 C 17.848 20.729,18.167 20.410,18.167 20.383 C 18.167 20.257,18.022 20.383,17.409 21.042 M21.417 21.500 C 21.868 21.958,22.275 22.333,22.321 22.333 C 22.367 22.333,22.035 21.958,21.583 21.500 C 21.132 21.042,20.725 20.667,20.679 20.667 C 20.633 20.667,20.965 21.042,21.417 21.500 M84.838 21.745 C 84.626 21.971,84.376 22.110,84.283 22.052 C 84.184 21.991,84.167 22.033,84.243 22.155 C 84.349 22.327,85.333 21.634,85.333 21.385 C 85.333 21.263,85.201 21.359,84.838 21.745 M81.195 21.887 L 80.831 22.273 81.291 22.678 L 81.750 23.083 81.378 22.659 L 81.006 22.235 81.373 21.867 C 81.575 21.665,81.700 21.500,81.649 21.500 C 81.599 21.500,81.395 21.674,81.195 21.887 M20.993 23.042 C 21.684 23.778,21.833 23.910,21.833 23.785 C 21.833 23.758,21.477 23.402,21.042 22.993 L 20.250 22.250 20.993 23.042 M83.214 23.119 C 83.484 23.389,83.456 23.451,82.708 24.244 L 81.917 25.083 82.788 24.259 C 83.611 23.482,83.717 22.833,83.022 22.833 C 82.971 22.833,83.057 22.962,83.214 23.119 M75.833 25.250 C 76.608 26.029,77.280 26.667,77.326 26.667 C 77.372 26.667,76.775 26.029,76.000 25.250 C 75.225 24.471,74.553 23.833,74.507 23.833 C 74.462 23.833,75.058 24.471,75.833 25.250 M25.078 25.208 L 24.083 26.250 25.125 25.255 C 25.698 24.708,26.167 24.239,26.167 24.214 C 26.167 24.090,26.002 24.241,25.078 25.208 M58.539 35.333 C 58.539 35.654,58.573 35.785,58.615 35.625 C 58.657 35.465,58.657 35.202,58.615 35.042 C 58.573 34.881,58.539 35.012,58.539 35.333 M51.653 35.708 C 51.604 36.066,51.629 36.271,51.713 36.187 C 51.794 36.106,51.833 35.825,51.800 35.562 C 51.745 35.121,51.733 35.133,51.653 35.708 M57.583 41.000 C 57.941 41.367,58.272 41.667,58.318 41.667 C 58.363 41.667,58.108 41.367,57.750 41.000 C 57.392 40.633,57.062 40.333,57.016 40.333 C 56.970 40.333,57.225 40.633,57.583 41.000 M39.875 46.948 C 40.035 46.990,40.298 46.990,40.458 46.948 C 40.619 46.906,40.487 46.872,40.167 46.872 C 39.846 46.872,39.715 46.906,39.875 46.948 M100.875 47.583 C 100.877 47.950,100.911 48.080,100.951 47.873 C 100.991 47.666,100.990 47.366,100.948 47.206 C 100.906 47.047,100.874 47.217,100.875 47.583 M37.375 48.115 C 37.535 48.157,37.798 48.157,37.958 48.115 C 38.119 48.073,37.987 48.039,37.667 48.039 C 37.346 48.039,37.215 48.073,37.375 48.115 M39.794 48.285 C 40.001 48.324,40.301 48.323,40.460 48.281 C 40.620 48.239,40.450 48.207,40.083 48.209 C 39.717 48.211,39.586 48.245,39.794 48.285 M14.539 48.833 C 14.539 49.154,14.573 49.285,14.615 49.125 C 14.657 48.965,14.657 48.702,14.615 48.542 C 14.573 48.381,14.539 48.512,14.539 48.833 M44.109 48.458 C 44.066 48.527,44.493 48.562,45.057 48.537 C 46.783 48.458,46.987 48.385,45.552 48.358 C 44.801 48.345,44.151 48.390,44.109 48.458 M62.542 48.782 C 62.702 48.823,62.965 48.823,63.125 48.782 C 63.285 48.740,63.154 48.705,62.833 48.705 C 62.512 48.705,62.381 48.740,62.542 48.782 M84.629 50.125 C 84.725 51.093,84.806 51.163,84.820 50.292 C 84.827 49.856,84.773 49.500,84.700 49.500 C 84.627 49.500,84.595 49.781,84.629 50.125 M16.212 50.333 C 16.212 50.746,16.245 50.915,16.284 50.708 C 16.324 50.502,16.324 50.165,16.284 49.958 C 16.245 49.752,16.212 49.921,16.212 50.333 M45.795 50.621 C 46.094 50.658,46.544 50.657,46.795 50.619 C 47.045 50.581,46.800 50.551,46.250 50.552 C 45.700 50.553,45.495 50.584,45.795 50.621 M42.544 51.286 C 42.797 51.325,43.172 51.324,43.377 51.284 C 43.582 51.244,43.375 51.213,42.917 51.214 C 42.458 51.216,42.291 51.248,42.544 51.286 M59.042 51.750 C 59.044 52.117,59.078 52.247,59.118 52.040 C 59.158 51.832,59.156 51.532,59.115 51.373 C 59.073 51.214,59.040 51.383,59.042 51.750 M84.647 52.036 C 84.724 52.499,84.747 52.523,84.800 52.189 C 84.834 51.972,84.793 51.726,84.709 51.642 C 84.616 51.550,84.592 51.705,84.647 52.036 M14.539 52.667 C 14.539 52.987,14.573 53.119,14.615 52.958 C 14.657 52.798,14.657 52.535,14.615 52.375 C 14.573 52.215,14.539 52.346,14.539 52.667 M37.127 52.451 C 37.334 52.491,37.634 52.490,37.794 52.448 C 37.953 52.406,37.783 52.374,37.417 52.375 C 37.050 52.377,36.920 52.411,37.127 52.451 M61.960 52.451 C 62.168 52.491,62.468 52.490,62.627 52.448 C 62.786 52.406,62.617 52.374,62.250 52.375 C 61.883 52.377,61.753 52.411,61.960 52.451 M39.708 52.615 C 39.869 52.657,40.131 52.657,40.292 52.615 C 40.452 52.573,40.321 52.539,40.000 52.539 C 39.679 52.539,39.548 52.573,39.708 52.615 M44.711 52.786 C 44.964 52.825,45.339 52.824,45.544 52.784 C 45.749 52.744,45.542 52.713,45.083 52.714 C 44.625 52.716,44.457 52.748,44.711 52.786 M100.872 53.833 C 100.872 54.154,100.906 54.285,100.948 54.125 C 100.990 53.965,100.990 53.702,100.948 53.542 C 100.906 53.381,100.872 53.512,100.872 53.833 M62.708 55.282 C 62.869 55.323,63.131 55.323,63.292 55.282 C 63.452 55.240,63.321 55.205,63.000 55.205 C 62.679 55.205,62.548 55.240,62.708 55.282 M38.875 55.448 C 39.035 55.490,39.298 55.490,39.458 55.448 C 39.619 55.406,39.487 55.372,39.167 55.372 C 38.846 55.372,38.715 55.406,38.875 55.448 M42.167 55.564 C 42.167 55.701,43.186 55.770,43.267 55.639 C 43.314 55.562,43.086 55.500,42.760 55.500 C 42.434 55.500,42.167 55.529,42.167 55.564 M4.667 55.833 L 3.083 55.936 4.615 55.968 C 5.493 55.986,6.191 55.929,6.250 55.833 C 6.307 55.742,6.330 55.681,6.302 55.699 C 6.273 55.716,5.537 55.777,4.667 55.833 M90.167 55.833 L 88.583 55.936 90.115 55.968 C 90.993 55.986,91.691 55.929,91.750 55.833 C 91.807 55.742,91.830 55.681,91.802 55.699 C 91.773 55.716,91.037 55.777,90.167 55.833 M8.183 55.905 C 8.302 56.024,10.998 56.058,11.114 55.941 C 11.174 55.882,10.522 55.833,9.667 55.833 C 8.811 55.833,8.143 55.866,8.183 55.905 M94.964 55.957 C 95.988 55.999,96.313 56.066,96.224 56.215 C 96.149 56.339,96.211 56.329,96.385 56.188 C 96.814 55.840,96.778 55.831,95.125 55.867 L 93.583 55.901 94.964 55.957 M38.960 56.285 C 39.168 56.324,39.468 56.323,39.627 56.281 C 39.786 56.239,39.617 56.207,39.250 56.209 C 38.883 56.211,38.753 56.245,38.960 56.285 M60.381 58.750 C 60.382 59.208,60.415 59.376,60.453 59.123 C 60.491 58.869,60.490 58.494,60.451 58.289 C 60.411 58.084,60.380 58.292,60.381 58.750 M44.455 61.620 C 44.750 61.657,45.275 61.658,45.621 61.622 C 45.967 61.586,45.725 61.555,45.083 61.555 C 44.442 61.554,44.159 61.583,44.455 61.620 M45.205 70.000 C 45.205 70.321,45.240 70.452,45.282 70.292 C 45.323 70.131,45.323 69.869,45.282 69.708 C 45.240 69.548,45.205 69.679,45.205 70.000 M25.667 81.083 C 25.978 81.404,26.270 81.667,26.315 81.667 C 26.361 81.667,26.144 81.404,25.833 81.083 C 25.522 80.762,25.230 80.500,25.185 80.500 C 25.139 80.500,25.356 80.762,25.667 81.083 M11.964 83.417 C 12.060 83.600,12.424 84.012,12.772 84.333 C 13.347 84.863,12.857 84.233,11.866 83.167 C 11.823 83.121,11.867 83.233,11.964 83.417 M49.632 84.957 C 50.208 84.990,51.108 84.989,51.632 84.956 C 52.155 84.923,51.683 84.897,50.583 84.897 C 49.483 84.897,49.055 84.924,49.632 84.957 M14.500 86.224 C 15.188 86.939,15.975 87.681,16.250 87.873 C 16.525 88.064,16.675 88.149,16.583 88.062 C 16.492 87.975,15.704 87.233,14.833 86.414 L 13.250 84.924 14.500 86.224 M45.177 90.404 L 44.604 91.083 45.252 90.464 C 45.608 90.123,45.866 89.817,45.825 89.784 C 45.784 89.751,45.492 90.030,45.177 90.404 M49.833 89.927 C 50.251 90.006,50.333 90.100,50.333 90.500 C 50.333 90.900,50.251 90.994,49.833 91.073 C 49.340 91.165,49.341 91.166,49.875 91.125 C 50.375 91.087,50.417 91.038,50.417 90.500 C 50.417 89.962,50.375 89.913,49.875 89.875 C 49.341 89.834,49.340 89.835,49.833 89.927 M18.833 90.055 C 18.833 90.101,19.133 90.376,19.500 90.667 C 19.867 90.957,20.167 91.157,20.167 91.111 C 20.167 91.066,19.867 90.790,19.500 90.500 C 19.133 90.210,18.833 90.009,18.833 90.055 M51.353 90.792 C 51.337 91.099,51.416 91.163,51.792 91.144 C 52.169 91.125,52.186 91.109,51.885 91.050 C 51.685 91.011,51.487 90.853,51.446 90.698 C 51.394 90.499,51.366 90.526,51.353 90.792 M33.705 91.333 C 33.705 91.654,33.740 91.785,33.782 91.625 C 33.823 91.465,33.823 91.202,33.782 91.042 C 33.740 90.881,33.705 91.013,33.705 91.333 M48.042 91.917 C 48.044 92.283,48.078 92.414,48.118 92.206 C 48.158 91.999,48.156 91.699,48.115 91.540 C 48.073 91.380,48.040 91.550,48.042 91.917 M46.553 94.667 C 46.553 95.263,46.584 95.506,46.621 95.208 C 46.658 94.910,46.658 94.423,46.621 94.125 C 46.584 93.827,46.553 94.071,46.553 94.667 M46.877 96.286 C 47.131 96.325,47.506 96.324,47.711 96.284 C 47.916 96.244,47.708 96.213,47.250 96.214 C 46.792 96.216,46.624 96.248,46.877 96.286 M47.127 101.118 C 47.334 101.158,47.634 101.156,47.794 101.115 C 47.953 101.073,47.783 101.040,47.417 101.042 C 47.050 101.044,46.920 101.078,47.127 101.118 M53.294 101.118 C 53.501 101.158,53.801 101.156,53.960 101.115 C 54.120 101.073,53.950 101.040,53.583 101.042 C 53.217 101.044,53.086 101.078,53.294 101.118 " stroke="none" fill="#7d91ae" fill-rule="evenodd"></path></g></svg>